{
.appVersion = "848";
classes = (
{
automatic = 1;
code = "A Aacute Acircumflex Adieresis Agrave Aring Atilde AE B C Ccedilla D Eth E Eacute Ecircumflex Edieresis Egrave F G H I Iacute Icircumflex Idieresis Igrave J K L Lslash M N Ntilde O Oacute Ocircumflex Odieresis Ograve Oslash Otilde OE P Thorn Q R S Scaron T U Uacute Ucircumflex Udieresis Ugrave V W X Y Yacute Ydieresis Z Zcaron";
name = Uppercase;
}
);
copyright = "Copyright (c) 2011-2016 by Omnibus-Type (www.omnibus-type.com omnibus.type@gmail.com)";
customParameters = (
{
name = openTypeNameLicenseURL;
value = "http://scripts.sil.org/OFL";
},
{
name = openTypeNameDescription;
value = "Chivo (Goat) is a new Omnibus-Type grotesque. The strength of Chivo Black make it ideal for highlights and headlines. Chivo Regular elegance makes it ideal for combining the strength of Chivo Black and to use in texts for continuous reading. Its design detail becomes an indispensable ally for any designer.";
},
{
name = trademark;
value = "Chivo is a trademark of Omnibus-Type.";
},
{
name = openTypeNameLicense;
value = "This Font Software is licensed under the SIL Open Font License, Version 1.1. http://scripts.sil.org/OFL";
},
{
name = openTypeOS2VendorID;
value = OMNI;
},
{
name = fsType;
value = (
);
},
{
name = "Family Alignment Zones";
value = (
"{686, 12}",
"{511, 12}",
"{0, -12}"
);
},
{
name = glyphOrder;
value = (
".notdef",
space,
exclam,
quotedbl,
numbersign,
dollar,
percent,
ampersand,
quotesingle,
parenleft,
parenright,
asterisk,
plus,
comma,
hyphen,
period,
slash,
zero,
one,
two,
three,
four,
five,
six,
seven,
eight,
nine,
colon,
semicolon,
less,
equal,
greater,
question,
at,
A,
B,
C,
D,
E,
F,
G,
H,
I,
J,
K,
L,
M,
N,
O,
P,
Q,
R,
S,
T,
U,
V,
W,
X,
Y,
Z,
bracketleft,
backslash,
bracketright,
asciicircum,
underscore,
grave,
a,
b,
c,
d,
e,
f,
g,
h,
i,
j,
k,
l,
m,
n,
o,
p,
q,
r,
s,
t,
u,
v,
w,
x,
y,
z,
braceleft,
bar,
braceright,
asciitilde,
nbspace,
exclamdown,
cent,
sterling,
currency,
yen,
brokenbar,
section,

glyphs = (
{
glyphname = .notdef;
lastChange = "2014-09-05 18:35:52 +0000";
layers = (
{
background = {
paths = (
{
closed = 1;
nodes = (
"0 700 LINE",
"0 0 LINE",
"500 0 LINE",
"500 700 LINE"
);
},
{
closed = 1;
nodes = (
"420 50 LINE",
"80 50 LINE",
"250 305 LINE"
);
},
{
closed = 1;
nodes = (
"220 350 LINE",
"50 95 LINE",
"50 605 LINE"
);
},
{
closed = 1;
nodes = (
"450 95 LINE",
"280 350 LINE",
"450 605 LINE"
);
},
{
closed = 1;
nodes = (
"250 395 LINE",
"80 650 LINE",
"420 650 LINE"
);
}
);
};
layerId = UUID0;
paths = (
{
closed = 1;
nodes = (
"0 700 LINE",
"0 0 LINE",
"500 0 LINE",
"500 700 LINE"
);
},
{
closed = 1;
nodes = (
"420 50 LINE",
"80 50 LINE",
"250 305 LINE"
);
},
{
closed = 1;
nodes = (
"220 350 LINE",
"50 95 LINE",
"50 605 LINE"
);
},
{
closed = 1;
nodes = (
"450 95 LINE",
"280 350 LINE",
"450 605 LINE"
);
},
{
closed = 1;
nodes = (
"250 395 LINE",
"80 650 LINE",
"420 650 LINE"
);
}
);
width = 500;
}
);
},
{
glyphname = exclam;
lastChange = "2014-09-05 18:35:52 +0000";
layers = (
{
background = {
paths = (
{
closed = 1;
nodes = (
"37 686 LINE",
"91 231 LINE",
"218 231 LINE",
"275 686 LINE"
);
},
{
closed = 1;
nodes = (
"61 183 LINE",
"61 0 LINE",
"252 0 LINE",
"252 183 LINE"
);
}
);
};
layerId = UUID0;
paths = (
{
closed = 1;
nodes = (
"37 686 LINE",
"91 231 LINE",
"218 231 LINE",
"275 686 LINE"
);
},
{
closed = 1;
nodes = (
"61 183 LINE",
"61 0 LINE",
"252 0 LINE",
"252 183 LINE"
);
}
);
width = 311;
}
);
unicode = 0021;
},
{
glyphname = quotedbl;
lastChange = "2014-09-05 18:35:52 +0000";
layers = (
{
background = {
paths = (
{
closed = 1;
nodes = (
"241 686 LINE",
"241 539 LINE",
"288 396 LINE",
"348 396 LINE",
"396 539 LINE",
"396 686 LINE"
);
},
{
closed = 1;
nodes = (
"38 686 LINE",
"38 539 LINE",
"85 396 LINE",
"146 396 LINE",
"193 539 LINE",
"193 686 LINE"
);
}
);
};
layerId = UUID0;
paths = (
{
closed = 1;
nodes = (
"241 686 LINE",
"241 539 LINE",
"288 396 LINE",
"348 396 LINE",
"396 539 LINE",
"396 686 LINE"
);
},
{
closed = 1;
nodes = (
"38 686 LINE",
"38 539 LINE",
"85 396 LINE",
"146 396 LINE",
"193 539 LINE",
"193 686 LINE"
);
}
);
width = 434;
}
);
leftKerningGroup = quotedbl;
unicode = 0022;
},
{
glyphname = numbersign;
lastChange = "2014-09-05 18:35:52 +0000";
layers = (
{
background = {
paths = (
{
closed = 1;
nodes = (
"470 696 LINE",
"427 502 LINE",
"317 502 LINE",
"361 696 LINE",
"242 696 LINE",
"199 502 LINE",
"72 502 LINE",
"72 394 LINE",
"178 394 LINE",
"150 273 LINE",
"27 273 LINE",
"27 166 LINE",
"125 166 LINE",
"90 0 LINE",
"207 0 LINE",
"242 166 LINE",
"354 166 LINE",
"318 0 LINE",
"434 0 LINE",
"470 166 LINE",
"601 166 LINE",
"601 273 LINE",
"497 273 LINE",
"523 394 LINE",
"633 394 LINE",
"633 502 LINE",
"542 502 LINE",
"587 696 LINE"
);
},
{
closed = 1;
nodes = (
"379 272 LINE",
"266 272 LINE",
"293 393 LINE",
"407 393 LINE"
);
}
);
};
layerId = UUID0;
paths = (
{
closed = 1;
nodes = (
"470 696 LINE",
"427 502 LINE",
"317 502 LINE",
"361 696 LINE",
"242 696 LINE",
"199 502 LINE",
"72 502 LINE",
"72 394 LINE",
"178 394 LINE",
"150 273 LINE",
"27 273 LINE",
"27 166 LINE",
"125 166 LINE",
"90 0 LINE",
"207 0 LINE",
"242 166 LINE",
"354 166 LINE",
"318 0 LINE",
"434 0 LINE",
"470 166 LINE",
"601 166 LINE",
"601 273 LINE",
"497 273 LINE",
"523 394 LINE",
"633 394 LINE",
"633 502 LINE",
"542 502 LINE",
"587 696 LINE"
);
},
{
closed = 1;
nodes = (
"379 272 LINE",
"266 272 LINE",
"293 393 LINE",
"407 393 LINE"
);
}
);
width = 662;
}
);
unicode = 0023;
},
{
glyphname = dollar;
lastChange = "2014-09-05 18:35:52 +0000";
layers = (
{
background = {
paths = (
{
closed = 1;
nodes = (
"227 757 LINE",
"242 671 LINE",
"127 655 OFFCURVE",
"42 586 OFFCURVE",
"42 472 CURVE SMOOTH",
"42 350 OFFCURVE",
"125 301 OFFCURVE",
"208 280 CURVE",
"287 262 LINE SMOOTH",
"336 251 OFFCURVE",
"373 238 OFFCURVE",
"373 208 CURVE SMOOTH",
"373 188 OFFCURVE",
"360 169 OFFCURVE",
"287 169 CURVE SMOOTH",
"221 169 OFFCURVE",
"203 202 OFFCURVE",
"203 235 CURVE",
"204 246 LINE",
"29 246 LINE",
"28 242 OFFCURVE",
"28 238 OFFCURVE",
"28 234 CURVE SMOOTH",
"28 224 LINE SMOOTH",
"28 99 OFFCURVE",
"125 35 OFFCURVE",
"242 22 CURVE",
"227 -66 LINE",
"355 -66 LINE",
"340 21 LINE",
"479 32 OFFCURVE",
"568 100 OFFCURVE",
"568 241 CURVE SMOOTH",
"568 355 OFFCURVE",
"484 401 OFFCURVE",
"400 420 CURVE",
"320 440 LINE SMOOTH",
"271 452 OFFCURVE",
"233 463 OFFCURVE",
"233 495 CURVE SMOOTH",
"233 518 OFFCURVE",
"257 534 OFFCURVE",
"308 534 CURVE SMOOTH",
"363 534 OFFCURVE",
"383 504 OFFCURVE",
"383 473 CURVE SMOOTH",
"383 469 LINE",
"556 469 LINE",
"556 480 LINE SMOOTH",
"556 603 OFFCURVE",
"461 663 OFFCURVE",
"340 674 CURVE",
"355 757 LINE"
);
}
);
};
layerId = UUID0;
paths = (
{
closed = 1;
nodes = (
"227 757 LINE",
"242 671 LINE",
"127 655 OFFCURVE",
"42 586 OFFCURVE",
"42 472 CURVE SMOOTH",
"42 350 OFFCURVE",
"125 301 OFFCURVE",
"208 280 CURVE",
"287 262 LINE SMOOTH",
"336 251 OFFCURVE",
"373 238 OFFCURVE",
"373 208 CURVE SMOOTH",
"373 188 OFFCURVE",
"360 169 OFFCURVE",
"287 169 CURVE SMOOTH",
"221 169 OFFCURVE",
"203 202 OFFCURVE",
"203 235 CURVE",
"204 246 LINE",
"29 246 LINE",
"28 242 OFFCURVE",
"28 238 OFFCURVE",
"28 234 CURVE SMOOTH",
"28 224 LINE SMOOTH",
"28 99 OFFCURVE",
"125 35 OFFCURVE",
"242 22 CURVE",
"227 -66 LINE",
"355 -66 LINE",
"340 21 LINE",
"479 32 OFFCURVE",
"568 100 OFFCURVE",
"568 241 CURVE SMOOTH",
"568 355 OFFCURVE",
"484 401 OFFCURVE",
"400 420 CURVE",
"320 440 LINE SMOOTH",
"271 452 OFFCURVE",
"233 463 OFFCURVE",
"233 495 CURVE SMOOTH",
"233 518 OFFCURVE",
"257 534 OFFCURVE",
"308 534 CURVE SMOOTH",
"363 534 OFFCURVE",
"383 504 OFFCURVE",
"383 473 CURVE SMOOTH",
"383 469 LINE",
"556 469 LINE",
"556 480 LINE SMOOTH",
"556 603 OFFCURVE",
"461 663 OFFCURVE",
"340 674 CURVE",
"355 757 LINE"
);
}
);
width = 600;
}
);
unicode = 0024;
},
{
glyphname = percent;
lastChange = "2014-09-05 18:35:52 +0000";
layers = (
{
background = {
paths = (
{
closed = 1;
nodes = (
"519 686 LINE",
"100 0 LINE",
"195 0 LINE",
"612 686 LINE"
);
},
{
closed = 1;
nodes = (
"150 685 LINE SMOOTH",
"82 685 OFFCURVE",
"27 630 OFFCURVE",
"27 562 CURVE SMOOTH",
"27 460 LINE SMOOTH",
"27 392 OFFCURVE",
"82 337 OFFCURVE",
"150 337 CURVE SMOOTH",
"172 337 LINE SMOOTH",
"240 337 OFFCURVE",
"296 392 OFFCURVE",
"296 460 CURVE SMOOTH",
"296 562 LINE SMOOTH",
"296 630 OFFCURVE",
"240 685 OFFCURVE",
"172 685 CURVE SMOOTH"
);
},
{
closed = 1;
nodes = (
"182 614 OFFCURVE",
"198 598 OFFCURVE",
"198 575 CURVE SMOOTH",
"198 448 LINE SMOOTH",
"198 425 OFFCURVE",
"182 409 OFFCURVE",
"161 409 CURVE SMOOTH",
"141 409 OFFCURVE",
"124 425 OFFCURVE",
"124 448 CURVE SMOOTH",
"124 575 LINE SMOOTH",
"124 598 OFFCURVE",
"141 614 OFFCURVE",
"161 614 CURVE SMOOTH"
);
},
{
closed = 1;
nodes = (
"540 348 LINE SMOOTH",
"472 348 OFFCURVE",
"417 293 OFFCURVE",
"417 225 CURVE SMOOTH",
"417 123 LINE SMOOTH",
"417 55 OFFCURVE",
"472 -1 OFFCURVE",
"540 -1 CURVE SMOOTH",
"562 -1 LINE SMOOTH",
"630 -1 OFFCURVE",
"686 55 OFFCURVE",
"686 123 CURVE SMOOTH",
"686 225 LINE SMOOTH",
"686 293 OFFCURVE",
"630 348 OFFCURVE",
"562 348 CURVE SMOOTH"
);
},
{
closed = 1;
nodes = (
"572 277 OFFCURVE",
"588 260 OFFCURVE",
"588 237 CURVE SMOOTH",
"588 110 LINE SMOOTH",
"588 89 OFFCURVE",
"572 71 OFFCURVE",
"551 71 CURVE SMOOTH",
"531 71 OFFCURVE",
"514 89 OFFCURVE",
"514 110 CURVE SMOOTH",
"514 237 LINE SMOOTH",
"514 260 OFFCURVE",
"531 277 OFFCURVE",
"551 277 CURVE SMOOTH"
);
}
);
};
layerId = UUID0;
paths = (
{
closed = 1;
nodes = (
"519 686 LINE",
"100 0 LINE",
"195 0 LINE",
"612 686 LINE"
);
},
{
closed = 1;
nodes = (
"150 685 LINE SMOOTH",
"82 685 OFFCURVE",
"27 630 OFFCURVE",
"27 562 CURVE SMOOTH",
"27 460 LINE SMOOTH",
"27 392 OFFCURVE",
"82 337 OFFCURVE",
"150 337 CURVE SMOOTH",
"172 337 LINE SMOOTH",
"240 337 OFFCURVE",
"296 392 OFFCURVE",
"296 460 CURVE SMOOTH",
"296 562 LINE SMOOTH",
"296 630 OFFCURVE",
"240 685 OFFCURVE",
"172 685 CURVE SMOOTH"
);
},
{
closed = 1;
nodes = (
"182 614 OFFCURVE",
"198 598 OFFCURVE",
"198 575 CURVE SMOOTH",
"198 448 LINE SMOOTH",
"198 425 OFFCURVE",
"182 409 OFFCURVE",
"161 409 CURVE SMOOTH",
"141 409 OFFCURVE",
"124 425 OFFCURVE",
"124 448 CURVE SMOOTH",
"124 575 LINE SMOOTH",
"124 598 OFFCURVE",
"141 614 OFFCURVE",
"161 614 CURVE SMOOTH"
);
},
{
closed = 1;
nodes = (
"540 348 LINE SMOOTH",
"472 348 OFFCURVE",
"417 293 OFFCURVE",
"417 225 CURVE SMOOTH",
"417 123 LINE SMOOTH",
"417 55 OFFCURVE",
"472 -1 OFFCURVE",
"540 -1 CURVE SMOOTH",
"562 -1 LINE SMOOTH",
"630 -1 OFFCURVE",
"686 55 OFFCURVE",
"686 123 CURVE SMOOTH",
"686 225 LINE SMOOTH",
"686 293 OFFCURVE",
"630 348 OFFCURVE",
"562 348 CURVE SMOOTH"
);
},
{
closed = 1;
nodes = (
"572 277 OFFCURVE",
"588 260 OFFCURVE",
"588 237 CURVE SMOOTH",
"588 110 LINE SMOOTH",
"588 89 OFFCURVE",
"572 71 OFFCURVE",
"551 71 CURVE SMOOTH",
"531 71 OFFCURVE",
"514 89 OFFCURVE",
"514 110 CURVE SMOOTH",
"514 237 LINE SMOOTH",
"514 260 OFFCURVE",
"531 277 OFFCURVE",
"551 277 CURVE SMOOTH"
);
}
);
width = 713;
}
);
unicode = 0025;
},
{
glyphname = ampersand;
lastChange = "2014-09-05 18:35:52 +0000";
layers = (
{
background = {
paths = (
{
closed = 1;
nodes = (
"175 696 OFFCURVE",
"49 635 OFFCURVE",
"49 506 CURVE SMOOTH",
"49 438 OFFCURVE",
"84 379 OFFCURVE",
"151 358 CURVE",
"71 334 OFFCURVE",
"28 282 OFFCURVE",
"28 197 CURVE SMOOTH",
"28 42 OFFCURVE",
"160 0 OFFCURVE",
"300 0 CURVE SMOOTH",
"619 0 LINE",
"619 279 LINE",
"699 279 LINE",
"699 421 LINE",
"619 421 LINE",
"619 540 LINE",
"482 540 LINE",
"428 421 LINE",
"307 421 LINE SMOOTH",
"260 421 OFFCURVE",
"243 461 OFFCURVE",
"243 484 CURVE SMOOTH",
"243 525 OFFCURVE",
"277 548 OFFCURVE",
"316 548 CURVE SMOOTH",
"325 548 OFFCURVE",
"335 546 OFFCURVE",
"345 543 CURVE",
"345 693 LINE",
"329 695 OFFCURVE",
"312 696 OFFCURVE",
"295 696 CURVE SMOOTH"
);
},
{
closed = 1;
nodes = (
"421 138 LINE",
"312 138 LINE SMOOTH",
"268 138 OFFCURVE",
"227 161 OFFCURVE",
"227 210 CURVE SMOOTH",
"227 233 OFFCURVE",
"243 279 OFFCURVE",
"307 279 CURVE SMOOTH",
"421 279 LINE"
);
}
);
};
layerId = UUID0;
paths = (
{
closed = 1;
nodes = (
"175 696 OFFCURVE",
"49 635 OFFCURVE",
"49 506 CURVE SMOOTH",
"49 438 OFFCURVE",
"84 379 OFFCURVE",
"151 358 CURVE",
"71 334 OFFCURVE",
"28 282 OFFCURVE",
"28 197 CURVE SMOOTH",
"28 42 OFFCURVE",
"160 0 OFFCURVE",
"300 0 CURVE SMOOTH",
"619 0 LINE",
"619 279 LINE",
"699 279 LINE",
"699 421 LINE",
"619 421 LINE",
"619 540 LINE",
"482 540 LINE",
"428 421 LINE",
"307 421 LINE SMOOTH",
"260 421 OFFCURVE",
"243 461 OFFCURVE",
"243 484 CURVE SMOOTH",
"243 525 OFFCURVE",
"277 548 OFFCURVE",
"316 548 CURVE SMOOTH",
"325 548 OFFCURVE",
"335 546 OFFCURVE",
"345 543 CURVE",
"345 693 LINE",
"329 695 OFFCURVE",
"312 696 OFFCURVE",
"295 696 CURVE SMOOTH"
);
},
{
closed = 1;
nodes = (
"421 138 LINE",
"312 138 LINE SMOOTH",
"268 138 OFFCURVE",
"227 161 OFFCURVE",
"227 210 CURVE SMOOTH",
"227 233 OFFCURVE",
"243 279 OFFCURVE",
"307 279 CURVE SMOOTH",
"421 279 LINE"
);
}
);
width = 729;
}
);
unicode = 0026;
},
{
glyphname = quotesingle;
lastChange = "2014-09-05 18:35:52 +0000";
layers = (
{
background = {
paths = (
{
closed = 1;
nodes = (
"38 686 LINE",
"38 539 LINE",
"85 396 LINE",
"146 396 LINE",
"193 539 LINE",
"193 686 LINE"
);
}
);
};
layerId = UUID0;
paths = (
{
closed = 1;
nodes = (
"38 686 LINE",
"38 539 LINE",
"85 396 LINE",
"146 396 LINE",
"193 539 LINE",
"193 686 LINE"
);
}
);
width = 231;
}
);
leftKerningGroup = quotedbl;
unicode = 0027;
},
{
glyphname = parenleft;
lastChange = "2014-09-05 18:35:52 +0000";
layers = (
{
background = {
paths = (
{
closed = 1;
nodes = (
"189 686 LINE",
"86 569 OFFCURVE",
"30 420 OFFCURVE",
"30 264 CURVE SMOOTH",
"30 108 OFFCURVE",
"86 -41 OFFCURVE",
"189 -158 CURVE",
"297 -158 LINE",
"230 -43 OFFCURVE",
"186 132 OFFCURVE",
"186 265 CURVE SMOOTH",
"186 400 OFFCURVE",
"231 569 OFFCURVE",
"297 686 CURVE"
);
}
);
};
layerId = UUID0;
paths = (
{
closed = 1;
nodes = (
"189 686 LINE",
"86 569 OFFCURVE",
"30 420 OFFCURVE",
"30 264 CURVE SMOOTH",
"30 108 OFFCURVE",
"86 -41 OFFCURVE",
"189 -158 CURVE",
"297 -158 LINE",
"230 -43 OFFCURVE",
"186 132 OFFCURVE",
"186 265 CURVE SMOOTH",
"186 400 OFFCURVE",
"231 569 OFFCURVE",
"297 686 CURVE"
);
}
);
width = 313;
}
);
unicode = 0028;
},
{
glyphname = parenright;
lastChange = "2014-09-05 18:35:52 +0000";
layers = (
{
background = {
paths = (
{
closed = 1;
nodes = (
"16 686 LINE",
"82 569 OFFCURVE",
"127 400 OFFCURVE",
"127 265 CURVE SMOOTH",
"127 132 OFFCURVE",
"83 -43 OFFCURVE",
"16 -158 CURVE",
"124 -158 LINE",
"227 -41 OFFCURVE",
"283 108 OFFCURVE",
"283 264 CURVE SMOOTH",
"283 420 OFFCURVE",
"227 569 OFFCURVE",
"124 686 CURVE"
);
}
);
};
layerId = UUID0;
paths = (
{
closed = 1;
nodes = (
"16 686 LINE",
"82 569 OFFCURVE",
"127 400 OFFCURVE",
"127 265 CURVE SMOOTH",
"127 132 OFFCURVE",
"83 -43 OFFCURVE",
"16 -158 CURVE",
"124 -158 LINE",
"227 -41 OFFCURVE",
"283 108 OFFCURVE",
"283 264 CURVE SMOOTH",
"283 420 OFFCURVE",
"227 569 OFFCURVE",
"124 686 CURVE"
);
}
);
width = 313;
}
);
unicode = 0029;
},
{
glyphname = asterisk;
lastChange = "2014-09-05 18:35:52 +0000";
layers = (
{
background = {
paths = (
{
closed = 1;
nodes = (
"192 686 LINE",
"205 533 LINE",
"65 593 LINE",
"26 483 LINE",
"173 448 LINE",
"73 335 LINE",
"173 265 LINE",
"251 396 LINE",
"330 265 LINE",
"430 335 LINE",
"330 448 LINE",
"480 483 LINE",
"445 593 LINE",
"297 533 LINE",
"312 686 LINE"
);
}
);
};
layerId = UUID0;
paths = (
{
closed = 1;
nodes = (
"192 686 LINE",
"205 533 LINE",
"65 593 LINE",
"26 483 LINE",
"173 448 LINE",
"73 335 LINE",
"173 265 LINE",
"251 396 LINE",
"330 265 LINE",
"430 335 LINE",
"330 448 LINE",
"480 483 LINE",
"445 593 LINE",
"297 533 LINE",
"312 686 LINE"
);
}
);
width = 506;
}
);
unicode = 002A;
},
{
glyphname = plus;
lastChange = "2014-09-05 18:35:52 +0000";
layers = (
{
background = {
paths = (
{
closed = 1;
nodes = (
"243 512 LINE",
"243 320 LINE",
"51 320 LINE",
"51 192 LINE",
"243 192 LINE",
"243 0 LINE",
"371 0 LINE",
"371 192 LINE",
"563 192 LINE",
"563 320 LINE",
"371 320 LINE",
"371 512 LINE"
);
}
);
};
layerId = UUID0;
paths = (
{
closed = 1;
nodes = (
"243 512 LINE",
"243 320 LINE",
"51 320 LINE",
"51 192 LINE",
"243 192 LINE",
"243 0 LINE",
"371 0 LINE",
"371 192 LINE",
"563 192 LINE",
"563 320 LINE",
"371 320 LINE",
"371 512 LINE"
);
}
);
width = 615;
}
);
unicode = 002B;
},
{
glyphname = comma;
lastChange = "2014-09-05 18:35:52 +0000";
layers = (
{
background = {
paths = (
{
closed = 1;
nodes = (
"48 183 LINE",
"48 0 LINE",
"132 0 LINE",
"95 -165 LINE",
"189 -165 LINE",
"239 22 LINE",
"239 183 LINE"
);
}
);
};
layerId = UUID0;
paths = (
{
closed = 1;
nodes = (
"48 183 LINE",
"48 0 LINE",
"132 0 LINE",
"95 -165 LINE",
"189 -165 LINE",
"239 22 LINE",
"239 183 LINE"
);
}
);
width = 287;
}
);
leftKerningGroup = comma;
rightKerningGroup = comma;
unicode = 002C;
},
{
glyphname = hyphen;
lastChange = "2014-09-05 18:35:52 +0000";
layers = (
{
background = {
paths = (
{
closed = 1;
nodes = (
"49 354 LINE",
"49 196 LINE",
"303 196 LINE",
"303 354 LINE"
);
}
);
};
layerId = UUID0;
paths = (
{
closed = 1;
nodes = (
"49 354 LINE",
"49 196 LINE",
"303 196 LINE",
"303 354 LINE"
);
}
);
width = 352;
}
);
leftKerningGroup = hyphen;
rightKerningGroup = hyphen;
unicode = 002D;
},
{
glyphname = period;
lastChange = "2014-09-05 18:35:52 +0000";
layers = (
{
background = {
paths = (
{
closed = 1;
nodes = (
"48 183 LINE",
"48 0 LINE",
"239 0 LINE",
"239 183 LINE"
);
}
);
};
layerId = UUID0;
paths = (
{
closed = 1;
nodes = (
"48 183 LINE",
"48 0 LINE",
"239 0 LINE",
"239 183 LINE"
);
}
);
width = 287;
}
);
leftKerningGroup = comma;
rightKerningGroup = comma;
unicode = 002E;
},
{
glyphname = slash;
lastChange = "2014-09-05 18:35:52 +0000";
layers = (
{
background = {
paths = (
{
closed = 1;
nodes = (
"506 686 LINE",
"16 -171 LINE",
"148 -171 LINE",
"637 686 LINE"
);
}
);
};
layerId = UUID0;
paths = (
{
closed = 1;
nodes = (
"506 686 LINE",
"16 -171 LINE",
"148 -171 LINE",
"637 686 LINE"
);
}
);
width = 652;
}
);
unicode = 002F;
},
{
glyphname = zero;
lastChange = "2014-09-05 18:35:52 +0000";
layers = (
{
background = {
paths = (
{
closed = 1;
nodes = (
"285 696 LINE SMOOTH",
"146 696 OFFCURVE",
"35 585 OFFCURVE",
"35 446 CURVE SMOOTH",
"35 240 LINE SMOOTH",
"35 101 OFFCURVE",
"146 -10 OFFCURVE",
"285 -10 CURVE SMOOTH",
"330 -10 LINE SMOOTH",
"469 -10 OFFCURVE",
"580 101 OFFCURVE",
"580 240 CURVE SMOOTH",
"580 446 LINE SMOOTH",
"580 585 OFFCURVE",
"469 696 OFFCURVE",
"330 696 CURVE SMOOTH"
);
},
{
closed = 1;
nodes = (
"349 552 OFFCURVE",
"382 516 OFFCURVE",
"382 472 CURVE SMOOTH",
"382 215 LINE SMOOTH",
"382 171 OFFCURVE",
"350 135 OFFCURVE",
"307 135 CURVE SMOOTH",
"266 135 OFFCURVE",
"233 171 OFFCURVE",
"233 215 CURVE SMOOTH",
"233 472 LINE SMOOTH",
"233 516 OFFCURVE",
"265 552 OFFCURVE",
"308 552 CURVE SMOOTH"
);
}
);
};
layerId = UUID0;
paths = (
{
closed = 1;
nodes = (
"285 696 LINE SMOOTH",
"146 696 OFFCURVE",
"35 585 OFFCURVE",
"35 446 CURVE SMOOTH",
"35 240 LINE SMOOTH",
"35 101 OFFCURVE",
"146 -10 OFFCURVE",
"285 -10 CURVE SMOOTH",
"330 -10 LINE SMOOTH",
"469 -10 OFFCURVE",
"580 101 OFFCURVE",
"580 240 CURVE SMOOTH",
"580 446 LINE SMOOTH",
"580 585 OFFCURVE",
"469 696 OFFCURVE",
"330 696 CURVE SMOOTH"
);
},
{
closed = 1;
nodes = (
"349 552 OFFCURVE",
"382 516 OFFCURVE",
"382 472 CURVE SMOOTH",
"382 215 LINE SMOOTH",
"382 171 OFFCURVE",
"350 135 OFFCURVE",
"307 135 CURVE SMOOTH",
"266 135 OFFCURVE",
"233 171 OFFCURVE",
"233 215 CURVE SMOOTH",
"233 472 LINE SMOOTH",
"233 516 OFFCURVE",
"265 552 OFFCURVE",
"308 552 CURVE SMOOTH"
);
}
);
width = 615;
}
);
unicode = 0030;
},
{
glyphname = one;
lastChange = "2014-09-05 18:35:52 +0000";
layers = (
{
background = {
paths = (
{
closed = 1;
nodes = (
"354 696 LINE",
"280 646 OFFCURVE",
"162 593 OFFCURVE",
"73 588 CURVE",
"73 473 LINE",
"225 473 LINE",
"225 153 LINE",
"73 153 LINE",
"73 0 LINE",
"567 0 LINE",
"567 153 LINE",
"421 153 LINE",
"421 696 LINE"
);
}
);
};
layerId = UUID0;
paths = (
{
closed = 1;
nodes = (
"354 696 LINE",
"280 646 OFFCURVE",
"162 593 OFFCURVE",
"73 588 CURVE",
"73 473 LINE",
"225 473 LINE",
"225 153 LINE",
"73 153 LINE",
"73 0 LINE",
"567 0 LINE",
"567 153 LINE",
"421 153 LINE",
"421 696 LINE"
);
}
);
width = 615;
}
);
unicode = 0031;
},
{
glyphname = two;
lastChange = "2014-09-05 18:35:52 +0000";
layers = (
{
background = {
paths = (
{
closed = 1;
nodes = (
"293 696 LINE SMOOTH",
"130 696 OFFCURVE",
"38 592 OFFCURVE",
"38 461 CURVE SMOOTH",
"38 442 LINE",
"214 442 LINE",
"214 470 LINE SMOOTH",
"214 510 OFFCURVE",
"245 540 OFFCURVE",
"284 540 CURVE SMOOTH",
"297 540 LINE SMOOTH",
"336 540 OFFCURVE",
"367 509 OFFCURVE",
"367 470 CURVE SMOOTH",
"367 433 OFFCURVE",
"352 396 OFFCURVE",
"313 365 CURVE SMOOTH",
"115 209 LINE SMOOTH",
"55 162 OFFCURVE",
"35 112 OFFCURVE",
"35 36 CURVE SMOOTH",
"35 0 LINE",
"570 0 LINE",
"570 168 LINE",
"307 168 LINE",
"416 244 LINE SMOOTH",
"514 312 OFFCURVE",
"569 372 OFFCURVE",
"569 474 CURVE SMOOTH",
"569 604 OFFCURVE",
"472 696 OFFCURVE",
"324 696 CURVE SMOOTH"
);
}
);
};
layerId = UUID0;
paths = (
{
closed = 1;
nodes = (
"293 696 LINE SMOOTH",
"130 696 OFFCURVE",
"38 592 OFFCURVE",
"38 461 CURVE SMOOTH",
"38 442 LINE",
"214 442 LINE",
"214 470 LINE SMOOTH",
"214 510 OFFCURVE",
"245 540 OFFCURVE",
"284 540 CURVE SMOOTH",
"297 540 LINE SMOOTH",
"336 540 OFFCURVE",
"367 509 OFFCURVE",
"367 470 CURVE SMOOTH",
"367 433 OFFCURVE",
"352 396 OFFCURVE",
"313 365 CURVE SMOOTH",
"115 209 LINE SMOOTH",
"55 162 OFFCURVE",
"35 112 OFFCURVE",
"35 36 CURVE SMOOTH",
"35 0 LINE",
"570 0 LINE",
"570 168 LINE",
"307 168 LINE",
"416 244 LINE SMOOTH",
"514 312 OFFCURVE",
"569 372 OFFCURVE",
"569 474 CURVE SMOOTH",
"569 604 OFFCURVE",
"472 696 OFFCURVE",
"324 696 CURVE SMOOTH"
);
}
);
width = 615;
}
);
unicode = 0032;
},
{
glyphname = three;
lastChange = "2014-09-05 18:35:52 +0000";
layers = (
{
background = {
paths = (
{
closed = 1;
nodes = (
"294 696 LINE SMOOTH",
"143 696 OFFCURVE",
"44 613 OFFCURVE",
"44 509 CURVE SMOOTH",
"44 484 LINE",
"211 484 LINE",
"211 519 OFFCURVE",
"242 547 OFFCURVE",
"281 547 CURVE SMOOTH",
"299 547 LINE SMOOTH",
"338 547 OFFCURVE",
"369 519 OFFCURVE",
"369 484 CURVE SMOOTH",
"369 435 OFFCURVE",
"338 412 OFFCURVE",
"299 412 CURVE SMOOTH",
"211 412 LINE",
"211 289 LINE",
"315 289 LINE SMOOTH",
"354 289 OFFCURVE",
"385 266 OFFCURVE",
"385 217 CURVE SMOOTH",
"385 170 OFFCURVE",
"358 139 OFFCURVE",
"305 139 CURVE SMOOTH",
"278 139 LINE SMOOTH",
"222 139 OFFCURVE",
"198 170 OFFCURVE",
"198 209 CURVE",
"22 209 LINE",
"22 188 LINE SMOOTH",
"22 79 OFFCURVE",
"114 -10 OFFCURVE",
"282 -10 CURVE SMOOTH",
"324 -10 LINE SMOOTH",
"492 -10 OFFCURVE",
"584 79 OFFCURVE",
"584 189 CURVE SMOOTH",
"584 274 OFFCURVE",
"542 334 OFFCURVE",
"469 359 CURVE",
"528 383 OFFCURVE",
"564 441 OFFCURVE",
"564 510 CURVE SMOOTH",
"564 612 OFFCURVE",
"467 696 OFFCURVE",
"324 696 CURVE SMOOTH"
);
}
);
};
layerId = UUID0;
paths = (
{
closed = 1;
nodes = (
"294 696 LINE SMOOTH",
"143 696 OFFCURVE",
"44 613 OFFCURVE",
"44 509 CURVE SMOOTH",
"44 484 LINE",
"211 484 LINE",
"211 519 OFFCURVE",
"242 547 OFFCURVE",
"281 547 CURVE SMOOTH",
"299 547 LINE SMOOTH",
"338 547 OFFCURVE",
"369 519 OFFCURVE",
"369 484 CURVE SMOOTH",
"369 435 OFFCURVE",
"338 412 OFFCURVE",
"299 412 CURVE SMOOTH",
"211 412 LINE",
"211 289 LINE",
"315 289 LINE SMOOTH",
"354 289 OFFCURVE",
"385 266 OFFCURVE",
"385 217 CURVE SMOOTH",
"385 170 OFFCURVE",
"358 139 OFFCURVE",
"305 139 CURVE SMOOTH",
"278 139 LINE SMOOTH",
"222 139 OFFCURVE",
"198 170 OFFCURVE",
"198 209 CURVE",
"22 209 LINE",
"22 188 LINE SMOOTH",
"22 79 OFFCURVE",
"114 -10 OFFCURVE",
"282 -10 CURVE SMOOTH",
"324 -10 LINE SMOOTH",
"492 -10 OFFCURVE",
"584 79 OFFCURVE",
"584 189 CURVE SMOOTH",
"584 274 OFFCURVE",
"542 334 OFFCURVE",
"469 359 CURVE",
"528 383 OFFCURVE",
"564 441 OFFCURVE",
"564 510 CURVE SMOOTH",
"564 612 OFFCURVE",
"467 696 OFFCURVE",
"324 696 CURVE SMOOTH"
);
}
);
width = 615;
}
);
unicode = 0033;
},
{
glyphname = four;
lastChange = "2014-09-05 18:35:52 +0000";
layers = (
{
background = {
paths = (
{
closed = 1;
nodes = (
"178 696 LINE",
"168 648 OFFCURVE",
"142 571 OFFCURVE",
"111 494 CURVE SMOOTH",
"81 420 LINE SMOOTH",
"61 371 OFFCURVE",
"38 329 OFFCURVE",
"22 300 CURVE",
"22 151 LINE",
"302 151 LINE",
"302 0 LINE",
"490 0 LINE",
"490 151 LINE",
"588 151 LINE",
"588 298 LINE",
"490 298 LINE",
"490 630 LINE",
"407 630 LINE",
"394 574 OFFCURVE",
"337 448 OFFCURVE",
"302 400 CURVE",
"302 298 LINE",
"152 298 LINE",
"223 380 OFFCURVE",
"339 592 OFFCURVE",
"355 696 CURVE"
);
}
);
};
layerId = UUID0;
paths = (
{
closed = 1;
nodes = (
"178 696 LINE",
"168 648 OFFCURVE",
"142 571 OFFCURVE",
"111 494 CURVE SMOOTH",
"81 420 LINE SMOOTH",
"61 371 OFFCURVE",
"38 329 OFFCURVE",
"22 300 CURVE",
"22 151 LINE",
"302 151 LINE",
"302 0 LINE",
"490 0 LINE",
"490 151 LINE",
"588 151 LINE",
"588 298 LINE",
"490 298 LINE",
"490 630 LINE",
"407 630 LINE",
"394 574 OFFCURVE",
"337 448 OFFCURVE",
"302 400 CURVE",
"302 298 LINE",
"152 298 LINE",
"223 380 OFFCURVE",
"339 592 OFFCURVE",
"355 696 CURVE"
);
}
);
width = 615;
}
);
unicode = 0034;
},
{
glyphname = five;
lastChange = "2014-09-05 18:35:52 +0000";
layers = (
{
background = {
paths = (
{
closed = 1;
nodes = (
"89 686 LINE",
"60 303 LINE",
"218 281 LINE",
"230 290 OFFCURVE",
"246 315 OFFCURVE",
"289 315 CURVE SMOOTH",
"303 315 LINE SMOOTH",
"347 315 OFFCURVE",
"383 279 OFFCURVE",
"383 235 CURVE SMOOTH",
"383 224 LINE SMOOTH",
"383 180 OFFCURVE",
"347 144 OFFCURVE",
"303 144 CURVE SMOOTH",
"286 144 LINE SMOOTH",
"242 144 OFFCURVE",
"206 180 OFFCURVE",
"206 224 CURVE",
"30 224 LINE",
"30 94 OFFCURVE",
"128 -10 OFFCURVE",
"290 -10 CURVE SMOOTH",
"320 -10 LINE SMOOTH",
"473 -10 OFFCURVE",
"580 94 OFFCURVE",
"580 225 CURVE SMOOTH",
"580 372 OFFCURVE",
"490 459 OFFCURVE",
"357 459 CURVE SMOOTH",
"293 459 OFFCURVE",
"250 432 OFFCURVE",
"230 414 CURVE",
"238 516 LINE",
"529 516 LINE",
"529 686 LINE"
);
}
);
};
layerId = UUID0;
paths = (
{
closed = 1;
nodes = (
"89 686 LINE",
"60 303 LINE",
"218 281 LINE",
"230 290 OFFCURVE",
"246 315 OFFCURVE",
"289 315 CURVE SMOOTH",
"303 315 LINE SMOOTH",
"347 315 OFFCURVE",
"383 279 OFFCURVE",
"383 235 CURVE SMOOTH",
"383 224 LINE SMOOTH",
"383 180 OFFCURVE",
"347 144 OFFCURVE",
"303 144 CURVE SMOOTH",
"286 144 LINE SMOOTH",
"242 144 OFFCURVE",
"206 180 OFFCURVE",
"206 224 CURVE",
"30 224 LINE",
"30 94 OFFCURVE",
"128 -10 OFFCURVE",
"290 -10 CURVE SMOOTH",
"320 -10 LINE SMOOTH",
"473 -10 OFFCURVE",
"580 94 OFFCURVE",
"580 225 CURVE SMOOTH",
"580 372 OFFCURVE",
"490 459 OFFCURVE",
"357 459 CURVE SMOOTH",
"293 459 OFFCURVE",
"250 432 OFFCURVE",
"230 414 CURVE",
"238 516 LINE",
"529 516 LINE",
"529 686 LINE"
);
}
);
width = 615;
}
);
unicode = 0035;
},
{
glyphname = six;
lastChange = "2014-09-05 18:35:52 +0000";
layers = (
{
background = {
paths = (
{
closed = 1;
nodes = (
"299 696 LINE SMOOTH",
"155 696 OFFCURVE",
"39 590 OFFCURVE",
"39 446 CURVE SMOOTH",
"39 240 LINE SMOOTH",
"39 96 OFFCURVE",
"155 -10 OFFCURVE",
"299 -10 CURVE SMOOTH",
"327 -10 LINE SMOOTH",
"471 -10 OFFCURVE",
"585 85 OFFCURVE",
"585 230 CURVE SMOOTH",
"585 367 OFFCURVE",
"485 437 OFFCURVE",
"361 437 CURVE SMOOTH",
"324 437 OFFCURVE",
"271 422 OFFCURVE",
"236 385 CURVE",
"236 471 LINE SMOOTH",
"236 512 OFFCURVE",
"272 546 OFFCURVE",
"313 546 CURVE SMOOTH",
"319 546 LINE SMOOTH",
"360 546 OFFCURVE",
"390 512 OFFCURVE",
"390 471 CURVE SMOOTH",
"390 466 LINE",
"568 466 LINE",
"568 618 OFFCURVE",
"456 696 OFFCURVE",
"327 696 CURVE SMOOTH"
);
},
{
closed = 1;
nodes = (
"358 321 OFFCURVE",
"392 287 OFFCURVE",
"392 246 CURVE SMOOTH",
"392 205 LINE SMOOTH",
"392 164 OFFCURVE",
"358 130 OFFCURVE",
"317 130 CURVE SMOOTH",
"311 130 LINE SMOOTH",
"270 130 OFFCURVE",
"236 164 OFFCURVE",
"236 205 CURVE SMOOTH",
"236 246 LINE SMOOTH",
"236 287 OFFCURVE",
"270 321 OFFCURVE",
"311 321 CURVE SMOOTH",
"317 321 LINE SMOOTH"
);
}
);
};
layerId = UUID0;
paths = (
{
closed = 1;
nodes = (
"299 696 LINE SMOOTH",
"155 696 OFFCURVE",
"39 590 OFFCURVE",
"39 446 CURVE SMOOTH",
"39 240 LINE SMOOTH",
"39 96 OFFCURVE",
"155 -10 OFFCURVE",
"299 -10 CURVE SMOOTH",
"327 -10 LINE SMOOTH",
"471 -10 OFFCURVE",
"585 85 OFFCURVE",
"585 230 CURVE SMOOTH",
"585 367 OFFCURVE",
"485 437 OFFCURVE",
"361 437 CURVE SMOOTH",
"324 437 OFFCURVE",
"271 422 OFFCURVE",
"236 385 CURVE",
"236 471 LINE SMOOTH",
"236 512 OFFCURVE",
"272 546 OFFCURVE",
"313 546 CURVE SMOOTH",
"319 546 LINE SMOOTH",
"360 546 OFFCURVE",
"390 512 OFFCURVE",
"390 471 CURVE SMOOTH",
"390 466 LINE",
"568 466 LINE",
"568 618 OFFCURVE",
"456 696 OFFCURVE",
"327 696 CURVE SMOOTH"
);
},
{
closed = 1;
nodes = (
"358 321 OFFCURVE",
"392 287 OFFCURVE",
"392 246 CURVE SMOOTH",
"392 205 LINE SMOOTH",
"392 164 OFFCURVE",
"358 130 OFFCURVE",
"317 130 CURVE SMOOTH",
"311 130 LINE SMOOTH",
"270 130 OFFCURVE",
"236 164 OFFCURVE",
"236 205 CURVE SMOOTH",
"236 246 LINE SMOOTH",
"236 287 OFFCURVE",
"270 321 OFFCURVE",
"311 321 CURVE SMOOTH",
"317 321 LINE SMOOTH"
);
}
);
width = 615;
}
);
unicode = 0036;
},
{
glyphname = seven;
lastChange = "2014-09-05 18:35:52 +0000";
layers = (
{
background = {
paths = (
{
closed = 1;
nodes = (
"61 686 LINE",
"61 514 LINE",
"353 514 LINE",
"240 367 OFFCURVE",
"129 191 OFFCURVE",
"129 0 CURVE",
"351 0 LINE",
"351 59 LINE SMOOTH",
"351 261 OFFCURVE",
"456 438 OFFCURVE",
"570 595 CURVE",
"570 686 LINE"
);
}
);
};
layerId = UUID0;
paths = (
{
closed = 1;
nodes = (
"61 686 LINE",
"61 514 LINE",
"353 514 LINE",
"240 367 OFFCURVE",
"129 191 OFFCURVE",
"129 0 CURVE",
"351 0 LINE",
"351 59 LINE SMOOTH",
"351 261 OFFCURVE",
"456 438 OFFCURVE",
"570 595 CURVE",
"570 686 LINE"
);
}
);
width = 615;
}
);
unicode = 0037;
},
{
glyphname = eight;
lastChange = "2014-09-05 18:35:52 +0000";
layers = (
{
background = {
paths = (
{
closed = 1;
nodes = (
"171 696 OFFCURVE",
"61 626 OFFCURVE",
"61 495 CURVE SMOOTH",
"61 417 OFFCURVE",
"95 385 OFFCURVE",
"139 351 CURVE",
"139 347 LINE",
"78 310 OFFCURVE",
"38 271 OFFCURVE",
"38 189 CURVE SMOOTH",
"38 59 OFFCURVE",
"150 -10 OFFCURVE",
"307 -10 CURVE SMOOTH",
"470 -10 OFFCURVE",
"577 59 OFFCURVE",
"577 189 CURVE SMOOTH",
"577 271 OFFCURVE",
"537 310 OFFCURVE",
"476 347 CURVE",
"476 351 LINE",
"519 386 OFFCURVE",
"554 416 OFFCURVE",
"554 495 CURVE SMOOTH",
"554 626 OFFCURVE",
"443 696 OFFCURVE",
"307 696 CURVE SMOOTH"
);
},
{
closed = 1;
nodes = (
"347 295 OFFCURVE",
"378 264 OFFCURVE",
"378 225 CURVE SMOOTH",
"378 192 LINE SMOOTH",
"378 153 OFFCURVE",
"347 122 OFFCURVE",
"308 122 CURVE SMOOTH",
"268 122 OFFCURVE",
"237 153 OFFCURVE",
"237 192 CURVE SMOOTH",
"237 225 LINE SMOOTH",
"237 264 OFFCURVE",
"268 295 OFFCURVE",
"307 295 CURVE SMOOTH"
);
},
{
closed = 1;
nodes = (
"347 566 OFFCURVE",
"378 535 OFFCURVE",
"378 496 CURVE SMOOTH",
"378 473 LINE SMOOTH",
"378 434 OFFCURVE",
"347 403 OFFCURVE",
"308 403 CURVE SMOOTH",
"268 403 OFFCURVE",
"237 434 OFFCURVE",
"237 473 CURVE SMOOTH",
"237 496 LINE SMOOTH",
"237 535 OFFCURVE",
"268 566 OFFCURVE",
"307 566 CURVE SMOOTH"
);
}
);
};
layerId = UUID0;
paths = (
{
closed = 1;
nodes = (
"171 696 OFFCURVE",
"61 626 OFFCURVE",
"61 495 CURVE SMOOTH",
"61 417 OFFCURVE",
"95 385 OFFCURVE",
"139 351 CURVE",
"139 347 LINE",
"78 310 OFFCURVE",
"38 271 OFFCURVE",
"38 189 CURVE SMOOTH",
"38 59 OFFCURVE",
"150 -10 OFFCURVE",
"307 -10 CURVE SMOOTH",
"470 -10 OFFCURVE",
"577 59 OFFCURVE",
"577 189 CURVE SMOOTH",
"577 271 OFFCURVE",
"537 310 OFFCURVE",
"476 347 CURVE",
"476 351 LINE",
"519 386 OFFCURVE",
"554 416 OFFCURVE",
"554 495 CURVE SMOOTH",
"554 626 OFFCURVE",
"443 696 OFFCURVE",
"307 696 CURVE SMOOTH"
);
},
{
closed = 1;
nodes = (
"347 295 OFFCURVE",
"378 264 OFFCURVE",
"378 225 CURVE SMOOTH",
"378 192 LINE SMOOTH",
"378 153 OFFCURVE",
"347 122 OFFCURVE",
"308 122 CURVE SMOOTH",
"268 122 OFFCURVE",
"237 153 OFFCURVE",
"237 192 CURVE SMOOTH",
"237 225 LINE SMOOTH",
"237 264 OFFCURVE",
"268 295 OFFCURVE",
"307 295 CURVE SMOOTH"
);
},
{
closed = 1;
nodes = (
"347 566 OFFCURVE",
"378 535 OFFCURVE",
"378 496 CURVE SMOOTH",
"378 473 LINE SMOOTH",
"378 434 OFFCURVE",
"347 403 OFFCURVE",
"308 403 CURVE SMOOTH",
"268 403 OFFCURVE",
"237 434 OFFCURVE",
"237 473 CURVE SMOOTH",
"237 496 LINE SMOOTH",
"237 535 OFFCURVE",
"268 566 OFFCURVE",
"307 566 CURVE SMOOTH"
);
}
);
width = 615;
}
);
unicode = 0038;
},
{
glyphname = nine;
lastChange = "2014-09-05 18:35:52 +0000";
layers = (
{
background = {
paths = (
{
closed = 1;
nodes = (
"288 696 LINE SMOOTH",
"144 696 OFFCURVE",
"30 599 OFFCURVE",
"30 456 CURVE SMOOTH",
"30 319 OFFCURVE",
"130 249 OFFCURVE",
"254 249 CURVE SMOOTH",
"291 249 OFFCURVE",
"344 264 OFFCURVE",
"379 301 CURVE",
"379 215 LINE SMOOTH",
"379 174 OFFCURVE",
"343 140 OFFCURVE",
"302 140 CURVE SMOOTH",
"296 140 LINE SMOOTH",
"255 140 OFFCURVE",
"225 174 OFFCURVE",
"225 215 CURVE SMOOTH",
"225 220 LINE",
"47 220 LINE",
"47 68 OFFCURVE",
"159 -10 OFFCURVE",
"288 -10 CURVE SMOOTH",
"316 -10 LINE SMOOTH",
"460 -10 OFFCURVE",
"576 96 OFFCURVE",
"576 240 CURVE SMOOTH",
"576 446 LINE SMOOTH",
"576 590 OFFCURVE",
"460 696 OFFCURVE",
"316 696 CURVE SMOOTH"
);
},
{
closed = 1;
nodes = (
"345 556 OFFCURVE",
"379 522 OFFCURVE",
"379 481 CURVE SMOOTH",
"379 440 LINE SMOOTH",
"379 399 OFFCURVE",
"345 365 OFFCURVE",
"304 365 CURVE SMOOTH",
"298 365 LINE SMOOTH",
"257 365 OFFCURVE",
"223 399 OFFCURVE",
"223 440 CURVE SMOOTH",
"223 481 LINE SMOOTH",
"223 522 OFFCURVE",
"257 556 OFFCURVE",
"298 556 CURVE SMOOTH",
"304 556 LINE SMOOTH"
);
}
);
};
layerId = UUID0;
paths = (
{
closed = 1;
nodes = (
"288 696 LINE SMOOTH",
"144 696 OFFCURVE",
"30 599 OFFCURVE",
"30 456 CURVE SMOOTH",
"30 319 OFFCURVE",
"130 249 OFFCURVE",
"254 249 CURVE SMOOTH",
"291 249 OFFCURVE",
"344 264 OFFCURVE",
"379 301 CURVE",
"379 215 LINE SMOOTH",
"379 174 OFFCURVE",
"343 140 OFFCURVE",
"302 140 CURVE SMOOTH",
"296 140 LINE SMOOTH",
"255 140 OFFCURVE",
"225 174 OFFCURVE",
"225 215 CURVE SMOOTH",
"225 220 LINE",
"47 220 LINE",
"47 68 OFFCURVE",
"159 -10 OFFCURVE",
"288 -10 CURVE SMOOTH",
"316 -10 LINE SMOOTH",
"460 -10 OFFCURVE",
"576 96 OFFCURVE",
"576 240 CURVE SMOOTH",
"576 446 LINE SMOOTH",
"576 590 OFFCURVE",
"460 696 OFFCURVE",
"316 696 CURVE SMOOTH"
);
},
{
closed = 1;
nodes = (
"345 556 OFFCURVE",
"379 522 OFFCURVE",
"379 481 CURVE SMOOTH",
"379 440 LINE SMOOTH",
"379 399 OFFCURVE",
"345 365 OFFCURVE",
"304 365 CURVE SMOOTH",
"298 365 LINE SMOOTH",
"257 365 OFFCURVE",
"223 399 OFFCURVE",
"223 440 CURVE SMOOTH",
"223 481 LINE SMOOTH",
"223 522 OFFCURVE",
"257 556 OFFCURVE",
"298 556 CURVE SMOOTH",
"304 556 LINE SMOOTH"
);
}
);
width = 615;
}
);
unicode = 0039;
},
{
glyphname = colon;
lastChange = "2014-09-05 18:35:52 +0000";
layers = (
{
background = {
paths = (
{
closed = 1;
nodes = (
"59 511 LINE",
"59 328 LINE",
"250 328 LINE",
"250 511 LINE"
);
},
{
closed = 1;
nodes = (
"59 183 LINE",
"59 0 LINE",
"250 0 LINE",
"250 183 LINE"
);
}
);
};
layerId = UUID0;
paths = (
{
closed = 1;
nodes = (
"59 511 LINE",
"59 328 LINE",
"250 328 LINE",
"250 511 LINE"
);
},
{
closed = 1;
nodes = (
"59 183 LINE",
"59 0 LINE",
"250 0 LINE",
"250 183 LINE"
);
}
);
width = 309;
}
);
leftKerningGroup = colon;
rightKerningGroup = colon;
unicode = 003A;
},
{
glyphname = semicolon;
lastChange = "2014-09-05 18:35:52 +0000";
layers = (
{
background = {
paths = (
{
closed = 1;
nodes = (
"59 183 LINE",
"59 0 LINE",
"143 0 LINE",
"106 -165 LINE",
"200 -165 LINE",
"250 22 LINE",
"250 183 LINE"
);
},
{
closed = 1;
nodes = (
"59 511 LINE",
"59 328 LINE",
"250 328 LINE",
"250 511 LINE"
);
}
);
};
layerId = UUID0;
paths = (
{
closed = 1;
nodes = (
"59 183 LINE",
"59 0 LINE",
"143 0 LINE",
"106 -165 LINE",
"200 -165 LINE",
"250 22 LINE",
"250 183 LINE"
);
},
{
closed = 1;
nodes = (
"59 511 LINE",
"59 328 LINE",
"250 328 LINE",
"250 511 LINE"
);
}
);
width = 308;
}
);
leftKerningGroup = colon;
rightKerningGroup = colon;
unicode = 003B;
},
{
glyphname = less;
lastChange = "2014-09-05 18:35:52 +0000";
layers = (
{
background = {
paths = (
{
closed = 1;
nodes = (
"44 324 LINE",
"44 185 LINE",
"553 -11 LINE",
"553 127 LINE",
"205 254 LINE",
"553 382 LINE",
"553 521 LINE"
);
}
);
};
layerId = UUID0;
paths = (
{
closed = 1;
nodes = (
"44 324 LINE",
"44 185 LINE",
"553 -11 LINE",
"553 127 LINE",
"205 254 LINE",
"553 382 LINE",
"553 521 LINE"
);
}
);
width = 615;
}
);
unicode = 003C;
},
{
glyphname = equal;
lastChange = "2014-09-05 18:35:52 +0000";
layers = (
{
background = {
paths = (
{
closed = 1;
nodes = (
"51 429 LINE",
"51 301 LINE",
"563 301 LINE",
"563 429 LINE"
);
},
{
closed = 1;
nodes = (
"51 209 LINE",
"51 81 LINE",
"563 81 LINE",
"563 209 LINE"
);
}
);
};
layerId = UUID0;
paths = (
{
closed = 1;
nodes = (
"51 429 LINE",
"51 301 LINE",
"563 301 LINE",
"563 429 LINE"
);
},
{
closed = 1;
nodes = (
"51 209 LINE",
"51 81 LINE",
"563 81 LINE",
"563 209 LINE"
);
}
);
width = 615;
}
);
unicode = 003D;
},
{
glyphname = greater;
lastChange = "2014-09-05 18:35:52 +0000";
layers = (
{
background = {
paths = (
{
closed = 1;
nodes = (
"61 382 LINE",
"409 254 LINE",
"61 127 LINE",
"61 -11 LINE",
"570 185 LINE",
"570 324 LINE",
"61 521 LINE"
);
}
);
};
layerId = UUID0;
paths = (
{
closed = 1;
nodes = (
"61 382 LINE",
"409 254 LINE",
"61 127 LINE",
"61 -11 LINE",
"570 185 LINE",
"570 324 LINE",
"61 521 LINE"
);
}
);
width = 615;
}
);
unicode = 003E;
},
{
glyphname = question;
lastChange = "2014-09-05 18:35:52 +0000";
layers = (
{
background = {
paths = (
{
closed = 1;
nodes = (
"275 696 LINE SMOOTH",
"156 696 OFFCURVE",
"24 616 OFFCURVE",
"24 485 CURVE SMOOTH",
"24 472 OFFCURVE",
"26 460 OFFCURVE",
"27 447 CURVE",
"211 447 LINE",
"210 452 OFFCURVE",
"210 456 OFFCURVE",
"210 460 CURVE SMOOTH",
"210 474 LINE SMOOTH",
"210 517 OFFCURVE",
"221 558 OFFCURVE",
"275 558 CURVE SMOOTH",
"314 558 OFFCURVE",
"341 525 OFFCURVE",
"341 488 CURVE SMOOTH",
"341 399 OFFCURVE",
"211 357 OFFCURVE",
"211 277 CURVE SMOOTH",
"211 218 LINE",
"382 218 LINE",
"382 240 LINE SMOOTH",
"382 259 OFFCURVE",
"401 273 OFFCURVE",
"426 292 CURVE SMOOTH",
"467 322 LINE SMOOTH",
"511 354 OFFCURVE",
"553 401 OFFCURVE",
"553 480 CURVE SMOOTH",
"553 610 OFFCURVE",
"437 696 OFFCURVE",
"313 696 CURVE SMOOTH"
);
},
{
closed = 1;
nodes = (
"206 183 LINE",
"206 0 LINE",
"397 0 LINE",
"397 183 LINE"
);
}
);
};
layerId = UUID0;
paths = (
{
closed = 1;
nodes = (
"275 696 LINE SMOOTH",
"156 696 OFFCURVE",
"24 616 OFFCURVE",
"24 485 CURVE SMOOTH",
"24 472 OFFCURVE",
"26 460 OFFCURVE",
"27 447 CURVE",
"211 447 LINE",
"210 452 OFFCURVE",
"210 456 OFFCURVE",
"210 460 CURVE SMOOTH",
"210 474 LINE SMOOTH",
"210 517 OFFCURVE",
"221 558 OFFCURVE",
"275 558 CURVE SMOOTH",
"314 558 OFFCURVE",
"341 525 OFFCURVE",
"341 488 CURVE SMOOTH",
"341 399 OFFCURVE",
"211 357 OFFCURVE",
"211 277 CURVE SMOOTH",
"211 218 LINE",
"382 218 LINE",
"382 240 LINE SMOOTH",
"382 259 OFFCURVE",
"401 273 OFFCURVE",
"426 292 CURVE SMOOTH",
"467 322 LINE SMOOTH",
"511 354 OFFCURVE",
"553 401 OFFCURVE",
"553 480 CURVE SMOOTH",
"553 610 OFFCURVE",
"437 696 OFFCURVE",
"313 696 CURVE SMOOTH"
);
},
{
closed = 1;
nodes = (
"206 183 LINE",
"206 0 LINE",
"397 0 LINE",
"397 183 LINE"
);
}
);
width = 581;
}
);
unicode = 003F;
},
{
glyphname = at;
lastChange = "2014-09-05 18:35:52 +0000";
layers = (
{
background = {
paths = (
{
closed = 1;
nodes = (
"234 697 OFFCURVE",
"34 579 OFFCURVE",
"34 262 CURVE SMOOTH",
"34 -27 OFFCURVE",
"187 -153 OFFCURVE",
"434 -153 CURVE SMOOTH",
"477 -153 OFFCURVE",
"557 -142 OFFCURVE",
"599 -126 CURVE",
"599 -60 LINE",
"563 -78 OFFCURVE",
"480 -92 OFFCURVE",
"434 -92 CURVE SMOOTH",
"210 -92 OFFCURVE",
"107 25 OFFCURVE",
"107 261 CURVE SMOOTH",
"107 514 OFFCURVE",
"246 636 OFFCURVE",
"468 636 CURVE SMOOTH",
"667 636 OFFCURVE",
"806 544 OFFCURVE",
"806 321 CURVE SMOOTH",
"806 152 OFFCURVE",
"754 136 OFFCURVE",
"734 136 CURVE SMOOTH",
"721 136 OFFCURVE",
"701 147 OFFCURVE",
"701 171 CURVE SMOOTH",
"701 369 LINE SMOOTH",
"701 455 OFFCURVE",
"628 521 OFFCURVE",
"477 521 CURVE SMOOTH",
"446 521 LINE SMOOTH",
"307 521 OFFCURVE",
"221 458 OFFCURVE",
"221 378 CURVE SMOOTH",
"221 372 OFFCURVE",
"221 367 OFFCURVE",
"222 364 CURVE",
"400 364 LINE",
"400 368 LINE SMOOTH",
"400 395 OFFCURVE",
"433 412 OFFCURVE",
"460 412 CURVE SMOOTH",
"495 412 OFFCURVE",
"521 393 OFFCURVE",
"521 356 CURVE SMOOTH",
"521 329 LINE",
"327 329 OFFCURVE",
"207 300 OFFCURVE",
"207 166 CURVE SMOOTH",
"207 39 OFFCURVE",
"299 23 OFFCURVE",
"376 23 CURVE SMOOTH",
"453 23 OFFCURVE",
"498 61 OFFCURVE",
"531 99 CURVE",
"550 59 OFFCURVE",
"581 22 OFFCURVE",
"660 22 CURVE SMOOTH",
"761 22 OFFCURVE",
"879 89 OFFCURVE",
"879 320 CURVE SMOOTH",
"879 588 OFFCURVE",
"704 697 OFFCURVE",
"469 697 CURVE SMOOTH"
);
},
{
closed = 1;
nodes = (
"521 202 LINE SMOOTH",
"521 163 OFFCURVE",
"492 136 OFFCURVE",
"457 136 CURVE SMOOTH",
"429 136 OFFCURVE",
"401 145 OFFCURVE",
"401 181 CURVE SMOOTH",
"401 217 OFFCURVE",
"436 243 OFFCURVE",
"521 243 CURVE"
);
}
);
};
layerId = UUID0;
paths = (
{
closed = 1;
nodes = (
"234 697 OFFCURVE",
"34 579 OFFCURVE",
"34 262 CURVE SMOOTH",
"34 -27 OFFCURVE",
"187 -153 OFFCURVE",
"434 -153 CURVE SMOOTH",
"477 -153 OFFCURVE",
"557 -142 OFFCURVE",
"599 -126 CURVE",
"599 -60 LINE",
"563 -78 OFFCURVE",
"480 -92 OFFCURVE",
"434 -92 CURVE SMOOTH",
"210 -92 OFFCURVE",
"107 25 OFFCURVE",
"107 261 CURVE SMOOTH",
"107 514 OFFCURVE",
"246 636 OFFCURVE",
"468 636 CURVE SMOOTH",
"667 636 OFFCURVE",
"806 544 OFFCURVE",
"806 321 CURVE SMOOTH",
"806 152 OFFCURVE",
"754 136 OFFCURVE",
"734 136 CURVE SMOOTH",
"721 136 OFFCURVE",
"701 147 OFFCURVE",
"701 171 CURVE SMOOTH",
"701 369 LINE SMOOTH",
"701 455 OFFCURVE",
"628 521 OFFCURVE",
"477 521 CURVE SMOOTH",
"446 521 LINE SMOOTH",
"307 521 OFFCURVE",
"221 458 OFFCURVE",
"221 378 CURVE SMOOTH",
"221 372 OFFCURVE",
"221 367 OFFCURVE",
"222 364 CURVE",
"400 364 LINE",
"400 368 LINE SMOOTH",
"400 395 OFFCURVE",
"433 412 OFFCURVE",
"460 412 CURVE SMOOTH",
"495 412 OFFCURVE",
"521 393 OFFCURVE",
"521 356 CURVE SMOOTH",
"521 329 LINE",
"327 329 OFFCURVE",
"207 300 OFFCURVE",
"207 166 CURVE SMOOTH",
"207 39 OFFCURVE",
"299 23 OFFCURVE",
"376 23 CURVE SMOOTH",
"453 23 OFFCURVE",
"498 61 OFFCURVE",
"531 99 CURVE",
"550 59 OFFCURVE",
"581 22 OFFCURVE",
"660 22 CURVE SMOOTH",
"761 22 OFFCURVE",
"879 89 OFFCURVE",
"879 320 CURVE SMOOTH",
"879 588 OFFCURVE",
"704 697 OFFCURVE",
"469 697 CURVE SMOOTH"
);
},
{
closed = 1;
nodes = (
"521 202 LINE SMOOTH",
"521 163 OFFCURVE",
"492 136 OFFCURVE",
"457 136 CURVE SMOOTH",
"429 136 OFFCURVE",
"401 145 OFFCURVE",
"401 181 CURVE SMOOTH",
"401 217 OFFCURVE",
"436 243 OFFCURVE",
"521 243 CURVE"
);
}
);
width = 906;
}
);
unicode = 0040;
},
{
glyphname = A;
lastChange = "2014-09-09 23:33:39 +0000";
layers = (
{
anchors = (
{
name = ogonek;
position = "{638, 10}";
},
{
name = top;
position = "{355, 686}";
}
);
background = {
anchors = (
{
name = ogonek;
position = "{638, 10}";
},
{
name = top;
position = "{355, 686}";
}
);
paths = (
{
closed = 1;
nodes = (
"224 686 LINE",
"-5 0 LINE",
"197 0 LINE",
"237 122 LINE",
"455 122 LINE",
"496 0 LINE",
"714 0 LINE",
"485 686 LINE"
);
},
{
closed = 1;
nodes = (
"407 267 LINE",
"285 267 LINE",
"344 475 LINE",
"349 475 LINE"
);
}
);
};
layerId = UUID0;
paths = (
{
closed = 1;
nodes = (
"485 686 LINE",
"224 686 LINE",
"-5 0 LINE",
"197 0 LINE",
"237 122 LINE",
"455 122 LINE",
"496 0 LINE",
"714 0 LINE"
);
},
{
closed = 1;
nodes = (
"349 475 LINE",
"407 267 LINE",
"285 267 LINE",
"344 475 LINE"
);
}
);
width = 709;
}
);
leftKerningGroup = A;
rightKerningGroup = A;
unicode = 0041;
},
{
glyphname = B;
lastChange = "2014-09-09 23:33:40 +0000";
layers = (
{
background = {
paths = (
{
closed = 1;
nodes = (
"57 686 LINE",
"57 0 LINE",
"439 0 LINE SMOOTH",
"544 0 OFFCURVE",
"629 82 OFFCURVE",
"629 183 CURVE SMOOTH",
"629 292 OFFCURVE",
"569 338 OFFCURVE",
"498 354 CURVE",
"498 358 LINE",
"559 377 OFFCURVE",
"613 417 OFFCURVE",
"613 518 CURVE SMOOTH",
"613 611 OFFCURVE",
"533 686 OFFCURVE",
"433 686 CURVE SMOOTH"
);
},
{
closed = 1;
nodes = (
"405 277 OFFCURVE",
"427 255 OFFCURVE",
"427 227 CURVE SMOOTH",
"427 209 LINE SMOOTH",
"427 181 OFFCURVE",
"405 159 OFFCURVE",
"377 159 CURVE SMOOTH",
"250 159 LINE",
"250 277 LINE",
"377 277 LINE SMOOTH"
);
},
{
closed = 1;
nodes = (
"393 540 OFFCURVE",
"415 518 OFFCURVE",
"415 490 CURVE SMOOTH",
"415 473 LINE SMOOTH",
"415 445 OFFCURVE",
"393 423 OFFCURVE",
"365 423 CURVE SMOOTH",
"250 423 LINE",
"250 540 LINE",
"365 540 LINE SMOOTH"
);
}
);
};
layerId = UUID0;
paths = (
{
closed = 1;
nodes = (
"57 686 LINE",
"57 0 LINE",
"439 0 LINE SMOOTH",
"544 0 OFFCURVE",
"629 82 OFFCURVE",
"629 183 CURVE SMOOTH",
"629 292 OFFCURVE",
"569 338 OFFCURVE",
"498 354 CURVE",
"498 358 LINE",
"559 377 OFFCURVE",
"613 417 OFFCURVE",
"613 518 CURVE SMOOTH",
"613 611 OFFCURVE",
"533 686 OFFCURVE",
"433 686 CURVE SMOOTH"
);
},
{
closed = 1;
nodes = (
"365 540 LINE SMOOTH",
"393 540 OFFCURVE",
"415 518 OFFCURVE",
"415 490 CURVE SMOOTH",
"415 473 LINE SMOOTH",
"415 445 OFFCURVE",
"393 423 OFFCURVE",
"365 423 CURVE SMOOTH",
"250 423 LINE",
"250 540 LINE"
);
},
{
closed = 1;
nodes = (
"377 277 LINE SMOOTH",
"405 277 OFFCURVE",
"427 255 OFFCURVE",
"427 227 CURVE SMOOTH",
"427 209 LINE SMOOTH",
"427 181 OFFCURVE",
"405 159 OFFCURVE",
"377 159 CURVE SMOOTH",
"250 159 LINE",
"250 277 LINE"
);
}
);
width = 656;
}
);
leftKerningGroup = B;
unicode = 0042;
},
{
glyphname = C;
lastChange = "2014-09-09 23:33:40 +0000";
layers = (
{
anchors = (
{
name = bottom;
position = "{342, 0}";
},
{
name = top;
position = "{342, 686}";
}
);
background = {
anchors = (
{
name = bottom;
position = "{342, 0}";
},
{
name = top;
position = "{342, 686}";
}
);
paths = (
{
closed = 1;
nodes = (
"341 696 LINE SMOOTH",
"175 696 OFFCURVE",
"31 576 OFFCURVE",
"31 396 CURVE SMOOTH",
"31 290 LINE SMOOTH",
"31 100 OFFCURVE",
"173 -10 OFFCURVE",
"349 -10 CURVE SMOOTH",
"377 -10 LINE SMOOTH",
"539 -10 OFFCURVE",
"659 100 OFFCURVE",
"659 280 CURVE",
"471 280 LINE",
"471 247 LINE SMOOTH",
"471 183 OFFCURVE",
"427 147 OFFCURVE",
"371 147 CURVE SMOOTH",
"357 147 LINE SMOOTH",
"301 147 OFFCURVE",
"257 191 OFFCURVE",
"257 247 CURVE SMOOTH",
"257 440 LINE SMOOTH",
"257 496 OFFCURVE",
"301 540 OFFCURVE",
"357 540 CURVE SMOOTH",
"362 540 LINE SMOOTH",
"418 540 OFFCURVE",
"462 503 OFFCURVE",
"462 440 CURVE SMOOTH",
"462 405 LINE",
"659 405 LINE",
"659 600 OFFCURVE",
"532 696 OFFCURVE",
"369 696 CURVE SMOOTH"
);
}
);
};
layerId = UUID0;
paths = (
{
closed = 1;
nodes = (
"341 696 LINE SMOOTH",
"175 696 OFFCURVE",
"31 576 OFFCURVE",
"31 396 CURVE SMOOTH",
"31 290 LINE SMOOTH",
"31 100 OFFCURVE",
"173 -10 OFFCURVE",
"349 -10 CURVE SMOOTH",
"377 -10 LINE SMOOTH",
"539 -10 OFFCURVE",
"659 100 OFFCURVE",
"659 280 CURVE",
"471 280 LINE",
"471 247 LINE SMOOTH",
"471 183 OFFCURVE",
"427 147 OFFCURVE",
"371 147 CURVE SMOOTH",
"357 147 LINE SMOOTH",
"301 147 OFFCURVE",
"257 191 OFFCURVE",
"257 247 CURVE SMOOTH",
"257 440 LINE SMOOTH",
"257 496 OFFCURVE",
"301 540 OFFCURVE",
"357 540 CURVE SMOOTH",
"362 540 LINE SMOOTH",
"418 540 OFFCURVE",
"462 503 OFFCURVE",
"462 440 CURVE SMOOTH",
"462 405 LINE",
"659 405 LINE",
"659 600 OFFCURVE",
"532 696 OFFCURVE",
"369 696 CURVE SMOOTH"
);
}
);
width = 683;
}
);
leftKerningGroup = C;
rightKerningGroup = C;
unicode = 0043;
},
{
glyphname = D;
lastChange = "2014-09-09 23:33:40 +0000";
layers = (
{
anchors = (
{
name = center;
position = "{348, 343}";
},
{
name = top;
position = "{348, 686}";
}
);
background = {
anchors = (
{
name = center;
position = "{348, 343}";
},
{
name = top;
position = "{348, 686}";
}
);
paths = (
{
closed = 1;
nodes = (
"57 686 LINE",
"57 0 LINE",
"366 0 LINE SMOOTH",
"532 0 OFFCURVE",
"666 134 OFFCURVE",
"666 300 CURVE SMOOTH",
"666 386 LINE SMOOTH",
"666 552 OFFCURVE",
"532 686 OFFCURVE",
"366 686 CURVE SMOOTH"
);
},
{
closed = 1;
nodes = (
"402 530 OFFCURVE",
"446 486 OFFCURVE",
"446 430 CURVE SMOOTH",
"446 259 LINE SMOOTH",
"446 203 OFFCURVE",
"402 159 OFFCURVE",
"346 159 CURVE SMOOTH",
"269 159 LINE",
"269 530 LINE",
"346 530 LINE SMOOTH"
);
}
);
};
layerId = UUID0;
paths = (
{
closed = 1;
nodes = (
"57 686 LINE",
"57 0 LINE",
"366 0 LINE SMOOTH",
"532 0 OFFCURVE",
"666 134 OFFCURVE",
"666 300 CURVE SMOOTH",
"666 386 LINE SMOOTH",
"666 552 OFFCURVE",
"532 686 OFFCURVE",
"366 686 CURVE SMOOTH"
);
},
{
closed = 1;
nodes = (
"346 530 LINE SMOOTH",
"402 530 OFFCURVE",
"446 486 OFFCURVE",
"446 430 CURVE SMOOTH",
"446 259 LINE SMOOTH",
"446 203 OFFCURVE",
"402 159 OFFCURVE",
"346 159 CURVE SMOOTH",
"269 159 LINE",
"269 530 LINE"
);
}
);
width = 696;
}
);
leftKerningGroup = B;
rightKerningGroup = D;
unicode = 0044;
},
{
glyphname = E;
lastChange = "2014-09-09 23:33:40 +0000";
layers = (
{
anchors = (
{
name = bottom;
position = "{300, 0}";
},
{
name = ogonek;
position = "{540, 10}";
},
{
name = top;
position = "{300, 686}";
}
);
background = {
anchors = (
{
name = bottom;
position = "{300, 0}";
},
{
name = ogonek;
position = "{540, 10}";
},
{
name = top;
position = "{300, 686}";
}
);
paths = (
{
closed = 1;
nodes = (
"57 686 LINE",
"57 0 LINE",
"572 0 LINE",
"552 164 LINE",
"263 164 LINE",
"263 275 LINE",
"541 275 LINE",
"541 428 LINE",
"263 428 LINE",
"263 528 LINE",
"552 528 LINE",
"572 686 LINE"
);
}
);
};
layerId = UUID0;
paths = (
{
closed = 1;
nodes = (
"572 686 LINE",
"57 686 LINE",
"57 0 LINE",
"572 0 LINE",
"552 164 LINE",
"263 164 LINE",
"263 275 LINE",
"541 275 LINE",
"541 428 LINE",
"263 428 LINE",
"263 528 LINE",
"552 528 LINE"
);
}
);
width = 600;
}
);
leftKerningGroup = B;
rightKerningGroup = E;
unicode = 0045;
},
{
glyphname = F;
lastChange = "2014-09-09 23:33:40 +0000";
layers = (
{
background = {
paths = (
{
closed = 1;
nodes = (
"57 686 LINE",
"57 0 LINE",
"262 0 LINE",
"262 257 LINE",
"514 257 LINE",
"514 411 LINE",
"262 411 LINE",
"262 523 LINE",
"533 523 LINE",
"553 686 LINE"
);
}
);
};
layerId = UUID0;
paths = (
{
closed = 1;
nodes = (
"553 686 LINE",
"57 686 LINE",
"57 0 LINE",
"262 0 LINE",
"262 257 LINE",
"514 257 LINE",
"514 411 LINE",
"262 411 LINE",
"262 523 LINE",
"533 523 LINE"
);
}
);
width = 562;
}
);
leftKerningGroup = B;
unicode = 0046;
},
{
glyphname = G;
lastChange = "2014-09-09 23:33:40 +0000";
layers = (
{
anchors = (
{
name = bottom;
position = "{350, 0}";
},
{
name = top;
position = "{350, 686}";
}
);
background = {
anchors = (
{
name = bottom;
position = "{350, 0}";
},
{
name = top;
position = "{350, 686}";
}
);
paths = (
{
closed = 1;
nodes = (
"350 696 LINE SMOOTH",
"162 696 OFFCURVE",
"31 562 OFFCURVE",
"31 396 CURVE SMOOTH",
"31 290 LINE SMOOTH",
"31 124 OFFCURVE",
"152 -10 OFFCURVE",
"317 -10 CURVE SMOOTH",
"327 -10 LINE SMOOTH",
"401 -10 OFFCURVE",
"481 25 OFFCURVE",
"523 73 CURVE",
"551 0 LINE",
"663 0 LINE",
"659 40 LINE SMOOTH",
"656 65 OFFCURVE",
"656 101 OFFCURVE",
"656 144 CURVE SMOOTH",
"656 384 LINE",
"346 384 LINE",
"346 248 LINE",
"462 248 LINE",
"462 185 OFFCURVE",
"431 147 OFFCURVE",
"375 147 CURVE SMOOTH",
"357 147 LINE SMOOTH",
"301 147 OFFCURVE",
"257 191 OFFCURVE",
"257 247 CURVE SMOOTH",
"257 440 LINE SMOOTH",
"257 496 OFFCURVE",
"301 540 OFFCURVE",
"357 540 CURVE SMOOTH",
"362 540 LINE SMOOTH",
"417 540 OFFCURVE",
"462 510 OFFCURVE",
"462 439 CURVE",
"656 439 LINE",
"656 446 LINE SMOOTH",
"656 593 OFFCURVE",
"527 696 OFFCURVE",
"378 696 CURVE SMOOTH"
);
}
);
};
layerId = UUID0;
paths = (
{
closed = 1;
nodes = (
"350 696 LINE SMOOTH",
"162 696 OFFCURVE",
"31 562 OFFCURVE",
"31 396 CURVE SMOOTH",
"31 290 LINE SMOOTH",
"31 124 OFFCURVE",
"152 -10 OFFCURVE",
"317 -10 CURVE SMOOTH",
"327 -10 LINE SMOOTH",
"401 -10 OFFCURVE",
"481 25 OFFCURVE",
"523 73 CURVE",
"551 0 LINE",
"663 0 LINE",
"659 40 LINE SMOOTH",
"656 65 OFFCURVE",
"656 101 OFFCURVE",
"656 144 CURVE SMOOTH",
"656 384 LINE",
"346 384 LINE",
"346 248 LINE",
"462 248 LINE",
"462 185 OFFCURVE",
"431 147 OFFCURVE",
"375 147 CURVE SMOOTH",
"357 147 LINE SMOOTH",
"301 147 OFFCURVE",
"257 191 OFFCURVE",
"257 247 CURVE SMOOTH",
"257 440 LINE SMOOTH",
"257 496 OFFCURVE",
"301 540 OFFCURVE",
"357 540 CURVE SMOOTH",
"362 540 LINE SMOOTH",
"417 540 OFFCURVE",
"462 510 OFFCURVE",
"462 439 CURVE",
"656 439 LINE",
"656 446 LINE SMOOTH",
"656 593 OFFCURVE",
"527 696 OFFCURVE",
"378 696 CURVE SMOOTH"
);
}
);
width = 699;
}
);
leftKerningGroup = C;
unicode = 0047;
},
{
glyphname = H;
lastChange = "2014-09-09 23:33:40 +0000";
layers = (
{
anchors = (
{
name = center;
position = "{349, 343}";
},
{
name = top;
position = "{349, 686}";
}
);
background = {
anchors = (
{
name = center;
position = "{349, 343}";
},
{
name = top;
position = "{349, 686}";
}
);
paths = (
{
closed = 1;
nodes = (
"429 686 LINE",
"429 433 LINE",
"267 433 LINE",
"267 686 LINE",
"57 686 LINE",
"57 0 LINE",
"268 0 LINE",
"268 267 LINE",
"430 267 LINE",
"430 0 LINE",
"640 0 LINE",
"640 686 LINE"
);
}
);
};
layerId = UUID0;
paths = (
{
closed = 1;
nodes = (
"640 686 LINE",
"429 686 LINE",
"429 433 LINE",
"267 433 LINE",
"267 686 LINE",
"57 686 LINE",
"57 0 LINE",
"268 0 LINE",
"268 267 LINE",
"430 267 LINE",
"430 0 LINE",
"640 0 LINE"
);
}
);
width = 697;
}
);
leftKerningGroup = B;
rightKerningGroup = H;
unicode = 0048;
},
{
glyphname = I;
lastChange = "2014-09-09 23:33:40 +0000";
layers = (
{
anchors = (
{
name = ogonek;
position = "{401, 10}";
},
{
name = top;
position = "{223, 686}";
}
);
background = {
anchors = (
{
name = ogonek;
position = "{401, 10}";
},
{
name = top;
position = "{223, 686}";
}
);
paths = (
{
closed = 1;
nodes = (
"36 686 LINE",
"36 539 LINE",
"117 539 LINE",
"117 148 LINE",
"36 148 LINE",
"36 0 LINE",
"410 0 LINE",
"410 148 LINE",
"329 148 LINE",
"329 539 LINE",
"410 539 LINE",
"410 686 LINE"
);
}
);
};
layerId = UUID0;
paths = (
{
closed = 1;
nodes = (
"410 686 LINE",
"36 686 LINE",
"36 539 LINE",
"117 539 LINE",
"117 148 LINE",
"36 148 LINE",
"36 0 LINE",
"410 0 LINE",
"410 148 LINE",
"329 148 LINE",
"329 539 LINE",
"410 539 LINE"
);
}
);
width = 446;
}
);
leftKerningGroup = I;
rightKerningGroup = I;
unicode = 0049;
},
{
glyphname = J;
lastChange = "2014-09-09 23:33:40 +0000";
layers = (
{
anchors = (
{
name = top;
position = "{323, 686}";
}
);
background = {
anchors = (
{
name = top;
position = "{273, 686}";
}
);
paths = (
{
closed = 1;
nodes = (
"287 686 LINE",
"287 186 LINE SMOOTH",
"287 158 OFFCURVE",
"268 140 OFFCURVE",
"245 140 CURVE SMOOTH",
"222 140 OFFCURVE",
"204 158 OFFCURVE",
"204 186 CURVE SMOOTH",
"204 248 LINE",
"11 248 LINE",
"11 180 LINE SMOOTH",
"11 57 OFFCURVE",
"96 -10 OFFCURVE",
"231 -10 CURVE SMOOTH",
"262 -10 LINE SMOOTH",
"396 -10 OFFCURVE",
"492 55 OFFCURVE",
"492 180 CURVE SMOOTH",
"492 686 LINE"
);
}
);
};
layerId = UUID0;
paths = (
{
closed = 1;
nodes = (
"492 686 LINE",
"287 686 LINE",
"287 186 LINE SMOOTH",
"287 158 OFFCURVE",
"268 140 OFFCURVE",
"245 140 CURVE SMOOTH",
"222 140 OFFCURVE",
"204 158 OFFCURVE",
"204 186 CURVE SMOOTH",
"204 248 LINE",
"11 248 LINE",
"11 180 LINE SMOOTH",
"11 57 OFFCURVE",
"96 -10 OFFCURVE",
"231 -10 CURVE SMOOTH",
"262 -10 LINE SMOOTH",
"396 -10 OFFCURVE",
"492 55 OFFCURVE",
"492 180 CURVE SMOOTH"
);
}
);
width = 545;
}
);
unicode = 004A;
},
{
glyphname = K;
lastChange = "2014-09-09 23:33:40 +0000";
layers = (
{
anchors = (
{
name = bottom;
position = "{343, 0}";
},
{
name = top;
position = "{343, 686}";
}
);
background = {
anchors = (
{
name = bottom;
position = "{343, 0}";
},
{
name = top;
position = "{343, 686}";
}
);
paths = (
{
closed = 1;
nodes = (
"457 686 LINE",
"261 415 LINE",
"261 686 LINE",
"57 686 LINE",
"57 0 LINE",
"261 0 LINE",
"261 152 LINE",
"341 248 LINE",
"460 0 LINE",
"695 0 LINE",
"480 411 LINE",
"689 686 LINE"
);
}
);
};
layerId = UUID0;
paths = (
{
closed = 1;
nodes = (
"689 686 LINE",
"457 686 LINE",
"261 415 LINE",
"261 686 LINE",
"57 686 LINE",
"57 0 LINE",
"261 0 LINE",
"261 152 LINE",
"341 248 LINE",
"460 0 LINE",
"695 0 LINE",
"480 411 LINE"
);
}
);
width = 685;
}
);
leftKerningGroup = B;
unicode = 004B;
},
{
glyphname = L;
lastChange = "2014-09-09 23:33:40 +0000";
layers = (
{
anchors = (
{
name = bottom;
position = "{272, 0}";
},
{
name = top;
position = "{272, 686}";
},
{
name = topright;
position = "{464, 686}";
}
);
background = {
anchors = (
{
name = bottom;
position = "{272, 0}";
},
{
name = top;
position = "{272, 686}";
},
{
name = topright;
position = "{524, 686}";
}
);
paths = (
{
closed = 1;
nodes = (
"57 686 LINE",
"57 0 LINE",
"538 0 LINE",
"518 168 LINE",
"269 168 LINE",
"269 686 LINE"
);
}
);
};
layerId = UUID0;
paths = (
{
closed = 1;
nodes = (
"269 686 LINE",
"57 686 LINE",
"57 0 LINE",
"538 0 LINE",
"518 168 LINE",
"269 168 LINE"
);
}
);
width = 544;
}
);
leftKerningGroup = B;
rightKerningGroup = L;
unicode = 004C;
},
{
glyphname = M;
lastChange = "2014-09-09 23:33:40 +0000";
layers = (
{
background = {
paths = (
{
closed = 1;
nodes = (
"601 686 LINE",
"504 320 LINE",
"500 320 LINE",
"401 686 LINE",
"57 686 LINE",
"57 0 LINE",
"248 0 LINE",
"248 440 LINE",
"253 440 LINE",
"372 0 LINE",
"613 0 LINE",
"733 440 LINE",
"737 440 LINE",
"737 0 LINE",
"947 0 LINE",
"947 686 LINE"
);
}
);
};
layerId = UUID0;
paths = (
{
closed = 1;
nodes = (
"947 686 LINE",
"601 686 LINE",
"504 320 LINE",
"500 320 LINE",
"401 686 LINE",
"57 686 LINE",
"57 0 LINE",
"248 0 LINE",
"248 440 LINE",
"253 440 LINE",
"372 0 LINE",
"613 0 LINE",
"733 440 LINE",
"737 440 LINE",
"737 0 LINE",
"947 0 LINE"
);
}
);
width = 1004;
}
);
leftKerningGroup = B;
rightKerningGroup = H;
unicode = 004D;
},
{
glyphname = N;
lastChange = "2014-09-09 23:33:40 +0000";
layers = (
{
anchors = (
{
name = bottom;
position = "{348, 0}";
},
{
name = top;
position = "{348, 686}";
}
);
background = {
anchors = (
{
name = bottom;
position = "{348, 0}";
},
{
name = top;
position = "{348, 686}";
}
);
paths = (
{
closed = 1;
nodes = (
"445 686 LINE",
"445 375 LINE",
"443 382 LINE",
"233 686 LINE",
"57 686 LINE",
"57 0 LINE",
"250 0 LINE",
"250 304 LINE",
"253 297 LINE",
"459 0 LINE",
"639 0 LINE",
"639 686 LINE"
);
}
);
};
layerId = UUID0;
paths = (
{
closed = 1;
nodes = (
"639 686 LINE",
"445 686 LINE",
"445 375 LINE",
"443 382 LINE",
"233 686 LINE",
"57 686 LINE",
"57 0 LINE",
"250 0 LINE",
"250 304 LINE",
"253 297 LINE",
"459 0 LINE",
"639 0 LINE"
);
}
);
width = 696;
}
);
leftKerningGroup = B;
rightKerningGroup = H;
unicode = 004E;
},
{
glyphname = O;
lastChange = "2014-09-09 23:33:40 +0000";
layers = (
{
anchors = (
{
name = top;
position = "{359, 686}";
}
);
background = {
anchors = (
{
name = top;
position = "{359, 686}";
}
);
paths = (
{
closed = 1;
nodes = (
"331 694 LINE SMOOTH",
"165 694 OFFCURVE",
"31 560 OFFCURVE",
"31 394 CURVE SMOOTH",
"31 290 LINE SMOOTH",
"31 124 OFFCURVE",
"165 -10 OFFCURVE",
"331 -10 CURVE SMOOTH",
"387 -10 LINE SMOOTH",
"553 -10 OFFCURVE",
"687 124 OFFCURVE",
"687 290 CURVE SMOOTH",
"687 394 LINE SMOOTH",
"687 560 OFFCURVE",
"553 694 OFFCURVE",
"387 694 CURVE SMOOTH"
);
},
{
closed = 1;
nodes = (
"418 540 OFFCURVE",
"462 496 OFFCURVE",
"462 440 CURVE SMOOTH",
"462 247 LINE SMOOTH",
"462 191 OFFCURVE",
"418 147 OFFCURVE",
"362 147 CURVE SMOOTH",
"357 147 LINE SMOOTH",
"301 147 OFFCURVE",
"257 191 OFFCURVE",
"257 247 CURVE SMOOTH",
"257 440 LINE SMOOTH",
"257 496 OFFCURVE",
"301 540 OFFCURVE",
"357 540 CURVE SMOOTH",
"362 540 LINE SMOOTH"
);
}
);
};
layerId = UUID0;
paths = (
{
closed = 1;
nodes = (
"331 694 LINE SMOOTH",
"165 694 OFFCURVE",
"31 560 OFFCURVE",
"31 394 CURVE SMOOTH",
"31 290 LINE SMOOTH",
"31 124 OFFCURVE",
"165 -10 OFFCURVE",
"331 -10 CURVE SMOOTH",
"387 -10 LINE SMOOTH",
"553 -10 OFFCURVE",
"687 124 OFFCURVE",
"687 290 CURVE SMOOTH",
"687 394 LINE SMOOTH",
"687 560 OFFCURVE",
"553 694 OFFCURVE",
"387 694 CURVE SMOOTH"
);
},
{
closed = 1;
nodes = (
"362 540 LINE SMOOTH",
"418 540 OFFCURVE",
"462 496 OFFCURVE",
"462 440 CURVE SMOOTH",
"462 247 LINE SMOOTH",
"462 191 OFFCURVE",
"418 147 OFFCURVE",
"362 147 CURVE SMOOTH",
"357 147 LINE SMOOTH",
"301 147 OFFCURVE",
"257 191 OFFCURVE",
"257 247 CURVE SMOOTH",
"257 440 LINE SMOOTH",
"257 496 OFFCURVE",
"301 540 OFFCURVE",
"357 540 CURVE SMOOTH"
);
}
);
width = 718;
}
);
leftKerningGroup = C;
rightKerningGroup = O;
unicode = 004F;
},
{
glyphname = P;
lastChange = "2014-09-09 23:33:42 +0000";
layers = (
{
background = {
paths = (
{
closed = 1;
nodes = (
"57 686 LINE",
"57 0 LINE",
"267 0 LINE",
"267 244 LINE",
"422 244 LINE SMOOTH",
"538 244 OFFCURVE",
"632 338 OFFCURVE",
"632 454 CURVE SMOOTH",
"632 476 LINE SMOOTH",
"632 592 OFFCURVE",
"538 686 OFFCURVE",
"422 686 CURVE SMOOTH"
);
},
{
closed = 1;
nodes = (
"400 529 OFFCURVE",
"419 497 OFFCURVE",
"419 469 CURVE SMOOTH",
"419 457 LINE SMOOTH",
"419 429 OFFCURVE",
"399 397 OFFCURVE",
"359 397 CURVE SMOOTH",
"267 397 LINE",
"267 529 LINE",
"359 529 LINE SMOOTH"
);
}
);
};
layerId = UUID0;
paths = (
{
closed = 1;
nodes = (
"57 686 LINE",
"57 0 LINE",
"267 0 LINE",
"267 244 LINE",
"422 244 LINE SMOOTH",
"538 244 OFFCURVE",
"632 338 OFFCURVE",
"632 454 CURVE SMOOTH",
"632 476 LINE SMOOTH",
"632 592 OFFCURVE",
"538 686 OFFCURVE",
"422 686 CURVE SMOOTH"
);
},
{
closed = 1;
nodes = (
"359 529 LINE SMOOTH",
"400 529 OFFCURVE",
"419 497 OFFCURVE",
"419 469 CURVE SMOOTH",
"419 457 LINE SMOOTH",
"419 429 OFFCURVE",
"399 397 OFFCURVE",
"359 397 CURVE SMOOTH",
"267 397 LINE",
"267 529 LINE"
);
}
);
width = 645;
}
);
leftKerningGroup = B;
unicode = 0050;
},
{
glyphname = Q;
lastChange = "2014-09-09 23:33:42 +0000";
layers = (
{
background = {
paths = (
{
closed = 1;
nodes = (
"331 694 LINE SMOOTH",
"165 694 OFFCURVE",
"31 560 OFFCURVE",
"31 394 CURVE SMOOTH",
"31 290 LINE SMOOTH",
"31 144 OFFCURVE",
"135 22 OFFCURVE",
"273 -4 CURVE",
"289 -72 OFFCURVE",
"355 -162 OFFCURVE",
"507 -162 CURVE SMOOTH",
"595 -162 OFFCURVE",
"652 -139 OFFCURVE",
"688 -120 CURVE",
"688 -15 LINE",
"675 -19 LINE SMOOTH",
"650 -27 OFFCURVE",
"597 -39 OFFCURVE",
"562 -39 CURVE SMOOTH",
"514 -39 OFFCURVE",
"495 -18 OFFCURVE",
"484 6 CURVE",
"602 46 OFFCURVE",
"687 158 OFFCURVE",
"687 290 CURVE SMOOTH",
"687 394 LINE SMOOTH",
"687 560 OFFCURVE",
"553 694 OFFCURVE",
"387 694 CURVE SMOOTH"
);
},
{
closed = 1;
nodes = (
"418 540 OFFCURVE",
"462 496 OFFCURVE",
"462 440 CURVE SMOOTH",
"462 247 LINE SMOOTH",
"462 191 OFFCURVE",
"418 147 OFFCURVE",
"362 147 CURVE SMOOTH",
"357 147 LINE SMOOTH",
"301 147 OFFCURVE",
"257 191 OFFCURVE",
"257 247 CURVE SMOOTH",
"257 440 LINE SMOOTH",
"257 496 OFFCURVE",
"301 540 OFFCURVE",
"357 540 CURVE SMOOTH",
"362 540 LINE SMOOTH"
);
}
);
};
layerId = UUID0;
paths = (
{
closed = 1;
nodes = (
"331 694 LINE SMOOTH",
"165 694 OFFCURVE",
"31 560 OFFCURVE",
"31 394 CURVE SMOOTH",
"31 290 LINE SMOOTH",
"31 144 OFFCURVE",
"135 22 OFFCURVE",
"273 -4 CURVE",
"289 -72 OFFCURVE",
"355 -162 OFFCURVE",
"507 -162 CURVE SMOOTH",
"595 -162 OFFCURVE",
"652 -139 OFFCURVE",
"688 -120 CURVE",
"688 -15 LINE",
"675 -19 LINE SMOOTH",
"650 -27 OFFCURVE",
"597 -39 OFFCURVE",
"562 -39 CURVE SMOOTH",
"514 -39 OFFCURVE",
"495 -18 OFFCURVE",
"484 6 CURVE",
"602 46 OFFCURVE",
"687 158 OFFCURVE",
"687 290 CURVE SMOOTH",
"687 394 LINE SMOOTH",
"687 560 OFFCURVE",
"553 694 OFFCURVE",
"387 694 CURVE SMOOTH"
);
},
{
closed = 1;
nodes = (
"362 540 LINE SMOOTH",
"418 540 OFFCURVE",
"462 496 OFFCURVE",
"462 440 CURVE SMOOTH",
"462 247 LINE SMOOTH",
"462 191 OFFCURVE",
"418 147 OFFCURVE",
"362 147 CURVE SMOOTH",
"357 147 LINE SMOOTH",
"301 147 OFFCURVE",
"257 191 OFFCURVE",
"257 247 CURVE SMOOTH",
"257 440 LINE SMOOTH",
"257 496 OFFCURVE",
"301 540 OFFCURVE",
"357 540 CURVE SMOOTH"
);
}
);
width = 718;
}
);
leftKerningGroup = C;
rightKerningGroup = O;
unicode = 0051;
},
{
glyphname = R;
lastChange = "2014-09-09 23:33:42 +0000";
layers = (
{
anchors = (
{
name = bottom;
position = "{341, 0}";
},
{
name = top;
position = "{341, 686}";
}
);
background = {
anchors = (
{
name = bottom;
position = "{341, 0}";
},
{
name = top;
position = "{341, 686}";
}
);
paths = (
{
closed = 1;
nodes = (
"57 686 LINE",
"57 0 LINE",
"262 0 LINE",
"262 266 LINE",
"320 266 LINE SMOOTH",
"405 266 OFFCURVE",
"409 183 OFFCURVE",
"409 119 CURVE SMOOTH",
"409 23 OFFCURVE",
"459 -10 OFFCURVE",
"550 -10 CURVE SMOOTH",
"589 -10 OFFCURVE",
"634 -6 OFFCURVE",
"670 9 CURVE",
"670 50 LINE",
"620 63 OFFCURVE",
"619 132 OFFCURVE",
"619 173 CURVE SMOOTH",
"619 256 OFFCURVE",
"586 326 OFFCURVE",
"509 349 CURVE",
"509 354 LINE",
"578 367 OFFCURVE",
"632 443 OFFCURVE",
"632 516 CURVE SMOOTH",
"632 619 OFFCURVE",
"539 686 OFFCURVE",
"442 686 CURVE SMOOTH"
);
},
{
closed = 1;
nodes = (
"396 529 OFFCURVE",
"418 507 OFFCURVE",
"418 479 CURVE SMOOTH",
"418 469 LINE SMOOTH",
"418 441 OFFCURVE",
"396 419 OFFCURVE",
"368 419 CURVE SMOOTH",
"262 419 LINE",
"262 529 LINE",
"368 529 LINE SMOOTH"
);
}
);
};
layerId = UUID0;
paths = (
{
closed = 1;
nodes = (
"57 686 LINE",
"57 0 LINE",
"262 0 LINE",
"262 266 LINE",
"320 266 LINE SMOOTH",
"405 266 OFFCURVE",
"409 183 OFFCURVE",
"409 119 CURVE SMOOTH",
"409 23 OFFCURVE",
"459 -10 OFFCURVE",
"550 -10 CURVE SMOOTH",
"589 -10 OFFCURVE",
"634 -6 OFFCURVE",
"670 9 CURVE",
"670 50 LINE",
"620 63 OFFCURVE",
"619 132 OFFCURVE",
"619 173 CURVE SMOOTH",
"619 256 OFFCURVE",
"586 326 OFFCURVE",
"509 349 CURVE",
"509 354 LINE",
"578 367 OFFCURVE",
"632 443 OFFCURVE",
"632 516 CURVE SMOOTH",
"632 619 OFFCURVE",
"539 686 OFFCURVE",
"442 686 CURVE SMOOTH"
);
},
{
closed = 1;
nodes = (
"368 529 LINE SMOOTH",
"396 529 OFFCURVE",
"418 507 OFFCURVE",
"418 479 CURVE SMOOTH",
"418 469 LINE SMOOTH",
"418 441 OFFCURVE",
"396 419 OFFCURVE",
"368 419 CURVE SMOOTH",
"262 419 LINE",
"262 529 LINE"
);
}
);
width = 682;
}
);
leftKerningGroup = B;
unicode = 0052;
},
{
glyphname = S;
lastChange = "2014-09-09 23:33:42 +0000";
layers = (
{
anchors = (
{
name = bottom;
position = "{326, 0}";
},
{
name = top;
position = "{326, 686}";
}
);
background = {
anchors = (
{
name = bottom;
position = "{326, 0}";
},
{
name = top;
position = "{326, 686}";
}
);
paths = (
{
closed = 1;
nodes = (
"171 696 OFFCURVE",
"40 623 OFFCURVE",
"40 478 CURVE SMOOTH",
"40 209 OFFCURVE",
"407 291 OFFCURVE",
"407 194 CURVE SMOOTH",
"407 172 OFFCURVE",
"393 151 OFFCURVE",
"312 151 CURVE SMOOTH",
"240 151 OFFCURVE",
"219 186 OFFCURVE",
"219 222 CURVE SMOOTH",
"219 227 OFFCURVE",
"219 231 OFFCURVE",
"220 234 CURVE",
"26 234 LINE",
"25 230 OFFCURVE",
"25 226 OFFCURVE",
"25 222 CURVE SMOOTH",
"25 210 LINE SMOOTH",
"25 58 OFFCURVE",
"166 -10 OFFCURVE",
"318 -10 CURVE SMOOTH",
"500 -10 OFFCURVE",
"623 59 OFFCURVE",
"623 229 CURVE SMOOTH",
"623 352 OFFCURVE",
"530 401 OFFCURVE",
"437 422 CURVE SMOOTH",
"348 442 LINE SMOOTH",
"293 454 OFFCURVE",
"252 469 OFFCURVE",
"252 502 CURVE SMOOTH",
"252 527 OFFCURVE",
"278 544 OFFCURVE",
"335 544 CURVE SMOOTH",
"395 544 OFFCURVE",
"418 513 OFFCURVE",
"418 478 CURVE SMOOTH",
"418 474 LINE",
"610 474 LINE",
"610 486 LINE SMOOTH",
"610 631 OFFCURVE",
"484 696 OFFCURVE",
"331 696 CURVE SMOOTH"
);
}
);
};
layerId = UUID0;
paths = (
{
closed = 1;
nodes = (
"171 696 OFFCURVE",
"40 623 OFFCURVE",
"40 478 CURVE SMOOTH",
"40 209 OFFCURVE",
"407 291 OFFCURVE",
"407 194 CURVE SMOOTH",
"407 172 OFFCURVE",
"393 151 OFFCURVE",
"312 151 CURVE SMOOTH",
"240 151 OFFCURVE",
"219 186 OFFCURVE",
"219 222 CURVE SMOOTH",
"219 227 OFFCURVE",
"219 231 OFFCURVE",
"220 234 CURVE",
"26 234 LINE",
"25 230 OFFCURVE",
"25 226 OFFCURVE",
"25 222 CURVE SMOOTH",
"25 210 LINE SMOOTH",
"25 58 OFFCURVE",
"166 -10 OFFCURVE",
"318 -10 CURVE SMOOTH",
"500 -10 OFFCURVE",
"623 59 OFFCURVE",
"623 229 CURVE SMOOTH",
"623 352 OFFCURVE",
"530 401 OFFCURVE",
"437 422 CURVE SMOOTH",
"348 442 LINE SMOOTH",
"293 454 OFFCURVE",
"252 469 OFFCURVE",
"252 502 CURVE SMOOTH",
"252 527 OFFCURVE",
"278 544 OFFCURVE",
"335 544 CURVE SMOOTH",
"395 544 OFFCURVE",
"418 513 OFFCURVE",
"418 478 CURVE SMOOTH",
"418 474 LINE",
"610 474 LINE",
"610 486 LINE SMOOTH",
"610 631 OFFCURVE",
"484 696 OFFCURVE",
"331 696 CURVE SMOOTH"
);
}
);
width = 651;
}
);
leftKerningGroup = S;
rightKerningGroup = S;
unicode = 0053;
},
{
glyphname = T;
lastChange = "2014-09-09 23:33:42 +0000";
layers = (
{
anchors = (
{
name = bottom;
position = "{293, 0}";
},
{
name = center;
position = "{293, 343}";
},
{
name = top;
position = "{293, 686}";
}
);
background = {
anchors = (
{
name = bottom;
position = "{293, 0}";
},
{
name = center;
position = "{293, 343}";
},
{
name = top;
position = "{293, 686}";
}
);
paths = (
{
closed = 1;
nodes = (
"15 686 LINE",
"15 521 LINE",
"189 521 LINE",
"189 0 LINE",
"397 0 LINE",
"397 521 LINE",
"571 521 LINE",
"571 686 LINE"
);
}
);
};
layerId = UUID0;
paths = (
{
closed = 1;
nodes = (
"571 686 LINE",
"15 686 LINE",
"15 521 LINE",
"189 521 LINE",
"189 0 LINE",
"397 0 LINE",
"397 521 LINE",
"571 521 LINE"
);
}
);
width = 586;
}
);
unicode = 0054;
},
{
glyphname = U;
lastChange = "2014-09-09 23:33:42 +0000";
layers = (
{
anchors = (
{
name = ogonek;
position = "{448, 10}";
},
{
name = top;
position = "{344, 686}";
}
);
background = {
anchors = (
{
name = ogonek;
position = "{618, 10}";
},
{
name = top;
position = "{344, 686}";
}
);
paths = (
{
closed = 1;
nodes = (
"425 686 LINE",
"425 221 LINE SMOOTH",
"425 177 OFFCURVE",
"389 146 OFFCURVE",
"344 146 CURVE SMOOTH",
"299 146 OFFCURVE",
"263 177 OFFCURVE",
"263 221 CURVE SMOOTH",
"263 686 LINE",
"52 686 LINE",
"52 218 LINE SMOOTH",
"52 79 OFFCURVE",
"159 -10 OFFCURVE",
"322 -10 CURVE SMOOTH",
"365 -10 LINE SMOOTH",
"528 -10 OFFCURVE",
"635 79 OFFCURVE",
"635 218 CURVE SMOOTH",
"635 686 LINE"
);
}
);
};
layerId = UUID0;
paths = (
{
closed = 1;
nodes = (
"635 686 LINE",
"425 686 LINE",
"425 221 LINE SMOOTH",
"425 177 OFFCURVE",
"389 146 OFFCURVE",
"344 146 CURVE SMOOTH",
"299 146 OFFCURVE",
"263 177 OFFCURVE",
"263 221 CURVE SMOOTH",
"263 686 LINE",
"52 686 LINE",
"52 218 LINE SMOOTH",
"52 79 OFFCURVE",
"159 -10 OFFCURVE",
"322 -10 CURVE SMOOTH",
"365 -10 LINE SMOOTH",
"528 -10 OFFCURVE",
"635 79 OFFCURVE",
"635 218 CURVE SMOOTH"
);
}
);
width = 687;
}
);
leftKerningGroup = U;
rightKerningGroup = U;
unicode = 0055;
},
{
glyphname = V;
lastChange = "2014-09-09 23:33:42 +0000";
layers = (
{
background = {
paths = (
{
closed = 1;
nodes = (
"458 686 LINE",
"339 260 LINE",
"335 260 LINE",
"215 686 LINE",
"-3 686 LINE",
"202 0 LINE",
"452 0 LINE",
"660 686 LINE"
);
}
);
};
layerId = UUID0;
paths = (
{
closed = 1;
nodes = (
"660 686 LINE",
"458 686 LINE",
"339 260 LINE",
"335 260 LINE",
"215 686 LINE",
"-3 686 LINE",
"202 0 LINE",
"452 0 LINE"
);
}
);
width = 656;
}
);
unicode = 0056;
},
{
glyphname = W;
lastChange = "2014-09-09 23:33:42 +0000";
layers = (
{
anchors = (
{
name = top;
position = "{511, 686}";
}
);
background = {
anchors = (
{
name = top;
position = "{511, 686}";
}
);
paths = (
{
closed = 1;
nodes = (
"826 686 LINE",
"729 305 LINE",
"725 305 LINE",
"629 686 LINE",
"414 686 LINE",
"316 305 LINE",
"312 305 LINE",
"215 686 LINE",
"-2 686 LINE",
"185 0 LINE",
"427 0 LINE",
"510 329 LINE",
"516 329 LINE",
"599 0 LINE",
"837 0 LINE",
"1023 686 LINE"
);
}
);
};
layerId = UUID0;
paths = (
{
closed = 1;
nodes = (
"1023 686 LINE",
"826 686 LINE",
"729 305 LINE",
"725 305 LINE",
"629 686 LINE",
"414 686 LINE",
"316 305 LINE",
"312 305 LINE",
"215 686 LINE",
"-2 686 LINE",
"185 0 LINE",
"427 0 LINE",
"510 329 LINE",
"516 329 LINE",
"599 0 LINE",
"837 0 LINE"
);
}
);
width = 1021;
}
);
unicode = 0057;
},
{
glyphname = X;
lastChange = "2014-09-09 23:33:42 +0000";
layers = (
{
background = {
paths = (
{
closed = 1;
nodes = (
"444 686 LINE",
"349 511 LINE",
"345 511 LINE",
"250 686 LINE",
"7 686 LINE",
"200 363 LINE",
"-15 0 LINE",
"211 0 LINE",
"326 213 LINE",
"330 213 LINE",
"446 0 LINE",
"690 0 LINE",
"475 362 LINE",
"669 686 LINE"
);
}
);
};
layerId = UUID0;
paths = (
{
closed = 1;
nodes = (
"669 686 LINE",
"444 686 LINE",
"349 511 LINE",
"345 511 LINE",
"250 686 LINE",
"7 686 LINE",
"200 363 LINE",
"-15 0 LINE",
"211 0 LINE",
"326 213 LINE",
"330 213 LINE",
"446 0 LINE",
"690 0 LINE",
"475 362 LINE"
);
}
);
width = 675;
}
);
unicode = 0058;
},
{
glyphname = Y;
lastChange = "2014-09-09 23:33:42 +0000";
layers = (
{
anchors = (
{
name = top;
position = "{323, 686}";
}
);
background = {
anchors = (
{
name = top;
position = "{323, 686}";
}
);
paths = (
{
closed = 1;
nodes = (
"440 686 LINE",
"335 461 LINE",
"330 461 LINE",
"227 686 LINE",
"-9 686 LINE",
"219 262 LINE",
"219 0 LINE",
"428 0 LINE",
"428 262 LINE",
"655 686 LINE"
);
}
);
};
layerId = UUID0;
paths = (
{
closed = 1;
nodes = (
"655 686 LINE",
"440 686 LINE",
"335 461 LINE",
"330 461 LINE",
"227 686 LINE",
"-9 686 LINE",
"219 262 LINE",
"219 0 LINE",
"428 0 LINE",
"428 262 LINE"
);
}
);
width = 646;
}
);
leftKerningGroup = Y;
rightKerningGroup = Y;
unicode = 0059;
},
{
glyphname = Z;
lastChange = "2014-09-09 23:33:42 +0000";
layers = (
{
anchors = (
{
name = top;
position = "{304, 686}";
}
);
background = {
anchors = (
{
name = top;
position = "{304, 686}";
}
);
paths = (
{
closed = 1;
nodes = (
"38 686 LINE",
"38 526 LINE",
"282 526 LINE",
"14 61 LINE",
"14 0 LINE",
"585 0 LINE",
"585 161 LINE",
"314 161 LINE",
"577 625 LINE",
"577 686 LINE"
);
}
);
};
layerId = UUID0;
paths = (
{
closed = 1;
nodes = (
"577 686 LINE",
"38 686 LINE",
"38 526 LINE",
"282 526 LINE",
"14 61 LINE",
"14 0 LINE",
"585 0 LINE",
"585 161 LINE",
"314 161 LINE",
"577 625 LINE"
);
}
);
width = 608;
}
);
leftKerningGroup = Z;
rightKerningGroup = Z;
unicode = 005A;
},
{
glyphname = bracketleft;
lastChange = "2014-09-05 18:35:52 +0000";
layers = (
{
background = {
paths = (
{
closed = 1;
nodes = (
"57 686 LINE",
"57 -161 LINE",
"294 -161 LINE",
"294 -78 LINE",
"206 -78 LINE",
"206 603 LINE",
"294 603 LINE",
"294 686 LINE"
);
}
);
};
layerId = UUID0;
paths = (
{
closed = 1;
nodes = (
"57 686 LINE",
"57 -161 LINE",
"294 -161 LINE",
"294 -78 LINE",
"206 -78 LINE",
"206 603 LINE",
"294 603 LINE",
"294 686 LINE"
);
}
);
width = 318;
}
);
unicode = 005B;
},
{
glyphname = backslash;
lastChange = "2014-09-05 18:35:52 +0000";
layers = (
{
background = {
paths = (
{
closed = 1;
nodes = (
"15 686 LINE",
"504 -171 LINE",
"636 -171 LINE",
"146 686 LINE"
);
}
);
};
layerId = UUID0;
paths = (
{
closed = 1;
nodes = (
"15 686 LINE",
"504 -171 LINE",
"636 -171 LINE",
"146 686 LINE"
);
}
);
width = 652;
}
);
unicode = 005C;
},
{
glyphname = bracketright;
lastChange = "2014-09-05 18:35:52 +0000";
layers = (
{
background = {
paths = (
{
closed = 1;
nodes = (
"24 686 LINE",
"24 603 LINE",
"112 603 LINE",
"112 -78 LINE",
"24 -78 LINE",
"24 -161 LINE",
"261 -161 LINE",
"261 686 LINE"
);
}
);
};
layerId = UUID0;
paths = (
{
closed = 1;
nodes = (
"24 686 LINE",
"24 603 LINE",
"112 603 LINE",
"112 -78 LINE",
"24 -78 LINE",
"24 -161 LINE",
"261 -161 LINE",
"261 686 LINE"
);
}
);
width = 318;
}
);
unicode = 005D;
},
{
glyphname = asciicircum;
lastChange = "2014-09-05 18:35:52 +0000";
layers = (
{
background = {
paths = (
{
closed = 1;
nodes = (
"230 511 LINE",
"33 0 LINE",
"173 0 LINE",
"301 350 LINE",
"428 0 LINE",
"566 0 LINE",
"369 511 LINE"
);
}
);
};
layerId = UUID0;
paths = (
{
closed = 1;
nodes = (
"230 511 LINE",
"33 0 LINE",
"173 0 LINE",
"301 350 LINE",
"428 0 LINE",
"566 0 LINE",
"369 511 LINE"
);
}
);
width = 600;
}
);
unicode = 005E;
},
{
glyphname = underscore;
lastChange = "2014-09-05 18:35:52 +0000";
layers = (
{
background = {
paths = (
{
closed = 1;
nodes = (
"84 -65 LINE",
"84 -127 LINE",
"584 -127 LINE",
"584 -65 LINE"
);
}
);
};
layerId = UUID0;
paths = (
{
closed = 1;
nodes = (
"84 -65 LINE",
"84 -127 LINE",
"584 -127 LINE",
"584 -65 LINE"
);
}
);
width = 668;
}
);
unicode = 005F;
},
{
glyphname = grave;
lastChange = "2014-09-05 18:54:32 +0000";
layers = (
{
anchors = (
{
name = _top;
position = "{204, 511}";
}
);
background = {
anchors = (
{
name = _top;
position = "{164, 511}";
}
);
paths = (
{
closed = 1;
nodes = (
"44 720 LINE",
"42 717 LINE",
"168 575 LINE",
"286 575 LINE",
"195 720 LINE"
);
}
);
};
layerId = UUID0;
paths = (
{
closed = 1;
nodes = (
"44 720 LINE",
"42 717 LINE",
"168 575 LINE",
"286 575 LINE",
"195 720 LINE"
);
}
);
width = 333;
}
);
unicode = 0060;
},
{
glyphname = a;
lastChange = "2014-09-09 23:33:42 +0000";
layers = (
{
anchors = (
{
name = ogonek;
position = "{562, 10}";
},
{
name = top;
position = "{312, 511}";
}
);
background = {
anchors = (
{
name = ogonek;
position = "{562, 10}";
},
{
name = top;
position = "{312, 511}";
}
);
paths = (
{
closed = 1;
nodes = (
"279 521 LINE SMOOTH",
"131 521 OFFCURVE",
"39 453 OFFCURVE",
"39 368 CURVE SMOOTH",
"39 362 OFFCURVE",
"39 357 OFFCURVE",
"40 354 CURVE",
"230 354 LINE",
"230 358 LINE SMOOTH",
"230 386 OFFCURVE",
"265 405 OFFCURVE",
"294 405 CURVE SMOOTH",
"330 405 OFFCURVE",
"359 384 OFFCURVE",
"359 345 CURVE SMOOTH",
"359 316 LINE",
"151 316 OFFCURVE",
"24 285 OFFCURVE",
"24 143 CURVE SMOOTH",
"24 7 OFFCURVE",
"121 -10 OFFCURVE",
"204 -10 CURVE SMOOTH",
"286 -10 OFFCURVE",
"334 31 OFFCURVE",
"369 71 CURVE",
"380 23 OFFCURVE",
"427 -10 OFFCURVE",
"516 -10 CURVE SMOOTH",
"568 -10 OFFCURVE",
"599 0 OFFCURVE",
"617 13 CURVE",
"617 120 LINE",
"606 114 OFFCURVE",
"594 111 OFFCURVE",
"582 111 CURVE SMOOTH",
"567 111 OFFCURVE",
"551 121 OFFCURVE",
"551 148 CURVE SMOOTH",
"551 359 LINE SMOOTH",
"551 451 OFFCURVE",
"473 521 OFFCURVE",
"312 521 CURVE SMOOTH"
);
},
{
closed = 1;
nodes = (
"359 181 LINE SMOOTH",
"359 138 OFFCURVE",
"327 111 OFFCURVE",
"291 111 CURVE SMOOTH",
"260 111 OFFCURVE",
"231 120 OFFCURVE",
"231 159 CURVE SMOOTH",
"231 198 OFFCURVE",
"267 225 OFFCURVE",
"359 225 CURVE"
);
}
);
};
layerId = UUID0;
paths = (
{
closed = 1;
nodes = (
"279 521 LINE SMOOTH",
"131 521 OFFCURVE",
"39 453 OFFCURVE",
"39 368 CURVE SMOOTH",
"39 362 OFFCURVE",
"39 357 OFFCURVE",
"40 354 CURVE",
"230 354 LINE",
"230 358 LINE SMOOTH",
"230 386 OFFCURVE",
"265 405 OFFCURVE",
"294 405 CURVE SMOOTH",
"330 405 OFFCURVE",
"359 384 OFFCURVE",
"359 345 CURVE SMOOTH",
"359 316 LINE",
"151 316 OFFCURVE",
"24 285 OFFCURVE",
"24 143 CURVE SMOOTH",
"24 7 OFFCURVE",
"121 -10 OFFCURVE",
"204 -10 CURVE SMOOTH",
"286 -10 OFFCURVE",
"334 31 OFFCURVE",
"369 71 CURVE",
"380 23 OFFCURVE",
"427 -10 OFFCURVE",
"516 -10 CURVE SMOOTH",
"568 -10 OFFCURVE",
"599 0 OFFCURVE",
"617 13 CURVE",
"617 120 LINE",
"606 114 OFFCURVE",
"594 111 OFFCURVE",
"582 111 CURVE SMOOTH",
"567 111 OFFCURVE",
"551 121 OFFCURVE",
"551 148 CURVE SMOOTH",
"551 359 LINE SMOOTH",
"551 451 OFFCURVE",
"473 521 OFFCURVE",
"312 521 CURVE SMOOTH"
);
},
{
closed = 1;
nodes = (
"359 181 LINE SMOOTH",
"359 138 OFFCURVE",
"327 111 OFFCURVE",
"291 111 CURVE SMOOTH",
"260 111 OFFCURVE",
"231 120 OFFCURVE",
"231 159 CURVE SMOOTH",
"231 198 OFFCURVE",
"267 225 OFFCURVE",
"359 225 CURVE"
);
}
);
width = 624;
}
);
leftKerningGroup = a;
rightKerningGroup = a;
unicode = 0061;
},
{
glyphname = b;
lastChange = "2014-09-09 23:33:42 +0000";
layers = (
{
background = {
paths = (
{
closed = 1;
nodes = (
"50 720 LINE",
"50 0 LINE",
"120 0 LINE",
"188 75 LINE",
"227 20 OFFCURVE",
"284 -10 OFFCURVE",
"356 -10 CURVE SMOOTH",
"476 -10 OFFCURVE",
"573 75 OFFCURVE",
"573 250 CURVE SMOOTH",
"573 261 LINE SMOOTH",
"573 436 OFFCURVE",
"487 521 OFFCURVE",
"380 521 CURVE SMOOTH",
"312 521 OFFCURVE",
"267 482 OFFCURVE",
"248 458 CURVE",
"248 720 LINE"
);
},
{
closed = 1;
nodes = (
"345 396 OFFCURVE",
"372 365 OFFCURVE",
"372 326 CURVE SMOOTH",
"372 181 LINE SMOOTH",
"372 142 OFFCURVE",
"345 111 OFFCURVE",
"310 111 CURVE SMOOTH",
"275 111 OFFCURVE",
"248 142 OFFCURVE",
"248 181 CURVE SMOOTH",
"248 326 LINE SMOOTH",
"248 365 OFFCURVE",
"275 396 OFFCURVE",
"310 396 CURVE SMOOTH"
);
}
);
};
layerId = UUID0;
paths = (
{
closed = 1;
nodes = (
"248 720 LINE",
"50 720 LINE",
"50 0 LINE",
"120 0 LINE",
"188 75 LINE",
"227 20 OFFCURVE",
"284 -10 OFFCURVE",
"356 -10 CURVE SMOOTH",
"476 -10 OFFCURVE",
"573 75 OFFCURVE",
"573 250 CURVE SMOOTH",
"573 261 LINE SMOOTH",
"573 436 OFFCURVE",
"487 521 OFFCURVE",
"380 521 CURVE SMOOTH",
"312 521 OFFCURVE",
"267 482 OFFCURVE",
"248 458 CURVE"
);
},
{
closed = 1;
nodes = (
"345 396 OFFCURVE",
"372 365 OFFCURVE",
"372 326 CURVE SMOOTH",
"372 181 LINE SMOOTH",
"372 142 OFFCURVE",
"345 111 OFFCURVE",
"310 111 CURVE SMOOTH",
"275 111 OFFCURVE",
"248 142 OFFCURVE",
"248 181 CURVE SMOOTH",
"248 326 LINE SMOOTH",
"248 365 OFFCURVE",
"275 396 OFFCURVE",
"310 396 CURVE SMOOTH"
);
}
);
width = 601;
}
);
rightKerningGroup = b;
unicode = 0062;
},
{
glyphname = c;
lastChange = "2014-09-09 23:33:42 +0000";
layers = (
{
anchors = (
{
name = bottom;
position = "{285, 0}";
},
{
name = top;
position = "{285, 511}";
}
);
background = {
anchors = (
{
name = bottom;
position = "{285, 0}";
},
{
name = top;
position = "{285, 511}";
}
);
paths = (
{
closed = 1;
nodes = (
"276 521 LINE SMOOTH",
"141 521 OFFCURVE",
"26 411 OFFCURVE",
"26 276 CURVE SMOOTH",
"26 235 LINE SMOOTH",
"26 100 OFFCURVE",
"143 -10 OFFCURVE",
"278 -10 CURVE SMOOTH",
"307 -10 LINE SMOOTH",
"451 -10 OFFCURVE",
"545 68 OFFCURVE",
"545 207 CURVE",
"387 207 LINE",
"387 181 LINE SMOOTH",
"387 142 OFFCURVE",
"359 111 OFFCURVE",
"320 111 CURVE SMOOTH",
"308 111 LINE SMOOTH",
"269 111 OFFCURVE",
"238 142 OFFCURVE",
"238 181 CURVE SMOOTH",
"238 330 LINE SMOOTH",
"238 369 OFFCURVE",
"268 400 OFFCURVE",
"307 400 CURVE SMOOTH",
"346 400 OFFCURVE",
"376 369 OFFCURVE",
"376 330 CURVE SMOOTH",
"376 304 LINE",
"545 304 LINE",
"545 428 OFFCURVE",
"458 521 OFFCURVE",
"306 521 CURVE SMOOTH"
);
}
);
};
layerId = UUID0;
paths = (
{
closed = 1;
nodes = (
"276 521 LINE SMOOTH",
"141 521 OFFCURVE",
"26 411 OFFCURVE",
"26 276 CURVE SMOOTH",
"26 235 LINE SMOOTH",
"26 100 OFFCURVE",
"143 -10 OFFCURVE",
"278 -10 CURVE SMOOTH",
"307 -10 LINE SMOOTH",
"451 -10 OFFCURVE",
"545 68 OFFCURVE",
"545 207 CURVE",
"387 207 LINE",
"387 181 LINE SMOOTH",
"387 142 OFFCURVE",
"359 111 OFFCURVE",
"320 111 CURVE SMOOTH",
"308 111 LINE SMOOTH",
"269 111 OFFCURVE",
"238 142 OFFCURVE",
"238 181 CURVE SMOOTH",
"238 330 LINE SMOOTH",
"238 369 OFFCURVE",
"268 400 OFFCURVE",
"307 400 CURVE SMOOTH",
"346 400 OFFCURVE",
"376 369 OFFCURVE",
"376 330 CURVE SMOOTH",
"376 304 LINE",
"545 304 LINE",
"545 428 OFFCURVE",
"458 521 OFFCURVE",
"306 521 CURVE SMOOTH"
);
}
);
width = 569;
}
);
leftKerningGroup = c;
rightKerningGroup = c;
unicode = 0063;
},
{
glyphname = d;
lastChange = "2014-09-09 23:33:42 +0000";
layers = (
{
anchors = (
{
name = center;
position = "{301, 256}";
},
{
name = topright;
position = "{723, 686}";
}
);
background = {
anchors = (
{
name = center;
position = "{301, 256}";
},
{
name = topright;
position = "{581, 511}";
}
);
paths = (
{
closed = 1;
nodes = (
"353 720 LINE",
"353 458 LINE",
"332 493 OFFCURVE",
"292 521 OFFCURVE",
"221 521 CURVE SMOOTH",
"114 521 OFFCURVE",
"28 436 OFFCURVE",
"28 261 CURVE SMOOTH",
"28 250 LINE SMOOTH",
"28 75 OFFCURVE",
"125 -10 OFFCURVE",
"246 -10 CURVE SMOOTH",
"307 -10 OFFCURVE",
"347 24 OFFCURVE",
"375 59 CURVE",
"393 0 LINE",
"551 0 LINE",
"551 720 LINE"
);
},
{
closed = 1;
nodes = (
"326 396 OFFCURVE",
"353 365 OFFCURVE",
"353 326 CURVE SMOOTH",
"353 181 LINE SMOOTH",
"353 142 OFFCURVE",
"326 111 OFFCURVE",
"291 111 CURVE SMOOTH",
"256 111 OFFCURVE",
"229 142 OFFCURVE",
"229 181 CURVE SMOOTH",
"229 326 LINE SMOOTH",
"229 365 OFFCURVE",
"256 396 OFFCURVE",
"291 396 CURVE SMOOTH"
);
}
);
};
layerId = UUID0;
paths = (
{
closed = 1;
nodes = (
"551 720 LINE",
"353 720 LINE",
"353 458 LINE",
"332 493 OFFCURVE",
"292 521 OFFCURVE",
"221 521 CURVE SMOOTH",
"114 521 OFFCURVE",
"28 436 OFFCURVE",
"28 261 CURVE SMOOTH",
"28 250 LINE SMOOTH",
"28 75 OFFCURVE",
"125 -10 OFFCURVE",
"246 -10 CURVE SMOOTH",
"307 -10 OFFCURVE",
"347 24 OFFCURVE",
"375 59 CURVE",
"393 0 LINE",
"551 0 LINE"
);
},
{
closed = 1;
nodes = (
"326 396 OFFCURVE",
"353 365 OFFCURVE",
"353 326 CURVE SMOOTH",
"353 181 LINE SMOOTH",
"353 142 OFFCURVE",
"326 111 OFFCURVE",
"291 111 CURVE SMOOTH",
"256 111 OFFCURVE",
"229 142 OFFCURVE",
"229 181 CURVE SMOOTH",
"229 326 LINE SMOOTH",
"229 365 OFFCURVE",
"256 396 OFFCURVE",
"291 396 CURVE SMOOTH"
);
}
);
width = 601;
}
);
leftKerningGroup = d;
unicode = 0064;
},
{
glyphname = e;
lastChange = "2014-09-09 23:33:42 +0000";
layers = (
{
anchors = (
{
name = bottom;
position = "{301, 0}";
},
{
name = ogonek;
position = "{411, 10}";
},
{
name = top;
position = "{301, 511}";
}
);
background = {
anchors = (
{
name = bottom;
position = "{301, 0}";
},
{
name = ogonek;
position = "{541, 10}";
},
{
name = top;
position = "{301, 511}";
}
);
paths = (
{
closed = 1;
nodes = (
"300 521 LINE SMOOTH",
"141 521 OFFCURVE",
"27 431 OFFCURVE",
"27 271 CURVE SMOOTH",
"27 240 LINE SMOOTH",
"27 80 OFFCURVE",
"148 -10 OFFCURVE",
"307 -10 CURVE SMOOTH",
"322 -10 LINE SMOOTH",
"480 -10 OFFCURVE",
"571 79 OFFCURVE",
"571 192 CURVE",
"388 192 LINE",
"388 143 OFFCURVE",
"364 111 OFFCURVE",
"316 111 CURVE SMOOTH",
"273 111 OFFCURVE",
"239 134 OFFCURVE",
"239 181 CURVE SMOOTH",
"239 229 LINE",
"572 229 LINE",
"572 291 LINE SMOOTH",
"572 424 OFFCURVE",
"482 521 OFFCURVE",
"325 521 CURVE SMOOTH"
);
},
{
closed = 1;
nodes = (
"347 400 OFFCURVE",
"377 369 OFFCURVE",
"377 330 CURVE SMOOTH",
"377 316 LINE",
"239 316 LINE",
"239 330 LINE SMOOTH",
"239 369 OFFCURVE",
"269 400 OFFCURVE",
"308 400 CURVE SMOOTH"
);
}
);
};
layerId = UUID0;
paths = (
{
closed = 1;
nodes = (
"300 521 LINE SMOOTH",
"141 521 OFFCURVE",
"27 431 OFFCURVE",
"27 271 CURVE SMOOTH",
"27 240 LINE SMOOTH",
"27 80 OFFCURVE",
"148 -10 OFFCURVE",
"307 -10 CURVE SMOOTH",
"322 -10 LINE SMOOTH",
"480 -10 OFFCURVE",
"571 79 OFFCURVE",
"571 192 CURVE",
"388 192 LINE",
"388 143 OFFCURVE",
"364 111 OFFCURVE",
"316 111 CURVE SMOOTH",
"273 111 OFFCURVE",
"239 134 OFFCURVE",
"239 181 CURVE SMOOTH",
"239 229 LINE",
"572 229 LINE",
"572 291 LINE SMOOTH",
"572 424 OFFCURVE",
"482 521 OFFCURVE",
"325 521 CURVE SMOOTH"
);
},
{
closed = 1;
nodes = (
"347 400 OFFCURVE",
"377 369 OFFCURVE",
"377 330 CURVE SMOOTH",
"377 316 LINE",
"239 316 LINE",
"239 330 LINE SMOOTH",
"239 369 OFFCURVE",
"269 400 OFFCURVE",
"308 400 CURVE SMOOTH"
);
}
);
width = 601;
}
);
leftKerningGroup = c;
rightKerningGroup = e;
unicode = 0065;
},
{
glyphname = f;
lastChange = "2014-09-09 23:33:42 +0000";
layers = (
{
background = {
paths = (
{
closed = 1;
nodes = (
"164 728 OFFCURVE",
"89 685 OFFCURVE",
"89 577 CURVE SMOOTH",
"89 511 LINE",
"25 511 LINE",
"25 369 LINE",
"89 369 LINE",
"89 0 LINE",
"287 0 LINE",
"287 369 LINE",
"407 369 LINE",
"407 511 LINE",
"287 511 LINE",
"287 548 LINE SMOOTH",
"287 603 OFFCURVE",
"319 606 OFFCURVE",
"344 606 CURVE SMOOTH",
"359 606 OFFCURVE",
"391 601 OFFCURVE",
"406 596 CURVE",
"406 706 LINE",
"373 720 OFFCURVE",
"306 728 OFFCURVE",
"272 728 CURVE SMOOTH"
);
}
);
};
layerId = UUID0;
paths = (
{
closed = 1;
nodes = (
"164 728 OFFCURVE",
"89 685 OFFCURVE",
"89 577 CURVE SMOOTH",
"89 511 LINE",
"25 511 LINE",
"25 369 LINE",
"89 369 LINE",
"89 0 LINE",
"287 0 LINE",
"287 369 LINE",
"407 369 LINE",
"407 511 LINE",
"287 511 LINE",
"287 548 LINE SMOOTH",
"287 603 OFFCURVE",
"319 606 OFFCURVE",
"344 606 CURVE SMOOTH",
"359 606 OFFCURVE",
"391 601 OFFCURVE",
"406 596 CURVE",
"406 706 LINE",
"373 720 OFFCURVE",
"306 728 OFFCURVE",
"272 728 CURVE SMOOTH"
);
}
);
width = 419;
}
);
leftKerningGroup = f;
unicode = 0066;
},
{
glyphname = g;
lastChange = "2014-09-09 23:33:42 +0000";
layers = (
{
anchors = (
{
name = top;
position = "{295, 511}";
}
);
background = {
anchors = (
{
name = top;
position = "{295, 511}";
}
);
paths = (
{
closed = 1;
nodes = (
"441 603 LINE",
"441 586 OFFCURVE",
"427 552 OFFCURVE",
"371 515 CURVE",
"351 519 OFFCURVE",
"329 521 OFFCURVE",
"305 521 CURVE SMOOTH",
"277 521 LINE SMOOTH",
"121 521 OFFCURVE",
"47 449 OFFCURVE",
"47 360 CURVE SMOOTH",
"47 311 OFFCURVE",
"81 269 OFFCURVE",
"124 240 CURVE",
"73 227 OFFCURVE",
"32 184 OFFCURVE",
"32 133 CURVE SMOOTH",
"32 98 OFFCURVE",
"51 66 OFFCURVE",
"80 46 CURVE",
"40 27 OFFCURVE",
"4 -14 OFFCURVE",
"4 -63 CURVE SMOOTH",
"4 -68 LINE SMOOTH",
"4 -134 OFFCURVE",
"58 -188 OFFCURVE",
"124 -188 CURVE SMOOTH",
"389 -188 LINE SMOOTH",
"498 -188 OFFCURVE",
"589 -108 OFFCURVE",
"589 -17 CURVE SMOOTH",
"589 74 OFFCURVE",
"539 139 OFFCURVE",
"429 139 CURVE SMOOTH",
"266 139 LINE SMOOTH",
"219 139 OFFCURVE",
"209 153 OFFCURVE",
"209 170 CURVE SMOOTH",
"209 186 OFFCURVE",
"225 200 OFFCURVE",
"266 200 CURVE SMOOTH",
"335 200 LINE SMOOTH",
"444 200 OFFCURVE",
"535 272 OFFCURVE",
"535 361 CURVE SMOOTH",
"535 402 OFFCURVE",
"514 440 OFFCURVE",
"479 468 CURVE",
"548 487 OFFCURVE",
"589 522 OFFCURVE",
"589 603 CURVE"
);
},
{
closed = 1;
nodes = (
"389 0 OFFCURVE",
"411 -19 OFFCURVE",
"411 -42 CURVE SMOOTH",
"411 -65 OFFCURVE",
"389 -83 OFFCURVE",
"361 -83 CURVE SMOOTH",
"218 -83 LINE SMOOTH",
"190 -83 OFFCURVE",
"168 -64 OFFCURVE",
"168 -41 CURVE SMOOTH",
"168 -18 OFFCURVE",
"190 0 OFFCURVE",
"218 0 CURVE SMOOTH",
"361 0 LINE SMOOTH"
);
},
{
closed = 1;
nodes = (
"330 423 OFFCURVE",
"356 395 OFFCURVE",
"356 360 CURVE SMOOTH",
"356 325 OFFCURVE",
"330 297 OFFCURVE",
"295 297 CURVE SMOOTH",
"260 297 OFFCURVE",
"234 325 OFFCURVE",
"234 360 CURVE SMOOTH",
"234 395 OFFCURVE",
"260 423 OFFCURVE",
"295 423 CURVE SMOOTH"
);
}
);
};
layerId = UUID0;
paths = (
{
closed = 1;
nodes = (
"441 603 LINE",
"441 586 OFFCURVE",
"427 552 OFFCURVE",
"371 515 CURVE",
"351 519 OFFCURVE",
"329 521 OFFCURVE",
"305 521 CURVE SMOOTH",
"277 521 LINE SMOOTH",
"121 521 OFFCURVE",
"47 449 OFFCURVE",
"47 360 CURVE SMOOTH",
"47 311 OFFCURVE",
"81 269 OFFCURVE",
"124 240 CURVE",
"73 227 OFFCURVE",
"32 184 OFFCURVE",
"32 133 CURVE SMOOTH",
"32 98 OFFCURVE",
"51 66 OFFCURVE",
"80 46 CURVE",
"40 27 OFFCURVE",
"4 -14 OFFCURVE",
"4 -63 CURVE SMOOTH",
"4 -68 LINE SMOOTH",
"4 -134 OFFCURVE",
"58 -188 OFFCURVE",
"124 -188 CURVE SMOOTH",
"389 -188 LINE SMOOTH",
"498 -188 OFFCURVE",
"589 -108 OFFCURVE",
"589 -17 CURVE SMOOTH",
"589 74 OFFCURVE",
"539 139 OFFCURVE",
"429 139 CURVE SMOOTH",
"266 139 LINE SMOOTH",
"219 139 OFFCURVE",
"209 153 OFFCURVE",
"209 170 CURVE SMOOTH",
"209 186 OFFCURVE",
"225 200 OFFCURVE",
"266 200 CURVE SMOOTH",
"335 200 LINE SMOOTH",
"444 200 OFFCURVE",
"535 272 OFFCURVE",
"535 361 CURVE SMOOTH",
"535 402 OFFCURVE",
"514 440 OFFCURVE",
"479 468 CURVE",
"548 487 OFFCURVE",
"589 522 OFFCURVE",
"589 603 CURVE"
);
},
{
closed = 1;
nodes = (
"330 423 OFFCURVE",
"356 395 OFFCURVE",
"356 360 CURVE SMOOTH",
"356 325 OFFCURVE",
"330 297 OFFCURVE",
"295 297 CURVE SMOOTH",
"260 297 OFFCURVE",
"234 325 OFFCURVE",
"234 360 CURVE SMOOTH",
"234 395 OFFCURVE",
"260 423 OFFCURVE",
"295 423 CURVE SMOOTH"
);
},
{
closed = 1;
nodes = (
"361 0 LINE SMOOTH",
"389 0 OFFCURVE",
"411 -19 OFFCURVE",
"411 -42 CURVE SMOOTH",
"411 -65 OFFCURVE",
"389 -83 OFFCURVE",
"361 -83 CURVE SMOOTH",
"218 -83 LINE SMOOTH",
"190 -83 OFFCURVE",
"168 -64 OFFCURVE",
"168 -41 CURVE SMOOTH",
"168 -18 OFFCURVE",
"190 0 OFFCURVE",
"218 0 CURVE SMOOTH"
);
}
);
width = 590;
}
);
unicode = 0067;
},
{
glyphname = h;
lastChange = "2014-09-09 23:33:42 +0000";
layers = (
{
anchors = (
{
name = center;
position = "{300, 256}";
},
{
name = top;
position = "{153, 686}";
}
);
background = {
anchors = (
{
name = center;
position = "{300, 256}";
},
{
name = top;
position = "{300, 511}";
}
);
paths = (
{
closed = 1;
nodes = (
"50 720 LINE",
"50 0 LINE",
"248 0 LINE",
"248 320 LINE SMOOTH",
"248 353 OFFCURVE",
"272 380 OFFCURVE",
"301 380 CURVE SMOOTH",
"330 380 OFFCURVE",
"354 353 OFFCURVE",
"354 320 CURVE SMOOTH",
"354 0 LINE",
"552 0 LINE",
"552 371 LINE SMOOTH",
"552 454 OFFCURVE",
"485 521 OFFCURVE",
"402 521 CURVE SMOOTH",
"374 521 LINE SMOOTH",
"305 521 OFFCURVE",
"267 479 OFFCURVE",
"248 451 CURVE",
"248 720 LINE"
);
}
);
};
layerId = UUID0;
paths = (
{
closed = 1;
nodes = (
"248 720 LINE",
"50 720 LINE",
"50 0 LINE",
"248 0 LINE",
"248 320 LINE SMOOTH",
"248 353 OFFCURVE",
"272 380 OFFCURVE",
"301 380 CURVE SMOOTH",
"330 380 OFFCURVE",
"354 353 OFFCURVE",
"354 320 CURVE SMOOTH",
"354 0 LINE",
"552 0 LINE",
"552 371 LINE SMOOTH",
"552 454 OFFCURVE",
"485 521 OFFCURVE",
"402 521 CURVE SMOOTH",
"374 521 LINE SMOOTH",
"305 521 OFFCURVE",
"267 479 OFFCURVE",
"248 451 CURVE"
);
}
);
width = 599;
}
);
rightKerningGroup = h;
unicode = 0068;
},
{
glyphname = i;
lastChange = "2014-09-09 23:33:42 +0000";
layers = (
{
background = {
paths = (
{
closed = 1;
nodes = (
"50 510 LINE",
"50 0 LINE",
"247 0 LINE",
"247 510 LINE"
);
},
{
closed = 1;
nodes = (
"50 720 LINE",
"50 577 LINE",
"247 577 LINE",
"247 720 LINE"
);
}
);
};
layerId = UUID0;
paths = (
{
closed = 1;
nodes = (
"247 720 LINE",
"50 720 LINE",
"50 577 LINE",
"247 577 LINE"
);
},
{
closed = 1;
nodes = (
"247 510 LINE",
"50 510 LINE",
"50 0 LINE",
"247 0 LINE"
);
}
);
width = 297;
}
);
unicode = 0069;
},
{
glyphname = j;
lastChange = "2014-09-05 18:35:52 +0000";
layers = (
{
background = {
paths = (
{
closed = 1;
nodes = (
"50 510 LINE",
"50 4 LINE SMOOTH",
"50 -55 OFFCURVE",
"22 -65 OFFCURVE",
"-6 -65 CURVE SMOOTH",
"-21 -65 OFFCURVE",
"-53 -60 OFFCURVE",
"-68 -53 CURVE",
"-68 -165 LINE",
"-36 -178 OFFCURVE",
"32 -187 OFFCURVE",
"66 -187 CURVE SMOOTH",
"175 -187 OFFCURVE",
"249 -134 OFFCURVE",
"249 -26 CURVE SMOOTH",
"249 510 LINE"
);
},
{
closed = 1;
nodes = (
"50 720 LINE",
"50 577 LINE",
"249 577 LINE",
"249 720 LINE"
);
}
);
};
layerId = UUID0;
paths = (
{
closed = 1;
nodes = (
"50 510 LINE",
"50 4 LINE SMOOTH",
"50 -55 OFFCURVE",
"22 -65 OFFCURVE",
"-6 -65 CURVE SMOOTH",
"-21 -65 OFFCURVE",
"-53 -60 OFFCURVE",
"-68 -53 CURVE",
"-68 -165 LINE",
"-36 -178 OFFCURVE",
"32 -187 OFFCURVE",
"66 -187 CURVE SMOOTH",
"175 -187 OFFCURVE",
"249 -134 OFFCURVE",
"249 -26 CURVE SMOOTH",
"249 510 LINE"
);
},
{
closed = 1;
nodes = (
"50 720 LINE",
"50 577 LINE",
"249 577 LINE",
"249 720 LINE"
);
}
);
width = 299;
}
);
unicode = 006A;
},
{
glyphname = k;
lastChange = "2014-09-05 18:35:52 +0000";
layers = (
{
anchors = (
{
name = bottom;
position = "{302, 0}";
}
);
background = {
anchors = (
{
name = bottom;
position = "{302, 0}";
}
);
paths = (
{
closed = 1;
nodes = (
"50 720 LINE",
"50 0 LINE",
"248 0 LINE",
"248 114 LINE",
"284 145 LINE",
"374 0 LINE",
"607 0 LINE",
"425 280 LINE",
"604 511 LINE",
"378 511 LINE",
"248 321 LINE",
"248 720 LINE"
);
}
);
};
layerId = UUID0;
paths = (
{
closed = 1;
nodes = (
"50 720 LINE",
"50 0 LINE",
"248 0 LINE",
"248 114 LINE",
"284 145 LINE",
"374 0 LINE",
"607 0 LINE",
"425 280 LINE",
"604 511 LINE",
"378 511 LINE",
"248 321 LINE",
"248 720 LINE"
);
}
);
width = 603;
}
);
unicode = 006B;
},
{
glyphname = l;
lastChange = "2014-09-08 21:35:57 +0000";
layers = (
{
anchors = (
{
name = bottom;
position = "{149, 0}";
},
{
name = top;
position = "{149, 686}";
},
{
name = topright;
position = "{398, 686}";
}
);
background = {
anchors = (
{
name = bottom;
position = "{149, 0}";
},
{
name = top;
position = "{149, 511}";
},
{
name = topright;
position = "{278, 511}";
}
);
paths = (
{
closed = 1;
nodes = (
"50 720 LINE",
"50 0 LINE",
"248 0 LINE",
"248 720 LINE"
);
}
);
};
layerId = UUID0;
paths = (
{
closed = 1;
nodes = (
"50 720 LINE",
"50 0 LINE",
"248 0 LINE",
"248 720 LINE"
);
}
);
width = 298;
}
);
unicode = 006C;
},
{
glyphname = m;
lastChange = "2014-09-05 18:35:52 +0000";
layers = (
{
background = {
paths = (
{
closed = 1;
nodes = (
"647 521 LINE SMOOTH",
"590 521 OFFCURVE",
"542 490 OFFCURVE",
"515 443 CURVE",
"490 490 OFFCURVE",
"441 521 OFFCURVE",
"384 521 CURVE SMOOTH",
"357 521 LINE SMOOTH",
"284 521 OFFCURVE",
"236 459 OFFCURVE",
"219 437 CURVE",
"198 511 LINE",
"50 511 LINE",
"50 0 LINE",
"244 0 LINE",
"244 324 LINE SMOOTH",
"244 357 OFFCURVE",
"265 379 OFFCURVE",
"292 379 CURVE SMOOTH",
"319 379 OFFCURVE",
"340 357 OFFCURVE",
"340 324 CURVE SMOOTH",
"340 0 LINE",
"534 0 LINE",
"534 324 LINE SMOOTH",
"534 357 OFFCURVE",
"555 379 OFFCURVE",
"582 379 CURVE SMOOTH",
"609 379 OFFCURVE",
"630 357 OFFCURVE",
"630 324 CURVE SMOOTH",
"630 0 LINE",
"824 0 LINE",
"824 371 LINE SMOOTH",
"824 454 OFFCURVE",
"757 521 OFFCURVE",
"674 521 CURVE SMOOTH"
);
}
);
};
layerId = UUID0;
paths = (
{
closed = 1;
nodes = (
"647 521 LINE SMOOTH",
"590 521 OFFCURVE",
"542 490 OFFCURVE",
"515 443 CURVE",
"490 490 OFFCURVE",
"441 521 OFFCURVE",
"384 521 CURVE SMOOTH",
"357 521 LINE SMOOTH",
"284 521 OFFCURVE",
"236 459 OFFCURVE",
"219 437 CURVE",
"198 511 LINE",
"50 511 LINE",
"50 0 LINE",
"244 0 LINE",
"244 324 LINE SMOOTH",
"244 357 OFFCURVE",
"265 379 OFFCURVE",
"292 379 CURVE SMOOTH",
"319 379 OFFCURVE",
"340 357 OFFCURVE",
"340 324 CURVE SMOOTH",
"340 0 LINE",
"534 0 LINE",
"534 324 LINE SMOOTH",
"534 357 OFFCURVE",
"555 379 OFFCURVE",
"582 379 CURVE SMOOTH",
"609 379 OFFCURVE",
"630 357 OFFCURVE",
"630 324 CURVE SMOOTH",
"630 0 LINE",
"824 0 LINE",
"824 371 LINE SMOOTH",
"824 454 OFFCURVE",
"757 521 OFFCURVE",
"674 521 CURVE SMOOTH"
);
}
);
width = 871;
}
);
leftKerningGroup = m;
rightKerningGroup = h;
unicode = 006D;
},
{
glyphname = n;
lastChange = "2014-09-05 18:35:52 +0000";
layers = (
{
anchors = (
{
name = bottom;
position = "{300, 0}";
},
{
name = top;
position = "{300, 511}";
}
);
background = {
anchors = (
{
name = bottom;
position = "{300, 0}";
},
{
name = top;
position = "{300, 511}";
}
);
paths = (
{
closed = 1;
nodes = (
"374 521 LINE SMOOTH",
"278 521 OFFCURVE",
"234 460 OFFCURVE",
"219 437 CURVE",
"199 511 LINE",
"50 511 LINE",
"50 0 LINE",
"248 0 LINE",
"248 320 LINE SMOOTH",
"248 353 OFFCURVE",
"272 380 OFFCURVE",
"301 380 CURVE SMOOTH",
"330 380 OFFCURVE",
"354 353 OFFCURVE",
"354 320 CURVE SMOOTH",
"354 0 LINE",
"552 0 LINE",
"552 371 LINE SMOOTH",
"552 454 OFFCURVE",
"485 521 OFFCURVE",
"402 521 CURVE SMOOTH"
);
}
);
};
layerId = UUID0;
paths = (
{
closed = 1;
nodes = (
"374 521 LINE SMOOTH",
"278 521 OFFCURVE",
"234 460 OFFCURVE",
"219 437 CURVE",
"199 511 LINE",
"50 511 LINE",
"50 0 LINE",
"248 0 LINE",
"248 320 LINE SMOOTH",
"248 353 OFFCURVE",
"272 380 OFFCURVE",
"301 380 CURVE SMOOTH",
"330 380 OFFCURVE",
"354 353 OFFCURVE",
"354 320 CURVE SMOOTH",
"354 0 LINE",
"552 0 LINE",
"552 371 LINE SMOOTH",
"552 454 OFFCURVE",
"485 521 OFFCURVE",
"402 521 CURVE SMOOTH"
);
}
);
width = 599;
}
);
leftKerningGroup = m;
rightKerningGroup = h;
unicode = 006E;
},
{
glyphname = o;
lastChange = "2014-09-05 18:35:52 +0000";
layers = (
{
anchors = (
{
name = top;
position = "{307, 511}";
}
);
background = {
anchors = (
{
name = top;
position = "{307, 511}";
}
);
paths = (
{
closed = 1;
nodes = (
"291 521 LINE SMOOTH",
"139 521 OFFCURVE",
"26 417 OFFCURVE",
"26 266 CURVE SMOOTH",
"26 245 LINE SMOOTH",
"26 95 OFFCURVE",
"139 -10 OFFCURVE",
"291 -10 CURVE SMOOTH",
"323 -10 LINE SMOOTH",
"475 -10 OFFCURVE",
"588 93 OFFCURVE",
"588 245 CURVE SMOOTH",
"588 266 LINE SMOOTH",
"588 417 OFFCURVE",
"475 521 OFFCURVE",
"323 521 CURVE SMOOTH"
);
},
{
closed = 1;
nodes = (
"346 400 OFFCURVE",
"376 369 OFFCURVE",
"376 330 CURVE SMOOTH",
"376 181 LINE SMOOTH",
"376 142 OFFCURVE",
"346 111 OFFCURVE",
"307 111 CURVE SMOOTH",
"268 111 OFFCURVE",
"238 142 OFFCURVE",
"238 181 CURVE SMOOTH",
"238 330 LINE SMOOTH",
"238 369 OFFCURVE",
"268 400 OFFCURVE",
"307 400 CURVE SMOOTH"
);
}
);
};
layerId = UUID0;
paths = (
{
closed = 1;
nodes = (
"291 521 LINE SMOOTH",
"139 521 OFFCURVE",
"26 417 OFFCURVE",
"26 266 CURVE SMOOTH",
"26 245 LINE SMOOTH",
"26 95 OFFCURVE",
"139 -10 OFFCURVE",
"291 -10 CURVE SMOOTH",
"323 -10 LINE SMOOTH",
"475 -10 OFFCURVE",
"588 93 OFFCURVE",
"588 245 CURVE SMOOTH",
"588 266 LINE SMOOTH",
"588 417 OFFCURVE",
"475 521 OFFCURVE",
"323 521 CURVE SMOOTH"
);
},
{
closed = 1;
nodes = (
"346 400 OFFCURVE",
"376 369 OFFCURVE",
"376 330 CURVE SMOOTH",
"376 181 LINE SMOOTH",
"376 142 OFFCURVE",
"346 111 OFFCURVE",
"307 111 CURVE SMOOTH",
"268 111 OFFCURVE",
"238 142 OFFCURVE",
"238 181 CURVE SMOOTH",
"238 330 LINE SMOOTH",
"238 369 OFFCURVE",
"268 400 OFFCURVE",
"307 400 CURVE SMOOTH"
);
}
);
width = 614;
}
);
leftKerningGroup = c;
rightKerningGroup = o;
unicode = 006F;
},
{
glyphname = p;
lastChange = "2014-09-05 18:35:52 +0000";
layers = (
{
background = {
paths = (
{
closed = 1;
nodes = (
"294 521 OFFCURVE",
"252 486 OFFCURVE",
"226 452 CURVE",
"208 511 LINE",
"50 511 LINE",
"50 -181 LINE",
"248 -181 LINE",
"248 53 LINE",
"269 18 OFFCURVE",
"309 -10 OFFCURVE",
"380 -10 CURVE SMOOTH",
"487 -10 OFFCURVE",
"573 75 OFFCURVE",
"573 250 CURVE SMOOTH",
"573 261 LINE SMOOTH",
"573 436 OFFCURVE",
"476 521 OFFCURVE",
"355 521 CURVE SMOOTH"
);
},
{
closed = 1;
nodes = (
"345 400 OFFCURVE",
"372 369 OFFCURVE",
"372 330 CURVE SMOOTH",
"372 185 LINE SMOOTH",
"372 146 OFFCURVE",
"345 115 OFFCURVE",
"310 115 CURVE SMOOTH",
"275 115 OFFCURVE",
"248 146 OFFCURVE",
"248 185 CURVE SMOOTH",
"248 330 LINE SMOOTH",
"248 369 OFFCURVE",
"275 400 OFFCURVE",
"310 400 CURVE SMOOTH"
);
}
);
};
layerId = UUID0;
paths = (
{
closed = 1;
nodes = (
"294 521 OFFCURVE",
"252 486 OFFCURVE",
"226 452 CURVE",
"208 511 LINE",
"50 511 LINE",
"50 -181 LINE",
"248 -181 LINE",
"248 53 LINE",
"269 18 OFFCURVE",
"309 -10 OFFCURVE",
"380 -10 CURVE SMOOTH",
"487 -10 OFFCURVE",
"573 75 OFFCURVE",
"573 250 CURVE SMOOTH",
"573 261 LINE SMOOTH",
"573 436 OFFCURVE",
"476 521 OFFCURVE",
"355 521 CURVE SMOOTH"
);
},
{
closed = 1;
nodes = (
"345 400 OFFCURVE",
"372 369 OFFCURVE",
"372 330 CURVE SMOOTH",
"372 185 LINE SMOOTH",
"372 146 OFFCURVE",
"345 115 OFFCURVE",
"310 115 CURVE SMOOTH",
"275 115 OFFCURVE",
"248 146 OFFCURVE",
"248 185 CURVE SMOOTH",
"248 330 LINE SMOOTH",
"248 369 OFFCURVE",
"275 400 OFFCURVE",
"310 400 CURVE SMOOTH"
);
}
);
width = 601;
}
);
leftKerningGroup = m;
rightKerningGroup = b;
unicode = 0070;
},
{
glyphname = q;
lastChange = "2014-09-05 18:35:52 +0000";
layers = (
{
background = {
paths = (
{
closed = 1;
nodes = (
"123 520 OFFCURVE",
"27 435 OFFCURVE",
"27 260 CURVE SMOOTH",
"27 249 LINE SMOOTH",
"27 74 OFFCURVE",
"113 -11 OFFCURVE",
"220 -11 CURVE SMOOTH",
"290 -11 OFFCURVE",
"331 28 OFFCURVE",
"352 52 CURVE",
"352 -180 LINE",
"550 -180 LINE",
"550 511 LINE",
"480 511 LINE",
"404 443 LINE",
"365 498 OFFCURVE",
"316 520 OFFCURVE",
"244 520 CURVE SMOOTH"
);
},
{
closed = 1;
nodes = (
"325 399 OFFCURVE",
"352 368 OFFCURVE",
"352 329 CURVE SMOOTH",
"352 184 LINE SMOOTH",
"352 145 OFFCURVE",
"325 114 OFFCURVE",
"290 114 CURVE SMOOTH",
"255 114 OFFCURVE",
"228 145 OFFCURVE",
"228 184 CURVE SMOOTH",
"228 329 LINE SMOOTH",
"228 368 OFFCURVE",
"255 399 OFFCURVE",
"290 399 CURVE SMOOTH"
);
}
);
};
layerId = UUID0;
paths = (
{
closed = 1;
nodes = (
"123 520 OFFCURVE",
"27 435 OFFCURVE",
"27 260 CURVE SMOOTH",
"27 249 LINE SMOOTH",
"27 74 OFFCURVE",
"113 -11 OFFCURVE",
"220 -11 CURVE SMOOTH",
"290 -11 OFFCURVE",
"331 28 OFFCURVE",
"352 52 CURVE",
"352 -180 LINE",
"550 -180 LINE",
"550 511 LINE",
"480 511 LINE",
"404 443 LINE",
"365 498 OFFCURVE",
"316 520 OFFCURVE",
"244 520 CURVE SMOOTH"
);
},
{
closed = 1;
nodes = (
"325 399 OFFCURVE",
"352 368 OFFCURVE",
"352 329 CURVE SMOOTH",
"352 184 LINE SMOOTH",
"352 145 OFFCURVE",
"325 114 OFFCURVE",
"290 114 CURVE SMOOTH",
"255 114 OFFCURVE",
"228 145 OFFCURVE",
"228 184 CURVE SMOOTH",
"228 329 LINE SMOOTH",
"228 368 OFFCURVE",
"255 399 OFFCURVE",
"290 399 CURVE SMOOTH"
);
}
);
width = 600;
}
);
leftKerningGroup = d;
unicode = 0071;
},
{
glyphname = r;
lastChange = "2014-09-05 18:42:59 +0000";
layers = (
{
anchors = (
{
name = bottom;
position = "{147, 0}";
},
{
name = top;
position = "{149, 511}";
}
);
background = {
anchors = (
{
name = bottom;
position = "{253, 0}";
},
{
name = top;
position = "{253, 511}";
}
);
paths = (
{
closed = 1;
nodes = (
"272 521 OFFCURVE",
"227 452 OFFCURVE",
"220 437 CURVE",
"198 511 LINE",
"50 511 LINE",
"50 0 LINE",
"243 0 LINE",
"243 328 LINE SMOOTH",
"243 356 OFFCURVE",
"262 378 OFFCURVE",
"286 378 CURVE SMOOTH",
"309 378 OFFCURVE",
"328 356 OFFCURVE",
"328 328 CURVE SMOOTH",
"328 304 LINE",
"490 304 LINE",
"492 329 LINE SMOOTH",
"493 344 OFFCURVE",
"494 359 OFFCURVE",
"494 367 CURVE SMOOTH",
"494 384 LINE SMOOTH",
"494 468 OFFCURVE",
"444 521 OFFCURVE",
"355 521 CURVE SMOOTH"
);
}
);
};
layerId = UUID0;
paths = (
{
closed = 1;
nodes = (
"272 521 OFFCURVE",
"227 452 OFFCURVE",
"220 437 CURVE",
"198 511 LINE",
"50 511 LINE",
"50 0 LINE",
"243 0 LINE",
"243 328 LINE SMOOTH",
"243 356 OFFCURVE",
"262 378 OFFCURVE",
"286 378 CURVE SMOOTH",
"309 378 OFFCURVE",
"328 356 OFFCURVE",
"328 328 CURVE SMOOTH",
"328 304 LINE",
"490 304 LINE",
"492 329 LINE SMOOTH",
"493 344 OFFCURVE",
"494 359 OFFCURVE",
"494 367 CURVE SMOOTH",
"494 384 LINE SMOOTH",
"494 468 OFFCURVE",
"444 521 OFFCURVE",
"355 521 CURVE SMOOTH"
);
}
);
width = 506;
}
);
leftKerningGroup = m;
unicode = 0072;
},
{
glyphname = s;
lastChange = "2014-09-05 18:35:52 +0000";
layers = (
{
anchors = (
{
name = bottom;
position = "{280, 0}";
},
{
name = top;
position = "{280, 511}";
}
);
background = {
anchors = (
{
name = bottom;
position = "{280, 0}";
},
{
name = top;
position = "{280, 511}";
}
);
paths = (
{
closed = 1;
nodes = (
"273 521 LINE SMOOTH",
"169 521 OFFCURVE",
"38 472 OFFCURVE",
"38 349 CURVE SMOOTH",
"38 134 OFFCURVE",
"356 217 OFFCURVE",
"356 142 CURVE SMOOTH",
"356 112 OFFCURVE",
"290 111 OFFCURVE",
"271 111 CURVE SMOOTH",
"236 111 OFFCURVE",
"185 120 OFFCURVE",
"185 163 CURVE SMOOTH",
"185 167 LINE",
"23 167 LINE",
"22 164 OFFCURVE",
"22 161 OFFCURVE",
"22 158 CURVE SMOOTH",
"22 149 LINE SMOOTH",
"22 40 OFFCURVE",
"136 -10 OFFCURVE",
"243 -10 CURVE SMOOTH",
"295 -10 LINE SMOOTH",
"412 -10 OFFCURVE",
"532 34 OFFCURVE",
"532 170 CURVE SMOOTH",
"532 393 OFFCURVE",
"211 301 OFFCURVE",
"211 374 CURVE SMOOTH",
"211 403 OFFCURVE",
"266 403 OFFCURVE",
"285 403 CURVE SMOOTH",
"313 403 OFFCURVE",
"355 394 OFFCURVE",
"355 358 CURVE",
"519 358 LINE",
"519 362 OFFCURVE",
"521 370 OFFCURVE",
"521 384 CURVE SMOOTH",
"521 478 OFFCURVE",
"392 521 OFFCURVE",
"304 521 CURVE SMOOTH"
);
}
);
};
layerId = UUID0;
paths = (
{
closed = 1;
nodes = (
"273 521 LINE SMOOTH",
"169 521 OFFCURVE",
"38 472 OFFCURVE",
"38 349 CURVE SMOOTH",
"38 134 OFFCURVE",
"356 217 OFFCURVE",
"356 142 CURVE SMOOTH",
"356 112 OFFCURVE",
"290 111 OFFCURVE",
"271 111 CURVE SMOOTH",
"236 111 OFFCURVE",
"185 120 OFFCURVE",
"185 163 CURVE SMOOTH",
"185 167 LINE",
"23 167 LINE",
"22 164 OFFCURVE",
"22 161 OFFCURVE",
"22 158 CURVE SMOOTH",
"22 149 LINE SMOOTH",
"22 40 OFFCURVE",
"136 -10 OFFCURVE",
"243 -10 CURVE SMOOTH",
"295 -10 LINE SMOOTH",
"412 -10 OFFCURVE",
"532 34 OFFCURVE",
"532 170 CURVE SMOOTH",
"532 393 OFFCURVE",
"211 301 OFFCURVE",
"211 374 CURVE SMOOTH",
"211 403 OFFCURVE",
"266 403 OFFCURVE",
"285 403 CURVE SMOOTH",
"313 403 OFFCURVE",
"355 394 OFFCURVE",
"355 358 CURVE",
"519 358 LINE",
"519 362 OFFCURVE",
"521 370 OFFCURVE",
"521 384 CURVE SMOOTH",
"521 478 OFFCURVE",
"392 521 OFFCURVE",
"304 521 CURVE SMOOTH"
);
}
);
width = 559;
}
);
leftKerningGroup = s;
rightKerningGroup = s;
unicode = 0073;
},
{
glyphname = t;
lastChange = "2014-09-09 03:53:53 +0000";
layers = (
{
anchors = (
{
name = bottom;
position = "{210, 0}";
},
{
name = center;
position = "{178, 256}";
},
{
name = topright;
position = "{549, 686}";
}
);
background = {
anchors = (
{
name = bottom;
position = "{210, 0}";
},
{
name = center;
position = "{210, 256}";
},
{
name = topright;
position = "{399, 511}";
}
);
paths = (
{
closed = 1;
nodes = (
"156 674 LINE",
"87 511 LINE",
"23 511 LINE",
"23 369 LINE",
"79 369 LINE",
"79 130 LINE SMOOTH",
"79 22 OFFCURVE",
"154 -11 OFFCURVE",
"262 -11 CURVE SMOOTH",
"296 -11 OFFCURVE",
"363 -3 OFFCURVE",
"396 11 CURVE",
"396 123 LINE",
"380 116 OFFCURVE",
"349 111 OFFCURVE",
"334 111 CURVE SMOOTH",
"306 111 OFFCURVE",
"277 121 OFFCURVE",
"277 180 CURVE SMOOTH",
"277 369 LINE",
"397 369 LINE",
"397 511 LINE",
"277 511 LINE",
"277 674 LINE"
);
}
);
};
layerId = UUID0;
paths = (
{
closed = 1;
nodes = (
"156 674 LINE",
"87 511 LINE",
"23 511 LINE",
"23 369 LINE",
"79 369 LINE",
"79 130 LINE SMOOTH",
"79 22 OFFCURVE",
"154 -11 OFFCURVE",
"262 -11 CURVE SMOOTH",
"296 -11 OFFCURVE",
"363 -3 OFFCURVE",
"396 11 CURVE",
"396 123 LINE",
"380 116 OFFCURVE",
"349 111 OFFCURVE",
"334 111 CURVE SMOOTH",
"306 111 OFFCURVE",
"277 121 OFFCURVE",
"277 180 CURVE SMOOTH",
"277 369 LINE",
"397 369 LINE",
"397 511 LINE",
"277 511 LINE",
"277 674 LINE"
);
}
);
width = 419;
}
);
unicode = 0074;
},
{
glyphname = u;
lastChange = "2014-09-05 18:35:52 +0000";
layers = (
{
anchors = (
{
name = ogonek;
position = "{565, 10}";
},
{
name = top;
position = "{314, 511}";
}
);
background = {
anchors = (
{
name = ogonek;
position = "{565, 10}";
},
{
name = top;
position = "{314, 511}";
}
);
paths = (
{
closed = 1;
nodes = (
"350 511 LINE",
"350 191 LINE SMOOTH",
"350 158 OFFCURVE",
"326 131 OFFCURVE",
"297 131 CURVE SMOOTH",
"268 131 OFFCURVE",
"244 158 OFFCURVE",
"244 191 CURVE SMOOTH",
"244 511 LINE",
"46 511 LINE",
"46 140 LINE SMOOTH",
"46 57 OFFCURVE",
"113 -10 OFFCURVE",
"196 -10 CURVE SMOOTH",
"224 -10 LINE SMOOTH",
"295 -10 OFFCURVE",
"351 48 OFFCURVE",
"366 71 CURVE",
"385 20 OFFCURVE",
"424 -10 OFFCURVE",
"513 -10 CURVE SMOOTH",
"565 -10 OFFCURVE",
"596 0 OFFCURVE",
"614 13 CURVE",
"614 120 LINE",
"603 114 OFFCURVE",
"591 111 OFFCURVE",
"579 111 CURVE SMOOTH",
"564 111 OFFCURVE",
"548 121 OFFCURVE",
"548 148 CURVE SMOOTH",
"548 511 LINE"
);
}
);
};
layerId = UUID0;
paths = (
{
closed = 1;
nodes = (
"350 511 LINE",
"350 191 LINE SMOOTH",
"350 158 OFFCURVE",
"326 131 OFFCURVE",
"297 131 CURVE SMOOTH",
"268 131 OFFCURVE",
"244 158 OFFCURVE",
"244 191 CURVE SMOOTH",
"244 511 LINE",
"46 511 LINE",
"46 140 LINE SMOOTH",
"46 57 OFFCURVE",
"113 -10 OFFCURVE",
"196 -10 CURVE SMOOTH",
"224 -10 LINE SMOOTH",
"295 -10 OFFCURVE",
"351 48 OFFCURVE",
"366 71 CURVE",
"385 20 OFFCURVE",
"424 -10 OFFCURVE",
"513 -10 CURVE SMOOTH",
"565 -10 OFFCURVE",
"596 0 OFFCURVE",
"614 13 CURVE",
"614 120 LINE",
"603 114 OFFCURVE",
"591 111 OFFCURVE",
"579 111 CURVE SMOOTH",
"564 111 OFFCURVE",
"548 121 OFFCURVE",
"548 148 CURVE SMOOTH",
"548 511 LINE"
);
}
);
width = 628;
}
);
leftKerningGroup = u;
rightKerningGroup = u;
unicode = 0075;
},
{
glyphname = v;
lastChange = "2014-09-05 18:35:52 +0000";
layers = (
{
background = {
paths = (
{
closed = 1;
nodes = (
"367 511 LINE",
"292 219 LINE",
"285 219 LINE",
"210 511 LINE",
"-1 511 LINE",
"164 0 LINE",
"393 0 LINE",
"560 511 LINE"
);
}
);
};
layerId = UUID0;
paths = (
{
closed = 1;
nodes = (
"367 511 LINE",
"292 219 LINE",
"285 219 LINE",
"210 511 LINE",
"-1 511 LINE",
"164 0 LINE",
"393 0 LINE",
"560 511 LINE"
);
}
);
width = 559;
}
);
unicode = 0076;
},
{
glyphname = w;
lastChange = "2014-09-05 18:35:52 +0000";
layers = (
{
anchors = (
{
name = top;
position = "{428, 511}";
}
);
background = {
anchors = (
{
name = top;
position = "{428, 511}";
}
);
paths = (
{
closed = 1;
nodes = (
"660 511 LINE",
"603 253 LINE",
"595 253 LINE",
"535 511 LINE",
"335 511 LINE",
"274 253 LINE",
"267 253 LINE",
"210 511 LINE",
"4 511 LINE",
"149 0 LINE",
"377 0 LINE",
"425 213 LINE",
"433 213 LINE",
"482 0 LINE",
"706 0 LINE",
"852 511 LINE"
);
}
);
};
layerId = UUID0;
paths = (
{
closed = 1;
nodes = (
"660 511 LINE",
"603 253 LINE",
"595 253 LINE",
"535 511 LINE",
"335 511 LINE",
"274 253 LINE",
"267 253 LINE",
"210 511 LINE",
"4 511 LINE",
"149 0 LINE",
"377 0 LINE",
"425 213 LINE",
"433 213 LINE",
"482 0 LINE",
"706 0 LINE",
"852 511 LINE"
);
}
);
width = 855;
}
);
unicode = 0077;
},
{
glyphname = x;
lastChange = "2014-09-05 18:35:52 +0000";
layers = (
{
background = {
paths = (
{
closed = 1;
nodes = (
"366 511 LINE",
"304 393 LINE",
"300 393 LINE",
"238 511 LINE",
"11 511 LINE",
"163 270 LINE",
"-7 0 LINE",
"206 0 LINE",
"283 143 LINE",
"287 143 LINE",
"363 0 LINE",
"590 0 LINE",
"423 265 LINE",
"579 511 LINE"
);
}
);
};
layerId = UUID0;
paths = (
{
closed = 1;
nodes = (
"366 511 LINE",
"304 393 LINE",
"300 393 LINE",
"238 511 LINE",
"11 511 LINE",
"163 270 LINE",
"-7 0 LINE",
"206 0 LINE",
"283 143 LINE",
"287 143 LINE",
"363 0 LINE",
"590 0 LINE",
"423 265 LINE",
"579 511 LINE"
);
}
);
width = 585;
}
);
unicode = 0078;
},
{
glyphname = y;
lastChange = "2014-09-05 18:35:52 +0000";
layers = (
{
anchors = (
{
name = top;
position = "{277, 511}";
}
);
background = {
anchors = (
{
name = top;
position = "{277, 511}";
}
);
paths = (
{
closed = 1;
nodes = (
"361 511 LINE",
"294 246 LINE",
"286 246 LINE",
"207 511 LINE",
"-4 511 LINE",
"184 15 LINE",
"178 -10 OFFCURVE",
"168 -57 OFFCURVE",
"106 -57 CURVE SMOOTH",
"78 -57 OFFCURVE",
"46 -50 OFFCURVE",
"31 -43 CURVE",
"31 -172 LINE",
"54 -183 OFFCURVE",
"87 -187 OFFCURVE",
"130 -187 CURVE SMOOTH",
"255 -187 OFFCURVE",
"338 -91 OFFCURVE",
"384 36 CURVE SMOOTH",
"556 511 LINE"
);
}
);
};
layerId = UUID0;
paths = (
{
closed = 1;
nodes = (
"361 511 LINE",
"294 246 LINE",
"286 246 LINE",
"207 511 LINE",
"-4 511 LINE",
"184 15 LINE",
"178 -10 OFFCURVE",
"168 -57 OFFCURVE",
"106 -57 CURVE SMOOTH",
"78 -57 OFFCURVE",
"46 -50 OFFCURVE",
"31 -43 CURVE",
"31 -172 LINE",
"54 -183 OFFCURVE",
"87 -187 OFFCURVE",
"130 -187 CURVE SMOOTH",
"255 -187 OFFCURVE",
"338 -91 OFFCURVE",
"384 36 CURVE SMOOTH",
"556 511 LINE"
);
}
);
width = 553;
}
);
leftKerningGroup = y;
rightKerningGroup = y;
unicode = 0079;
},
{
glyphname = z;
lastChange = "2014-09-05 18:35:52 +0000";
layers = (
{
anchors = (
{
name = top;
position = "{249, 511}";
}
);
background = {
anchors = (
{
name = top;
position = "{249, 511}";
}
);
paths = (
{
closed = 1;
nodes = (
"33 511 LINE",
"33 387 LINE",
"210 387 LINE",
"22 63 LINE",
"22 0 LINE",
"474 0 LINE",
"474 124 LINE",
"277 124 LINE",
"466 451 LINE",
"466 511 LINE"
);
}
);
};
layerId = UUID0;
paths = (
{
closed = 1;
nodes = (
"33 511 LINE",
"33 387 LINE",
"210 387 LINE",
"22 63 LINE",
"22 0 LINE",
"474 0 LINE",
"474 124 LINE",
"277 124 LINE",
"466 451 LINE",
"466 511 LINE"
);
}
);
width = 498;
}
);
leftKerningGroup = z;
rightKerningGroup = z;
unicode = 007A;
},
{
glyphname = braceleft;
lastChange = "2014-09-05 18:35:52 +0000";
layers = (
{
background = {
paths = (
{
closed = 1;
nodes = (
"239 686 LINE SMOOTH",
"171 686 OFFCURVE",
"98 651 OFFCURVE",
"98 574 CURVE SMOOTH",
"98 360 LINE SMOOTH",
"98 320 OFFCURVE",
"56 303 OFFCURVE",
"21 303 CURVE",
"21 224 LINE",
"61 224 OFFCURVE",
"98 209 OFFCURVE",
"98 169 CURVE SMOOTH",
"98 -47 LINE SMOOTH",
"98 -124 OFFCURVE",
"171 -159 OFFCURVE",
"239 -159 CURVE SMOOTH",
"320 -159 LINE",
"320 -91 LINE",
"291 -91 OFFCURVE",
"247 -87 OFFCURVE",
"244 -49 CURVE",
"234 156 LINE SMOOTH",
"231 221 OFFCURVE",
"201 259 OFFCURVE",
"133 259 CURVE",
"133 268 LINE",
"201 268 OFFCURVE",
"231 306 OFFCURVE",
"234 371 CURVE SMOOTH",
"244 577 LINE",
"247 614 OFFCURVE",
"292 618 OFFCURVE",
"320 618 CURVE",
"320 686 LINE"
);
}
);
};
layerId = UUID0;
paths = (
{
closed = 1;
nodes = (
"239 686 LINE SMOOTH",
"171 686 OFFCURVE",
"98 651 OFFCURVE",
"98 574 CURVE SMOOTH",
"98 360 LINE SMOOTH",
"98 320 OFFCURVE",
"56 303 OFFCURVE",
"21 303 CURVE",
"21 224 LINE",
"61 224 OFFCURVE",
"98 209 OFFCURVE",
"98 169 CURVE SMOOTH",
"98 -47 LINE SMOOTH",
"98 -124 OFFCURVE",
"171 -159 OFFCURVE",
"239 -159 CURVE SMOOTH",
"320 -159 LINE",
"320 -91 LINE",
"291 -91 OFFCURVE",
"247 -87 OFFCURVE",
"244 -49 CURVE",
"234 156 LINE SMOOTH",
"231 221 OFFCURVE",
"201 259 OFFCURVE",
"133 259 CURVE",
"133 268 LINE",
"201 268 OFFCURVE",
"231 306 OFFCURVE",
"234 371 CURVE SMOOTH",
"244 577 LINE",
"247 614 OFFCURVE",
"292 618 OFFCURVE",
"320 618 CURVE",
"320 686 LINE"
);
}
);
width = 343;
}
);
unicode = 007B;
},
{
glyphname = bar;
lastChange = "2014-09-05 18:35:52 +0000";
layers = (
{
background = {
paths = (
{
closed = 1;
nodes = (
"56 720 LINE",
"56 -199 LINE",
"176 -199 LINE",
"176 720 LINE"
);
}
);
};
layerId = UUID0;
paths = (
{
closed = 1;
nodes = (
"56 720 LINE",
"56 -199 LINE",
"176 -199 LINE",
"176 720 LINE"
);
}
);
width = 232;
}
);
unicode = 007C;
},
{
glyphname = braceright;
lastChange = "2014-09-05 18:35:52 +0000";
layers = (
{
background = {
paths = (
{
closed = 1;
nodes = (
"23 686 LINE",
"23 618 LINE",
"51 618 OFFCURVE",
"96 614 OFFCURVE",
"99 577 CURVE",
"109 371 LINE SMOOTH",
"112 306 OFFCURVE",
"142 268 OFFCURVE",
"210 268 CURVE",
"210 259 LINE",
"142 259 OFFCURVE",
"112 221 OFFCURVE",
"109 156 CURVE SMOOTH",
"99 -49 LINE",
"96 -87 OFFCURVE",
"52 -91 OFFCURVE",
"23 -91 CURVE",
"23 -159 LINE",
"104 -159 LINE SMOOTH",
"172 -159 OFFCURVE",
"245 -124 OFFCURVE",
"245 -47 CURVE SMOOTH",
"245 169 LINE SMOOTH",
"245 209 OFFCURVE",
"286 224 OFFCURVE",
"321 224 CURVE",
"321 303 LINE",
"284 303 OFFCURVE",
"245 320 OFFCURVE",
"245 360 CURVE SMOOTH",
"245 574 LINE SMOOTH",
"245 651 OFFCURVE",
"172 686 OFFCURVE",
"104 686 CURVE SMOOTH"
);
}
);
};
layerId = UUID0;
paths = (
{
closed = 1;
nodes = (
"23 686 LINE",
"23 618 LINE",
"51 618 OFFCURVE",
"96 614 OFFCURVE",
"99 577 CURVE",
"109 371 LINE SMOOTH",
"112 306 OFFCURVE",
"142 268 OFFCURVE",
"210 268 CURVE",
"210 259 LINE",
"142 259 OFFCURVE",
"112 221 OFFCURVE",
"109 156 CURVE SMOOTH",
"99 -49 LINE",
"96 -87 OFFCURVE",
"52 -91 OFFCURVE",
"23 -91 CURVE",
"23 -159 LINE",
"104 -159 LINE SMOOTH",
"172 -159 OFFCURVE",
"245 -124 OFFCURVE",
"245 -47 CURVE SMOOTH",
"245 169 LINE SMOOTH",
"245 209 OFFCURVE",
"286 224 OFFCURVE",
"321 224 CURVE",
"321 303 LINE",
"284 303 OFFCURVE",
"245 320 OFFCURVE",
"245 360 CURVE SMOOTH",
"245 574 LINE SMOOTH",
"245 651 OFFCURVE",
"172 686 OFFCURVE",
"104 686 CURVE SMOOTH"
);
}
);
width = 343;
}
);
unicode = 007D;
},
{
glyphname = asciitilde;
lastChange = "2014-09-05 18:35:52 +0000";
layers = (
{
background = {
paths = (
{
closed = 1;
nodes = (
"578 372 OFFCURVE",
"519 328 OFFCURVE",
"444 328 CURVE SMOOTH",
"356 328 OFFCURVE",
"291 394 OFFCURVE",
"206 394 CURVE SMOOTH",
"129 394 OFFCURVE",
"72 347 OFFCURVE",
"43 316 CURVE",
"43 190 LINE",
"72 221 OFFCURVE",
"129 268 OFFCURVE",
"206 268 CURVE SMOOTH",
"294 268 OFFCURVE",
"359 202 OFFCURVE",
"444 202 CURVE SMOOTH",
"519 202 OFFCURVE",
"578 246 OFFCURVE",
"607 280 CURVE",
"607 406 LINE"
);
}
);
};
layerId = UUID0;
paths = (
{
closed = 1;
nodes = (
"578 372 OFFCURVE",
"519 328 OFFCURVE",
"444 328 CURVE SMOOTH",
"356 328 OFFCURVE",
"291 394 OFFCURVE",
"206 394 CURVE SMOOTH",
"129 394 OFFCURVE",
"72 347 OFFCURVE",
"43 316 CURVE",
"43 190 LINE",
"72 221 OFFCURVE",
"129 268 OFFCURVE",
"206 268 CURVE SMOOTH",
"294 268 OFFCURVE",
"359 202 OFFCURVE",
"444 202 CURVE SMOOTH",
"519 202 OFFCURVE",
"578 246 OFFCURVE",
"607 280 CURVE",
"607 406 LINE"
);
}
);
width = 648;
}
);
unicode = 007E;
},
{
glyphname = exclamdown;
lastChange = "2014-09-05 18:35:52 +0000";
layers = (
{
background = {
paths = (
{
closed = 1;
nodes = (
"86 278 LINE",
"29 -177 LINE",
"267 -177 LINE",
"213 278 LINE"
);
},
{
closed = 1;
nodes = (
"53 511 LINE",
"53 328 LINE",
"244 328 LINE",
"244 511 LINE"
);
}
);
};
layerId = UUID0;
paths = (
{
closed = 1;
nodes = (
"86 278 LINE",
"29 -177 LINE",
"267 -177 LINE",
"213 278 LINE"
);
},
{
closed = 1;
nodes = (
"53 511 LINE",
"53 328 LINE",
"244 328 LINE",
"244 511 LINE"
);
}
);
width = 297;
}
);
unicode = 00A1;
},
{
glyphname = cent;
lastChange = "2014-09-05 18:35:52 +0000";
layers = (
{
background = {
paths = (
{
closed = 1;
nodes = (
"233 694 LINE",
"250 605 LINE",
"129 589 OFFCURVE",
"32 486 OFFCURVE",
"32 362 CURVE SMOOTH",
"32 321 LINE SMOOTH",
"32 198 OFFCURVE",
"130 94 OFFCURVE",
"250 78 CURVE",
"233 -10 LINE",
"364 -10 LINE",
"349 78 LINE",
"474 90 OFFCURVE",
"551 165 OFFCURVE",
"551 293 CURVE",
"393 293 LINE",
"393 267 LINE SMOOTH",
"393 228 OFFCURVE",
"365 197 OFFCURVE",
"326 197 CURVE SMOOTH",
"314 197 LINE SMOOTH",
"275 197 OFFCURVE",
"244 228 OFFCURVE",
"244 267 CURVE SMOOTH",
"244 416 LINE SMOOTH",
"244 455 OFFCURVE",
"274 486 OFFCURVE",
"313 486 CURVE SMOOTH",
"352 486 OFFCURVE",
"382 455 OFFCURVE",
"382 416 CURVE SMOOTH",
"382 390 LINE",
"551 390 LINE",
"551 505 OFFCURVE",
"480 590 OFFCURVE",
"349 605 CURVE",
"362 694 LINE"
);
}
);
};
layerId = UUID0;
paths = (
{
closed = 1;
nodes = (
"233 694 LINE",
"250 605 LINE",
"129 589 OFFCURVE",
"32 486 OFFCURVE",
"32 362 CURVE SMOOTH",
"32 321 LINE SMOOTH",
"32 198 OFFCURVE",
"130 94 OFFCURVE",
"250 78 CURVE",
"233 -10 LINE",
"364 -10 LINE",
"349 78 LINE",
"474 90 OFFCURVE",
"551 165 OFFCURVE",
"551 293 CURVE",
"393 293 LINE",
"393 267 LINE SMOOTH",
"393 228 OFFCURVE",
"365 197 OFFCURVE",
"326 197 CURVE SMOOTH",
"314 197 LINE SMOOTH",
"275 197 OFFCURVE",
"244 228 OFFCURVE",
"244 267 CURVE SMOOTH",
"244 416 LINE SMOOTH",
"244 455 OFFCURVE",
"274 486 OFFCURVE",
"313 486 CURVE SMOOTH",
"352 486 OFFCURVE",
"382 455 OFFCURVE",
"382 416 CURVE SMOOTH",
"382 390 LINE",
"551 390 LINE",
"551 505 OFFCURVE",
"480 590 OFFCURVE",
"349 605 CURVE",
"362 694 LINE"
);
}
);
width = 579;
}
);
unicode = 00A2;
},
{
glyphname = sterling;
lastChange = "2014-09-05 18:35:52 +0000";
layers = (
{
background = {
paths = (
{
closed = 1;
nodes = (
"242 700 OFFCURVE",
"127 609 OFFCURVE",
"127 493 CURVE SMOOTH",
"127 413 LINE",
"33 413 LINE",
"33 266 LINE",
"127 266 LINE",
"127 147 LINE",
"63 147 LINE",
"63 0 LINE",
"586 0 LINE",
"586 147 LINE",
"304 147 LINE",
"324 266 LINE",
"421 266 LINE",
"421 413 LINE",
"325 413 LINE",
"325 494 LINE SMOOTH",
"325 526 OFFCURVE",
"351 552 OFFCURVE",
"383 552 CURVE SMOOTH",
"415 552 OFFCURVE",
"441 526 OFFCURVE",
"441 494 CURVE SMOOTH",
"441 466 LINE",
"640 466 LINE",
"640 494 LINE SMOOTH",
"640 609 OFFCURVE",
"525 700 OFFCURVE",
"383 700 CURVE SMOOTH"
);
}
);
};
layerId = UUID0;
paths = (
{
closed = 1;
nodes = (
"242 700 OFFCURVE",
"127 609 OFFCURVE",
"127 493 CURVE SMOOTH",
"127 413 LINE",
"33 413 LINE",
"33 266 LINE",
"127 266 LINE",
"127 147 LINE",
"63 147 LINE",
"63 0 LINE",
"586 0 LINE",
"586 147 LINE",
"304 147 LINE",
"324 266 LINE",
"421 266 LINE",
"421 413 LINE",
"325 413 LINE",
"325 494 LINE SMOOTH",
"325 526 OFFCURVE",
"351 552 OFFCURVE",
"383 552 CURVE SMOOTH",
"415 552 OFFCURVE",
"441 526 OFFCURVE",
"441 494 CURVE SMOOTH",
"441 466 LINE",
"640 466 LINE",
"640 494 LINE SMOOTH",
"640 609 OFFCURVE",
"525 700 OFFCURVE",
"383 700 CURVE SMOOTH"
);
}
);
width = 667;
}
);
unicode = 00A3;
},
{
glyphname = currency;
lastChange = "2014-09-05 18:35:52 +0000";
layers = (
{
background = {
paths = (
{
closed = 1;
nodes = (
"439 545 LINE",
"412 569 OFFCURVE",
"359 587 OFFCURVE",
"303 587 CURVE SMOOTH",
"250 587 OFFCURVE",
"194 570 OFFCURVE",
"163 543 CURVE",
"106 600 LINE",
"43 537 LINE",
"101 479 LINE",
"70 448 OFFCURVE",
"55 394 OFFCURVE",
"55 339 CURVE SMOOTH",
"55 283 OFFCURVE",
"72 232 OFFCURVE",
"101 199 CURVE",
"43 141 LINE",
"104 80 LINE",
"161 137 LINE",
"193 108 OFFCURVE",
"247 91 OFFCURVE",
"303 91 CURVE SMOOTH",
"360 91 OFFCURVE",
"414 108 OFFCURVE",
"445 139 CURVE",
"503 81 LINE",
"563 141 LINE",
"507 197 LINE",
"535 232 OFFCURVE",
"551 284 OFFCURVE",
"551 339 CURVE SMOOTH",
"551 395 OFFCURVE",
"536 451 OFFCURVE",
"509 479 CURVE",
"565 535 LINE",
"497 603 LINE"
);
},
{
closed = 1;
nodes = (
"380 477 OFFCURVE",
"431 414 OFFCURVE",
"431 339 CURVE SMOOTH",
"431 264 OFFCURVE",
"380 201 OFFCURVE",
"303 201 CURVE SMOOTH",
"230 201 OFFCURVE",
"175 262 OFFCURVE",
"175 339 CURVE SMOOTH",
"175 415 OFFCURVE",
"228 477 OFFCURVE",
"303 477 CURVE SMOOTH"
);
}
);
};
layerId = UUID0;
paths = (
{
closed = 1;
nodes = (
"439 545 LINE",
"412 569 OFFCURVE",
"359 587 OFFCURVE",
"303 587 CURVE SMOOTH",
"250 587 OFFCURVE",
"194 570 OFFCURVE",
"163 543 CURVE",
"106 600 LINE",
"43 537 LINE",
"101 479 LINE",
"70 448 OFFCURVE",
"55 394 OFFCURVE",
"55 339 CURVE SMOOTH",
"55 283 OFFCURVE",
"72 232 OFFCURVE",
"101 199 CURVE",
"43 141 LINE",
"104 80 LINE",
"161 137 LINE",
"193 108 OFFCURVE",
"247 91 OFFCURVE",
"303 91 CURVE SMOOTH",
"360 91 OFFCURVE",
"414 108 OFFCURVE",
"445 139 CURVE",
"503 81 LINE",
"563 141 LINE",
"507 197 LINE",
"535 232 OFFCURVE",
"551 284 OFFCURVE",
"551 339 CURVE SMOOTH",
"551 395 OFFCURVE",
"536 451 OFFCURVE",
"509 479 CURVE",
"565 535 LINE",
"497 603 LINE"
);
},
{
closed = 1;
nodes = (
"380 477 OFFCURVE",
"431 414 OFFCURVE",
"431 339 CURVE SMOOTH",
"431 264 OFFCURVE",
"380 201 OFFCURVE",
"303 201 CURVE SMOOTH",
"230 201 OFFCURVE",
"175 262 OFFCURVE",
"175 339 CURVE SMOOTH",
"175 415 OFFCURVE",
"228 477 OFFCURVE",
"303 477 CURVE SMOOTH"
);
}
);
width = 607;
}
);
unicode = 00A4;
},
{
glyphname = yen;
lastChange = "2014-09-05 18:35:52 +0000";
layers = (
{
background = {
paths = (
{
closed = 1;
nodes = (
"471 686 LINE",
"366 461 LINE",
"361 461 LINE",
"258 686 LINE",
"22 686 LINE",
"145 457 LINE",
"68 457 LINE",
"68 364 LINE",
"195 364 LINE",
"221 317 LINE",
"68 317 LINE",
"68 224 LINE",
"250 224 LINE",
"250 0 LINE",
"459 0 LINE",
"459 224 LINE",
"647 224 LINE",
"647 317 LINE",
"488 317 LINE",
"514 364 LINE",
"647 364 LINE",
"647 457 LINE",
"563 457 LINE",
"686 686 LINE"
);
}
);
};
layerId = UUID0;
paths = (
{
closed = 1;
nodes = (
"471 686 LINE",
"366 461 LINE",
"361 461 LINE",
"258 686 LINE",
"22 686 LINE",
"145 457 LINE",
"68 457 LINE",
"68 364 LINE",
"195 364 LINE",
"221 317 LINE",
"68 317 LINE",
"68 224 LINE",
"250 224 LINE",
"250 0 LINE",
"459 0 LINE",
"459 224 LINE",
"647 224 LINE",
"647 317 LINE",
"488 317 LINE",
"514 364 LINE",
"647 364 LINE",
"647 457 LINE",
"563 457 LINE",
"686 686 LINE"
);
}
);
width = 710;
}
);
unicode = 00A5;
},
{
glyphname = brokenbar;
lastChange = "2014-09-05 18:35:52 +0000";
layers = (
{
background = {
paths = (
{
closed = 1;
nodes = (
"61 686 LINE",
"61 412 LINE",
"211 412 LINE",
"211 686 LINE"
);
},
{
closed = 1;
nodes = (
"61 274 LINE",
"61 0 LINE",
"211 0 LINE",
"211 274 LINE"
);
}
);
};
layerId = UUID0;
paths = (
{
closed = 1;
nodes = (
"61 686 LINE",
"61 412 LINE",
"211 412 LINE",
"211 686 LINE"
);
},
{
closed = 1;
nodes = (
"61 274 LINE",
"61 0 LINE",
"211 0 LINE",
"211 274 LINE"
);
}
);
width = 272;
}
);
unicode = 00A6;
},
{
glyphname = section;
lastChange = "2014-09-05 18:35:52 +0000";
layers = (
{
background = {
paths = (
{
closed = 1;
nodes = (
"174 696 OFFCURVE",
"43 654 OFFCURVE",
"43 529 CURVE SMOOTH",
"43 482 OFFCURVE",
"65 426 OFFCURVE",
"108 402 CURVE",
"60 371 OFFCURVE",
"29 310 OFFCURVE",
"29 254 CURVE SMOOTH",
"29 157 OFFCURVE",
"108 105 OFFCURVE",
"188 71 CURVE SMOOTH",
"265 38 LINE SMOOTH",
"312 18 OFFCURVE",
"347 -2 OFFCURVE",
"347 -31 CURVE SMOOTH",
"347 -63 OFFCURVE",
"298 -67 OFFCURVE",
"277 -67 CURVE SMOOTH",
"250 -67 OFFCURVE",
"214 -58 OFFCURVE",
"214 -25 CURVE",
"50 -25 LINE",
"50 -32 LINE SMOOTH",
"50 -152 OFFCURVE",
"187 -185 OFFCURVE",
"286 -185 CURVE SMOOTH",
"390 -185 OFFCURVE",
"521 -143 OFFCURVE",
"521 -18 CURVE SMOOTH",
"521 29 OFFCURVE",
"498 85 OFFCURVE",
"456 109 CURVE",
"504 140 OFFCURVE",
"535 201 OFFCURVE",
"535 257 CURVE SMOOTH",
"535 353 OFFCURVE",
"456 407 OFFCURVE",
"376 440 CURVE SMOOTH",
"299 472 LINE SMOOTH",
"252 491 OFFCURVE",
"217 514 OFFCURVE",
"217 542 CURVE SMOOTH",
"217 574 OFFCURVE",
"266 578 OFFCURVE",
"287 578 CURVE SMOOTH",
"314 578 OFFCURVE",
"350 566 OFFCURVE",
"350 533 CURVE",
"514 533 LINE",
"514 543 LINE SMOOTH",
"514 663 OFFCURVE",
"377 696 OFFCURVE",
"278 696 CURVE SMOOTH"
);
},
{
closed = 1;
nodes = (
"263 318 OFFCURVE",
"388 282 OFFCURVE",
"388 213 CURVE SMOOTH",
"388 193 OFFCURVE",
"377 172 OFFCURVE",
"358 164 CURVE",
"305 188 OFFCURVE",
"181 226 OFFCURVE",
"181 294 CURVE SMOOTH",
"181 314 OFFCURVE",
"192 335 OFFCURVE",
"211 343 CURVE"
);
}
);
};
layerId = UUID0;
paths = (
{
closed = 1;
nodes = (
"174 696 OFFCURVE",
"43 654 OFFCURVE",
"43 529 CURVE SMOOTH",
"43 482 OFFCURVE",
"65 426 OFFCURVE",
"108 402 CURVE",
"60 371 OFFCURVE",
"29 310 OFFCURVE",
"29 254 CURVE SMOOTH",
"29 157 OFFCURVE",
"108 105 OFFCURVE",
"188 71 CURVE SMOOTH",
"265 38 LINE SMOOTH",
"312 18 OFFCURVE",
"347 -2 OFFCURVE",
"347 -31 CURVE SMOOTH",
"347 -63 OFFCURVE",
"298 -67 OFFCURVE",
"277 -67 CURVE SMOOTH",
"250 -67 OFFCURVE",
"214 -58 OFFCURVE",
"214 -25 CURVE",
"50 -25 LINE",
"50 -32 LINE SMOOTH",
"50 -152 OFFCURVE",
"187 -185 OFFCURVE",
"286 -185 CURVE SMOOTH",
"390 -185 OFFCURVE",
"521 -143 OFFCURVE",
"521 -18 CURVE SMOOTH",
"521 29 OFFCURVE",
"498 85 OFFCURVE",
"456 109 CURVE",
"504 140 OFFCURVE",
"535 201 OFFCURVE",
"535 257 CURVE SMOOTH",
"535 353 OFFCURVE",
"456 407 OFFCURVE",
"376 440 CURVE SMOOTH",
"299 472 LINE SMOOTH",
"252 491 OFFCURVE",
"217 514 OFFCURVE",
"217 542 CURVE SMOOTH",
"217 574 OFFCURVE",
"266 578 OFFCURVE",
"287 578 CURVE SMOOTH",
"314 578 OFFCURVE",
"350 566 OFFCURVE",
"350 533 CURVE",
"514 533 LINE",
"514 543 LINE SMOOTH",
"514 663 OFFCURVE",
"377 696 OFFCURVE",
"278 696 CURVE SMOOTH"
);
},
{
closed = 1;
nodes = (
"263 318 OFFCURVE",
"388 282 OFFCURVE",
"388 213 CURVE SMOOTH",
"388 193 OFFCURVE",
"377 172 OFFCURVE",
"358 164 CURVE",
"305 188 OFFCURVE",
"181 226 OFFCURVE",
"181 294 CURVE SMOOTH",
"181 314 OFFCURVE",
"192 335 OFFCURVE",
"211 343 CURVE"
);
}
);
width = 565;
}
);
unicode = 00A7;
},
{
glyphname = dieresis;
lastChange = "2014-09-05 18:35:52 +0000";
layers = (
{
anchors = (
{
name = _top;
position = "{223, 511}";
}
);
background = {
anchors = (
{
name = _top;
position = "{223, 511}";
}
);
paths = (
{
closed = 1;
nodes = (
"257 750 LINE",
"257 603 LINE",
"409 603 LINE",
"409 750 LINE"
);
},
{
closed = 1;
nodes = (
"37 750 LINE",
"37 603 LINE",
"189 603 LINE",
"189 750 LINE"
);
}
);
};
layerId = UUID0;
paths = (
{
closed = 1;
nodes = (
"257 750 LINE",
"257 603 LINE",
"409 603 LINE",
"409 750 LINE"
);
},
{
closed = 1;
nodes = (
"37 750 LINE",
"37 603 LINE",
"189 603 LINE",
"189 750 LINE"
);
}
);
width = 440;
}
);
unicode = 00A8;
},
{
glyphname = copyright;
lastChange = "2014-09-05 18:35:52 +0000";
layers = (
{
background = {
paths = (
{
closed = 1;
nodes = (
"188 696 OFFCURVE",
"31 539 OFFCURVE",
"31 344 CURVE SMOOTH",
"31 147 OFFCURVE",
"188 -10 OFFCURVE",
"385 -10 CURVE SMOOTH",
"580 -10 OFFCURVE",
"739 147 OFFCURVE",
"739 344 CURVE SMOOTH",
"739 539 OFFCURVE",
"580 696 OFFCURVE",
"385 696 CURVE SMOOTH"
);
},
{
closed = 1;
nodes = (
"378 555 LINE SMOOTH",
"278 555 OFFCURVE",
"192 483 OFFCURVE",
"192 375 CURVE SMOOTH",
"192 311 LINE SMOOTH",
"192 196 OFFCURVE",
"277 131 OFFCURVE",
"382 131 CURVE SMOOTH",
"399 131 LINE SMOOTH",
"495 131 OFFCURVE",
"568 197 OFFCURVE",
"568 305 CURVE",
"456 305 LINE",
"456 285 LINE SMOOTH",
"456 246 OFFCURVE",
"429 225 OFFCURVE",
"396 225 CURVE SMOOTH",
"387 225 LINE SMOOTH",
"354 225 OFFCURVE",
"327 252 OFFCURVE",
"327 285 CURVE SMOOTH",
"327 401 LINE SMOOTH",
"327 434 OFFCURVE",
"354 461 OFFCURVE",
"387 461 CURVE SMOOTH",
"423 461 OFFCURVE",
"450 438 OFFCURVE",
"450 401 CURVE SMOOTH",
"450 380 LINE",
"568 380 LINE",
"568 497 OFFCURVE",
"492 555 OFFCURVE",
"394 555 CURVE SMOOTH"
);
},
{
closed = 1;
nodes = (
"553 632 OFFCURVE",
"663 518 OFFCURVE",
"663 344 CURVE SMOOTH",
"663 168 OFFCURVE",
"553 55 OFFCURVE",
"385 55 CURVE SMOOTH",
"214 55 OFFCURVE",
"107 168 OFFCURVE",
"107 344 CURVE SMOOTH",
"107 518 OFFCURVE",
"214 632 OFFCURVE",
"385 632 CURVE SMOOTH"
);
}
);
};
layerId = UUID0;
paths = (
{
closed = 1;
nodes = (
"188 696 OFFCURVE",
"31 539 OFFCURVE",
"31 344 CURVE SMOOTH",
"31 147 OFFCURVE",
"188 -10 OFFCURVE",
"385 -10 CURVE SMOOTH",
"580 -10 OFFCURVE",
"739 147 OFFCURVE",
"739 344 CURVE SMOOTH",
"739 539 OFFCURVE",
"580 696 OFFCURVE",
"385 696 CURVE SMOOTH"
);
},
{
closed = 1;
nodes = (
"378 555 LINE SMOOTH",
"278 555 OFFCURVE",
"192 483 OFFCURVE",
"192 375 CURVE SMOOTH",
"192 311 LINE SMOOTH",
"192 196 OFFCURVE",
"277 131 OFFCURVE",
"382 131 CURVE SMOOTH",
"399 131 LINE SMOOTH",
"495 131 OFFCURVE",
"568 197 OFFCURVE",
"568 305 CURVE",
"456 305 LINE",
"456 285 LINE SMOOTH",
"456 246 OFFCURVE",
"429 225 OFFCURVE",
"396 225 CURVE SMOOTH",
"387 225 LINE SMOOTH",
"354 225 OFFCURVE",
"327 252 OFFCURVE",
"327 285 CURVE SMOOTH",
"327 401 LINE SMOOTH",
"327 434 OFFCURVE",
"354 461 OFFCURVE",
"387 461 CURVE SMOOTH",
"423 461 OFFCURVE",
"450 438 OFFCURVE",
"450 401 CURVE SMOOTH",
"450 380 LINE",
"568 380 LINE",
"568 497 OFFCURVE",
"492 555 OFFCURVE",
"394 555 CURVE SMOOTH"
);
},
{
closed = 1;
nodes = (
"553 632 OFFCURVE",
"663 518 OFFCURVE",
"663 344 CURVE SMOOTH",
"663 168 OFFCURVE",
"553 55 OFFCURVE",
"385 55 CURVE SMOOTH",
"214 55 OFFCURVE",
"107 168 OFFCURVE",
"107 344 CURVE SMOOTH",
"107 518 OFFCURVE",
"214 632 OFFCURVE",
"385 632 CURVE SMOOTH"
);
}
);
width = 770;
}
);
unicode = 00A9;
},
{
glyphname = ordfeminine;
lastChange = "2014-09-05 18:35:52 +0000";
layers = (
{
background = {
paths = (
{
closed = 1;
nodes = (
"187 695 LINE SMOOTH",
"99 695 OFFCURVE",
"43 655 OFFCURVE",
"43 603 CURVE",
"44 594 LINE",
"158 594 LINE",
"158 615 OFFCURVE",
"180 625 OFFCURVE",
"196 625 CURVE SMOOTH",
"219 625 OFFCURVE",
"235 612 OFFCURVE",
"235 589 CURVE SMOOTH",
"235 572 LINE",
"111 572 OFFCURVE",
"34 552 OFFCURVE",
"34 468 CURVE SMOOTH",
"34 386 OFFCURVE",
"93 376 OFFCURVE",
"142 376 CURVE SMOOTH",
"191 376 OFFCURVE",
"220 401 OFFCURVE",
"241 425 CURVE",
"248 396 OFFCURVE",
"276 376 OFFCURVE",
"329 376 CURVE SMOOTH",
"358 376 OFFCURVE",
"377 382 OFFCURVE",
"390 390 CURVE",
"390 454 LINE",
"382 451 LINE SMOOTH",
"377 450 OFFCURVE",
"372 449 OFFCURVE",
"369 449 CURVE SMOOTH",
"361 449 OFFCURVE",
"350 455 OFFCURVE",
"350 471 CURVE SMOOTH",
"350 597 LINE SMOOTH",
"350 653 OFFCURVE",
"304 695 OFFCURVE",
"207 695 CURVE SMOOTH"
);
},
{
closed = 1;
nodes = (
"235 491 LINE SMOOTH",
"235 464 OFFCURVE",
"217 449 OFFCURVE",
"194 449 CURVE SMOOTH",
"175 449 OFFCURVE",
"158 454 OFFCURVE",
"158 477 CURVE SMOOTH",
"158 500 OFFCURVE",
"180 517 OFFCURVE",
"235 517 CURVE"
);
}
);
};
layerId = UUID0;
paths = (
{
closed = 1;
nodes = (
"187 695 LINE SMOOTH",
"99 695 OFFCURVE",
"43 655 OFFCURVE",
"43 603 CURVE",
"44 594 LINE",
"158 594 LINE",
"158 615 OFFCURVE",
"180 625 OFFCURVE",
"196 625 CURVE SMOOTH",
"219 625 OFFCURVE",
"235 612 OFFCURVE",
"235 589 CURVE SMOOTH",
"235 572 LINE",
"111 572 OFFCURVE",
"34 552 OFFCURVE",
"34 468 CURVE SMOOTH",
"34 386 OFFCURVE",
"93 376 OFFCURVE",
"142 376 CURVE SMOOTH",
"191 376 OFFCURVE",
"220 401 OFFCURVE",
"241 425 CURVE",
"248 396 OFFCURVE",
"276 376 OFFCURVE",
"329 376 CURVE SMOOTH",
"358 376 OFFCURVE",
"377 382 OFFCURVE",
"390 390 CURVE",
"390 454 LINE",
"382 451 LINE SMOOTH",
"377 450 OFFCURVE",
"372 449 OFFCURVE",
"369 449 CURVE SMOOTH",
"361 449 OFFCURVE",
"350 455 OFFCURVE",
"350 471 CURVE SMOOTH",
"350 597 LINE SMOOTH",
"350 653 OFFCURVE",
"304 695 OFFCURVE",
"207 695 CURVE SMOOTH"
);
},
{
closed = 1;
nodes = (
"235 491 LINE SMOOTH",
"235 464 OFFCURVE",
"217 449 OFFCURVE",
"194 449 CURVE SMOOTH",
"175 449 OFFCURVE",
"158 454 OFFCURVE",
"158 477 CURVE SMOOTH",
"158 500 OFFCURVE",
"180 517 OFFCURVE",
"235 517 CURVE"
);
}
);
width = 420;
}
);
unicode = 00AA;
},
{
glyphname = guillemetleft;
lastChange = "2014-09-05 18:35:52 +0000";
layers = (
{
background = {
paths = (
{
closed = 1;
nodes = (
"331 511 LINE",
"211 337 LINE",
"331 163 LINE",
"405 163 LINE",
"320 337 LINE",
"405 511 LINE"
);
},
{
closed = 1;
nodes = (
"150 511 LINE",
"30 337 LINE",
"150 163 LINE",
"224 163 LINE",
"139 337 LINE",
"224 511 LINE"
);
}
);
};
layerId = UUID0;
paths = (
{
closed = 1;
nodes = (
"331 511 LINE",
"211 337 LINE",
"331 163 LINE",
"405 163 LINE",
"320 337 LINE",
"405 511 LINE"
);
},
{
closed = 1;
nodes = (
"150 511 LINE",
"30 337 LINE",
"150 163 LINE",
"224 163 LINE",
"139 337 LINE",
"224 511 LINE"
);
}
);
width = 442;
}
);
leftKerningGroup = guillemotleft;
rightKerningGroup = guillemotleft;
unicode = 00AB;
},
{
glyphname = logicalnot;
lastChange = "2014-09-05 18:35:52 +0000";
layers = (
{
background = {
paths = (
{
closed = 1;
nodes = (
"33 484 LINE",
"33 334 LINE",
"421 334 LINE",
"421 158 LINE",
"571 158 LINE",
"571 484 LINE"
);
}
);
};
layerId = UUID0;
paths = (
{
closed = 1;
nodes = (
"33 484 LINE",
"33 334 LINE",
"421 334 LINE",
"421 158 LINE",
"571 158 LINE",
"571 484 LINE"
);
}
);
width = 623;
}
);
unicode = 00AC;
},
{
glyphname = softhyphen;
lastChange = "2014-09-05 18:35:52 +0000";
layers = (
{
background = {
paths = (
{
closed = 1;
nodes = (
"49 354 LINE",
"49 196 LINE",
"303 196 LINE",
"303 354 LINE"
);
}
);
};
layerId = UUID0;
paths = (
{
closed = 1;
nodes = (
"49 354 LINE",
"49 196 LINE",
"303 196 LINE",
"303 354 LINE"
);
}
);
width = 352;
}
);
leftKerningGroup = hyphen;
rightKerningGroup = hyphen;
unicode = 00AD;
},
{
glyphname = registered;
lastChange = "2014-09-05 18:35:52 +0000";
layers = (
{
background = {
paths = (
{
closed = 1;
nodes = (
"188 696 OFFCURVE",
"31 539 OFFCURVE",
"31 344 CURVE SMOOTH",
"31 147 OFFCURVE",
"188 -10 OFFCURVE",
"385 -10 CURVE SMOOTH",
"580 -10 OFFCURVE",
"739 147 OFFCURVE",
"739 344 CURVE SMOOTH",
"739 539 OFFCURVE",
"580 696 OFFCURVE",
"385 696 CURVE SMOOTH"
);
},
{
closed = 1;
nodes = (
"553 632 OFFCURVE",
"663 518 OFFCURVE",
"663 344 CURVE SMOOTH",
"663 168 OFFCURVE",
"553 55 OFFCURVE",
"385 55 CURVE SMOOTH",
"214 55 OFFCURVE",
"107 168 OFFCURVE",
"107 344 CURVE SMOOTH",
"107 518 OFFCURVE",
"214 632 OFFCURVE",
"385 632 CURVE SMOOTH"
);
},
{
closed = 1;
nodes = (
"220 547 LINE",
"220 135 LINE",
"343 135 LINE",
"343 303 LINE",
"377 303 LINE SMOOTH",
"429 303 OFFCURVE",
"431 245 OFFCURVE",
"431 207 CURVE SMOOTH",
"431 148 OFFCURVE",
"462 129 OFFCURVE",
"515 129 CURVE SMOOTH",
"538 129 OFFCURVE",
"566 132 OFFCURVE",
"587 141 CURVE",
"587 165 LINE",
"558 173 OFFCURVE",
"557 214 OFFCURVE",
"557 239 CURVE SMOOTH",
"557 290 OFFCURVE",
"537 336 OFFCURVE",
"490 351 CURVE",
"491 354 LINE",
"534 362 OFFCURVE",
"565 401 OFFCURVE",
"565 445 CURVE SMOOTH",
"565 507 OFFCURVE",
"510 547 OFFCURVE",
"451 547 CURVE SMOOTH"
);
},
{
closed = 1;
nodes = (
"423 459 OFFCURVE",
"436 446 OFFCURVE",
"436 429 CURVE SMOOTH",
"436 419 LINE SMOOTH",
"436 402 OFFCURVE",
"423 389 OFFCURVE",
"406 389 CURVE SMOOTH",
"343 389 LINE",
"343 459 LINE",
"406 459 LINE SMOOTH"
);
}
);
};
layerId = UUID0;
paths = (
{
closed = 1;
nodes = (
"188 696 OFFCURVE",
"31 539 OFFCURVE",
"31 344 CURVE SMOOTH",
"31 147 OFFCURVE",
"188 -10 OFFCURVE",
"385 -10 CURVE SMOOTH",
"580 -10 OFFCURVE",
"739 147 OFFCURVE",
"739 344 CURVE SMOOTH",
"739 539 OFFCURVE",
"580 696 OFFCURVE",
"385 696 CURVE SMOOTH"
);
},
{
closed = 1;
nodes = (
"553 632 OFFCURVE",
"663 518 OFFCURVE",
"663 344 CURVE SMOOTH",
"663 168 OFFCURVE",
"553 55 OFFCURVE",
"385 55 CURVE SMOOTH",
"214 55 OFFCURVE",
"107 168 OFFCURVE",
"107 344 CURVE SMOOTH",
"107 518 OFFCURVE",
"214 632 OFFCURVE",
"385 632 CURVE SMOOTH"
);
},
{
closed = 1;
nodes = (
"220 547 LINE",
"220 135 LINE",
"343 135 LINE",
"343 303 LINE",
"377 303 LINE SMOOTH",
"429 303 OFFCURVE",
"431 245 OFFCURVE",
"431 207 CURVE SMOOTH",
"431 148 OFFCURVE",
"462 129 OFFCURVE",
"515 129 CURVE SMOOTH",
"538 129 OFFCURVE",
"566 132 OFFCURVE",
"587 141 CURVE",
"587 165 LINE",
"558 173 OFFCURVE",
"557 214 OFFCURVE",
"557 239 CURVE SMOOTH",
"557 290 OFFCURVE",
"537 336 OFFCURVE",
"490 351 CURVE",
"491 354 LINE",
"534 362 OFFCURVE",
"565 401 OFFCURVE",
"565 445 CURVE SMOOTH",
"565 507 OFFCURVE",
"510 547 OFFCURVE",
"451 547 CURVE SMOOTH"
);
},
{
closed = 1;
nodes = (
"423 459 OFFCURVE",
"436 446 OFFCURVE",
"436 429 CURVE SMOOTH",
"436 419 LINE SMOOTH",
"436 402 OFFCURVE",
"423 389 OFFCURVE",
"406 389 CURVE SMOOTH",
"343 389 LINE",
"343 459 LINE",
"406 459 LINE SMOOTH"
);
}
);
width = 770;
}
);
unicode = 00AE;
},
{
glyphname = macron;
lastChange = "2014-09-05 18:35:52 +0000";
layers = (
{
anchors = (
{
name = _top;
position = "{230, 511}";
}
);
background = {
anchors = (
{
name = _top;
position = "{230, 511}";
}
);
paths = (
{
closed = 1;
nodes = (
"71 736 LINE",
"71 662 LINE",
"389 662 LINE",
"389 736 LINE"
);
}
);
};
layerId = UUID0;
paths = (
{
closed = 1;
nodes = (
"71 736 LINE",
"71 662 LINE",
"389 662 LINE",
"389 736 LINE"
);
}
);
width = 460;
}
);
unicode = 00AF;
},
{
glyphname = degree;
lastChange = "2014-09-05 18:35:52 +0000";
layers = (
{
background = {
paths = (
{
closed = 1;
nodes = (
"94 696 OFFCURVE",
"27 628 OFFCURVE",
"27 546 CURVE SMOOTH",
"27 463 OFFCURVE",
"94 396 OFFCURVE",
"177 396 CURVE SMOOTH",
"259 396 OFFCURVE",
"327 463 OFFCURVE",
"327 546 CURVE SMOOTH",
"327 628 OFFCURVE",
"259 696 OFFCURVE",
"177 696 CURVE SMOOTH"
);
},
{
closed = 1;
nodes = (
"210 607 OFFCURVE",
"238 580 OFFCURVE",
"238 545 CURVE SMOOTH",
"238 510 OFFCURVE",
"211 483 OFFCURVE",
"176 483 CURVE SMOOTH",
"141 483 OFFCURVE",
"114 510 OFFCURVE",
"114 545 CURVE SMOOTH",
"114 580 OFFCURVE",
"143 607 OFFCURVE",
"175 607 CURVE SMOOTH"
);
}
);
};
layerId = UUID0;
paths = (
{
closed = 1;
nodes = (
"94 696 OFFCURVE",
"27 628 OFFCURVE",
"27 546 CURVE SMOOTH",
"27 463 OFFCURVE",
"94 396 OFFCURVE",
"177 396 CURVE SMOOTH",
"259 396 OFFCURVE",
"327 463 OFFCURVE",
"327 546 CURVE SMOOTH",
"327 628 OFFCURVE",
"259 696 OFFCURVE",
"177 696 CURVE SMOOTH"
);
},
{
closed = 1;
nodes = (
"210 607 OFFCURVE",
"238 580 OFFCURVE",
"238 545 CURVE SMOOTH",
"238 510 OFFCURVE",
"211 483 OFFCURVE",
"176 483 CURVE SMOOTH",
"141 483 OFFCURVE",
"114 510 OFFCURVE",
"114 545 CURVE SMOOTH",
"114 580 OFFCURVE",
"143 607 OFFCURVE",
"175 607 CURVE SMOOTH"
);
}
);
width = 354;
}
);
unicode = 00B0;
},
{
glyphname = plusminus;
lastChange = "2014-09-05 18:35:52 +0000";
layers = (
{
background = {
paths = (
{
closed = 1;
nodes = (
"243 512 LINE",
"243 400 LINE",
"51 400 LINE",
"51 272 LINE",
"243 272 LINE",
"243 160 LINE",
"371 160 LINE",
"371 272 LINE",
"563 272 LINE",
"563 400 LINE",
"371 400 LINE",
"371 512 LINE"
);
},
{
closed = 1;
nodes = (
"51 128 LINE",
"51 0 LINE",
"563 0 LINE",
"563 128 LINE"
);
}
);
};
layerId = UUID0;
paths = (
{
closed = 1;
nodes = (
"243 512 LINE",
"243 400 LINE",
"51 400 LINE",
"51 272 LINE",
"243 272 LINE",
"243 160 LINE",
"371 160 LINE",
"371 272 LINE",
"563 272 LINE",
"563 400 LINE",
"371 400 LINE",
"371 512 LINE"
);
},
{
closed = 1;
nodes = (
"51 128 LINE",
"51 0 LINE",
"563 0 LINE",
"563 128 LINE"
);
}
);
width = 615;
}
);
unicode = 00B1;
},
{
glyphname = twosuperior;
lastChange = "2014-09-05 18:35:52 +0000";
layers = (
{
background = {
paths = (
{
closed = 1;
nodes = (
"177 804 LINE SMOOTH",
"89 804 OFFCURVE",
"40 747 OFFCURVE",
"40 678 CURVE SMOOTH",
"40 668 LINE",
"135 668 LINE",
"135 683 LINE SMOOTH",
"135 704 OFFCURVE",
"152 720 OFFCURVE",
"173 720 CURVE SMOOTH",
"180 720 LINE SMOOTH",
"201 720 OFFCURVE",
"217 704 OFFCURVE",
"217 683 CURVE SMOOTH",
"217 662 OFFCURVE",
"207 643 OFFCURVE",
"188 626 CURVE SMOOTH",
"82 534 LINE SMOOTH",
"51 507 OFFCURVE",
"39 482 OFFCURVE",
"39 441 CURVE SMOOTH",
"39 422 LINE",
"326 422 LINE",
"326 512 LINE",
"185 512 LINE",
"244 556 LINE",
"296 592 OFFCURVE",
"326 627 OFFCURVE",
"326 685 CURVE SMOOTH",
"326 756 OFFCURVE",
"274 804 OFFCURVE",
"194 804 CURVE SMOOTH"
);
}
);
};
layerId = UUID0;
paths = (
{
closed = 1;
nodes = (
"177 804 LINE SMOOTH",
"89 804 OFFCURVE",
"40 747 OFFCURVE",
"40 678 CURVE SMOOTH",
"40 668 LINE",
"135 668 LINE",
"135 683 LINE SMOOTH",
"135 704 OFFCURVE",
"152 720 OFFCURVE",
"173 720 CURVE SMOOTH",
"180 720 LINE SMOOTH",
"201 720 OFFCURVE",
"217 704 OFFCURVE",
"217 683 CURVE SMOOTH",
"217 662 OFFCURVE",
"207 643 OFFCURVE",
"188 626 CURVE SMOOTH",
"82 534 LINE SMOOTH",
"51 507 OFFCURVE",
"39 482 OFFCURVE",
"39 441 CURVE SMOOTH",
"39 422 LINE",
"326 422 LINE",
"326 512 LINE",
"185 512 LINE",
"244 556 LINE",
"296 592 OFFCURVE",
"326 627 OFFCURVE",
"326 685 CURVE SMOOTH",
"326 756 OFFCURVE",
"274 804 OFFCURVE",
"194 804 CURVE SMOOTH"
);
}
);
width = 370;
}
);
unicode = 00B2;
},
{
glyphname = threesuperior;
lastChange = "2014-09-05 18:35:52 +0000";
layers = (
{
background = {
paths = (
{
closed = 1;
nodes = (
"168 801 LINE SMOOTH",
"87 801 OFFCURVE",
"34 756 OFFCURVE",
"34 700 CURVE SMOOTH",
"34 687 LINE",
"124 687 LINE",
"124 706 OFFCURVE",
"140 721 OFFCURVE",
"161 721 CURVE SMOOTH",
"171 721 LINE SMOOTH",
"192 721 OFFCURVE",
"208 704 OFFCURVE",
"208 685 CURVE SMOOTH",
"208 654 OFFCURVE",
"192 644 OFFCURVE",
"171 644 CURVE SMOOTH",
"124 644 LINE",
"124 578 LINE",
"179 578 LINE SMOOTH",
"200 578 OFFCURVE",
"217 568 OFFCURVE",
"217 537 CURVE SMOOTH",
"217 512 OFFCURVE",
"203 493 OFFCURVE",
"174 493 CURVE SMOOTH",
"160 493 LINE SMOOTH",
"129 493 OFFCURVE",
"117 510 OFFCURVE",
"117 531 CURVE",
"22 531 LINE",
"22 520 LINE SMOOTH",
"22 460 OFFCURVE",
"70 413 OFFCURVE",
"162 413 CURVE SMOOTH",
"184 413 LINE SMOOTH",
"276 413 OFFCURVE",
"324 460 OFFCURVE",
"324 520 CURVE SMOOTH",
"324 568 OFFCURVE",
"301 601 OFFCURVE",
"262 616 CURVE",
"293 629 OFFCURVE",
"313 662 OFFCURVE",
"313 701 CURVE SMOOTH",
"313 757 OFFCURVE",
"263 801 OFFCURVE",
"184 801 CURVE SMOOTH"
);
}
);
};
layerId = UUID0;
paths = (
{
closed = 1;
nodes = (
"168 801 LINE SMOOTH",
"87 801 OFFCURVE",
"34 756 OFFCURVE",
"34 700 CURVE SMOOTH",
"34 687 LINE",
"124 687 LINE",
"124 706 OFFCURVE",
"140 721 OFFCURVE",
"161 721 CURVE SMOOTH",
"171 721 LINE SMOOTH",
"192 721 OFFCURVE",
"208 704 OFFCURVE",
"208 685 CURVE SMOOTH",
"208 654 OFFCURVE",
"192 644 OFFCURVE",
"171 644 CURVE SMOOTH",
"124 644 LINE",
"124 578 LINE",
"179 578 LINE SMOOTH",
"200 578 OFFCURVE",
"217 568 OFFCURVE",
"217 537 CURVE SMOOTH",
"217 512 OFFCURVE",
"203 493 OFFCURVE",
"174 493 CURVE SMOOTH",
"160 493 LINE SMOOTH",
"129 493 OFFCURVE",
"117 510 OFFCURVE",
"117 531 CURVE",
"22 531 LINE",
"22 520 LINE SMOOTH",
"22 460 OFFCURVE",
"70 413 OFFCURVE",
"162 413 CURVE SMOOTH",
"184 413 LINE SMOOTH",
"276 413 OFFCURVE",
"324 460 OFFCURVE",
"324 520 CURVE SMOOTH",
"324 568 OFFCURVE",
"301 601 OFFCURVE",
"262 616 CURVE",
"293 629 OFFCURVE",
"313 662 OFFCURVE",
"313 701 CURVE SMOOTH",
"313 757 OFFCURVE",
"263 801 OFFCURVE",
"184 801 CURVE SMOOTH"
);
}
);
width = 355;
}
);
unicode = 00B3;
},
{
glyphname = acute;
lastChange = "2014-09-05 18:54:44 +0000";
layers = (
{
anchors = (
{
name = _top;
position = "{114, 511}";
}
);
background = {
anchors = (
{
name = _top;
position = "{164, 511}";
}
);
paths = (
{
closed = 1;
nodes = (
"133 720 LINE",
"42 575 LINE",
"160 575 LINE",
"286 717 LINE",
"284 720 LINE"
);
}
);
};
layerId = UUID0;
paths = (
{
closed = 1;
nodes = (
"133 720 LINE",
"42 575 LINE",
"160 575 LINE",
"286 717 LINE",
"284 720 LINE"
);
}
);
width = 333;
}
);
unicode = 00B4;
},
{
glyphname = paragraph;
lastChange = "2014-09-05 18:35:52 +0000";
layers = (
{
background = {
paths = (
{
closed = 1;
nodes = (
"239 686 LINE SMOOTH",
"119 686 OFFCURVE",
"23 589 OFFCURVE",
"23 469 CURVE SMOOTH",
"23 353 OFFCURVE",
"114 256 OFFCURVE",
"230 253 CURVE",
"230 -161 LINE",
"318 -161 LINE",
"318 607 LINE",
"394 607 LINE",
"394 -161 LINE",
"482 -161 LINE",
"482 607 LINE",
"548 607 LINE",
"548 686 LINE"
);
}
);
};
layerId = UUID0;
paths = (
{
closed = 1;
nodes = (
"239 686 LINE SMOOTH",
"119 686 OFFCURVE",
"23 589 OFFCURVE",
"23 469 CURVE SMOOTH",
"23 353 OFFCURVE",
"114 256 OFFCURVE",
"230 253 CURVE",
"230 -161 LINE",
"318 -161 LINE",
"318 607 LINE",
"394 607 LINE",
"394 -161 LINE",
"482 -161 LINE",
"482 607 LINE",
"548 607 LINE",
"548 686 LINE"
);
}
);
width = 582;
}
);
unicode = 00B6;
},
{
glyphname = periodcentered;
lastChange = "2014-09-05 18:35:52 +0000";
layers = (
{
background = {
paths = (
{
closed = 1;
nodes = (
"49 380 LINE",
"49 197 LINE",
"240 197 LINE",
"240 380 LINE"
);
}
);
};
layerId = UUID0;
paths = (
{
closed = 1;
nodes = (
"49 380 LINE",
"49 197 LINE",
"240 197 LINE",
"240 380 LINE"
);
}
);
width = 289;
}
);
unicode = 00B7;
},
{
glyphname = cedilla;
lastChange = "2014-09-05 18:35:52 +0000";
layers = (
{
anchors = (
{
name = _bottom;
position = "{169, 0}";
}
);
background = {
anchors = (
{
name = _bottom;
position = "{169, 0}";
}
);
paths = (
{
closed = 1;
nodes = (
"148 -17 LINE",
"148 -76 LINE",
"166 -76 LINE SMOOTH",
"195 -76 OFFCURVE",
"204 -88 OFFCURVE",
"204 -108 CURVE SMOOTH",
"204 -131 OFFCURVE",
"188 -139 OFFCURVE",
"164 -139 CURVE SMOOTH",
"121 -139 OFFCURVE",
"95 -121 OFFCURVE",
"79 -107 CURVE",
"47 -161 LINE",
"76 -185 OFFCURVE",
"126 -197 OFFCURVE",
"173 -197 CURVE SMOOTH",
"218 -197 OFFCURVE",
"291 -181 OFFCURVE",
"291 -108 CURVE SMOOTH",
"291 -34 OFFCURVE",
"228 -17 OFFCURVE",
"169 -17 CURVE SMOOTH"
);
}
);
};
layerId = UUID0;
paths = (
{
closed = 1;
nodes = (
"148 -17 LINE",
"148 -76 LINE",
"166 -76 LINE SMOOTH",
"195 -76 OFFCURVE",
"204 -88 OFFCURVE",
"204 -108 CURVE SMOOTH",
"204 -131 OFFCURVE",
"188 -139 OFFCURVE",
"164 -139 CURVE SMOOTH",
"121 -139 OFFCURVE",
"95 -121 OFFCURVE",
"79 -107 CURVE",
"47 -161 LINE",
"76 -185 OFFCURVE",
"126 -197 OFFCURVE",
"173 -197 CURVE SMOOTH",
"218 -197 OFFCURVE",
"291 -181 OFFCURVE",
"291 -108 CURVE SMOOTH",
"291 -34 OFFCURVE",
"228 -17 OFFCURVE",
"169 -17 CURVE SMOOTH"
);
}
);
width = 334;
}
);
unicode = 00B8;
},
{
glyphname = onesuperior;
lastChange = "2014-09-05 18:35:52 +0000";
layers = (
{
background = {
paths = (
{
closed = 1;
nodes = (
"192 796 LINE",
"152 770 OFFCURVE",
"89 741 OFFCURVE",
"41 738 CURVE",
"41 676 LINE",
"123 676 LINE",
"123 504 LINE",
"41 504 LINE",
"41 422 LINE",
"306 422 LINE",
"306 504 LINE",
"228 504 LINE",
"228 796 LINE"
);
}
);
};
layerId = UUID0;
paths = (
{
closed = 1;
nodes = (
"192 796 LINE",
"152 770 OFFCURVE",
"89 741 OFFCURVE",
"41 738 CURVE",
"41 676 LINE",
"123 676 LINE",
"123 504 LINE",
"41 504 LINE",
"41 422 LINE",
"306 422 LINE",
"306 504 LINE",
"228 504 LINE",
"228 796 LINE"
);
}
);
width = 339;
}
);
unicode = 00B9;
},
{
glyphname = ordmasculine;
lastChange = "2014-09-05 18:35:52 +0000";
layers = (
{
background = {
paths = (
{
closed = 1;
nodes = (
"189 697 LINE SMOOTH",
"98 697 OFFCURVE",
"30 634 OFFCURVE",
"30 544 CURVE SMOOTH",
"30 531 LINE SMOOTH",
"30 440 OFFCURVE",
"98 378 OFFCURVE",
"189 378 CURVE SMOOTH",
"208 378 LINE SMOOTH",
"299 378 OFFCURVE",
"367 440 OFFCURVE",
"367 531 CURVE SMOOTH",
"367 544 LINE SMOOTH",
"367 634 OFFCURVE",
"299 697 OFFCURVE",
"208 697 CURVE SMOOTH"
);
},
{
closed = 1;
nodes = (
"222 624 OFFCURVE",
"240 605 OFFCURVE",
"240 582 CURVE SMOOTH",
"240 493 LINE SMOOTH",
"240 469 OFFCURVE",
"222 451 OFFCURVE",
"199 451 CURVE SMOOTH",
"176 451 OFFCURVE",
"157 469 OFFCURVE",
"157 493 CURVE SMOOTH",
"157 582 LINE SMOOTH",
"157 605 OFFCURVE",
"176 624 OFFCURVE",
"199 624 CURVE SMOOTH"
);
}
);
};
layerId = UUID0;
paths = (
{
closed = 1;
nodes = (
"189 697 LINE SMOOTH",
"98 697 OFFCURVE",
"30 634 OFFCURVE",
"30 544 CURVE SMOOTH",
"30 531 LINE SMOOTH",
"30 440 OFFCURVE",
"98 378 OFFCURVE",
"189 378 CURVE SMOOTH",
"208 378 LINE SMOOTH",
"299 378 OFFCURVE",
"367 440 OFFCURVE",
"367 531 CURVE SMOOTH",
"367 544 LINE SMOOTH",
"367 634 OFFCURVE",
"299 697 OFFCURVE",
"208 697 CURVE SMOOTH"
);
},
{
closed = 1;
nodes = (
"222 624 OFFCURVE",
"240 605 OFFCURVE",
"240 582 CURVE SMOOTH",
"240 493 LINE SMOOTH",
"240 469 OFFCURVE",
"222 451 OFFCURVE",
"199 451 CURVE SMOOTH",
"176 451 OFFCURVE",
"157 469 OFFCURVE",
"157 493 CURVE SMOOTH",
"157 582 LINE SMOOTH",
"157 605 OFFCURVE",
"176 624 OFFCURVE",
"199 624 CURVE SMOOTH"
);
}
);
width = 397;
}
);
unicode = 00BA;
},
{
glyphname = guillemetright;
lastChange = "2014-09-05 18:35:52 +0000";
layers = (
{
background = {
paths = (
{
closed = 1;
nodes = (
"218 511 LINE",
"303 337 LINE",
"218 163 LINE",
"292 163 LINE",
"412 337 LINE",
"292 511 LINE"
);
},
{
closed = 1;
nodes = (
"37 511 LINE",
"122 337 LINE",
"37 163 LINE",
"111 163 LINE",
"231 337 LINE",
"111 511 LINE"
);
}
);
};
layerId = UUID0;
paths = (
{
closed = 1;
nodes = (
"218 511 LINE",
"303 337 LINE",
"218 163 LINE",
"292 163 LINE",
"412 337 LINE",
"292 511 LINE"
);
},
{
closed = 1;
nodes = (
"37 511 LINE",
"122 337 LINE",
"37 163 LINE",
"111 163 LINE",
"231 337 LINE",
"111 511 LINE"
);
}
);
width = 442;
}
);
leftKerningGroup = guillemotright;
rightKerningGroup = guillemotright;
unicode = 00BB;
},
{
glyphname = onequarter;
lastChange = "2014-09-05 18:35:52 +0000";
layers = (
{
background = {
paths = (
{
closed = 1;
nodes = (
"565 686 LINE",
"145 0 LINE",
"234 0 LINE",
"651 686 LINE"
);
},
{
closed = 1;
nodes = (
"188 685 LINE",
"148 659 OFFCURVE",
"85 630 OFFCURVE",
"37 627 CURVE",
"37 565 LINE",
"119 565 LINE",
"119 393 LINE",
"37 393 LINE",
"37 311 LINE",
"302 311 LINE",
"302 393 LINE",
"224 393 LINE",
"224 685 LINE"
);
},
{
closed = 1;
nodes = (
"518 375 LINE",
"507 322 OFFCURVE",
"461 210 OFFCURVE",
"434 162 CURVE",
"434 81 LINE",
"585 81 LINE",
"585 0 LINE",
"686 0 LINE",
"686 81 LINE",
"739 81 LINE",
"739 161 LINE",
"686 161 LINE",
"686 339 LINE",
"641 339 LINE",
"633 309 OFFCURVE",
"603 242 OFFCURVE",
"585 216 CURVE",
"585 161 LINE",
"504 161 LINE",
"542 207 OFFCURVE",
"605 318 OFFCURVE",
"613 375 CURVE"
);
}
);
};
layerId = UUID0;
paths = (
{
closed = 1;
nodes = (
"565 686 LINE",
"145 0 LINE",
"234 0 LINE",
"651 686 LINE"
);
},
{
closed = 1;
nodes = (
"188 685 LINE",
"148 659 OFFCURVE",
"85 630 OFFCURVE",
"37 627 CURVE",
"37 565 LINE",
"119 565 LINE",
"119 393 LINE",
"37 393 LINE",
"37 311 LINE",
"302 311 LINE",
"302 393 LINE",
"224 393 LINE",
"224 685 LINE"
);
},
{
closed = 1;
nodes = (
"518 375 LINE",
"507 322 OFFCURVE",
"461 210 OFFCURVE",
"434 162 CURVE",
"434 81 LINE",
"585 81 LINE",
"585 0 LINE",
"686 0 LINE",
"686 81 LINE",
"739 81 LINE",
"739 161 LINE",
"686 161 LINE",
"686 339 LINE",
"641 339 LINE",
"633 309 OFFCURVE",
"603 242 OFFCURVE",
"585 216 CURVE",
"585 161 LINE",
"504 161 LINE",
"542 207 OFFCURVE",
"605 318 OFFCURVE",
"613 375 CURVE"
);
}
);
width = 766;
}
);
unicode = 00BC;
},
{
glyphname = onehalf;
lastChange = "2014-09-05 18:35:52 +0000";
layers = (
{
background = {
paths = (
{
closed = 1;
nodes = (
"562 686 LINE",
"142 0 LINE",
"231 0 LINE",
"648 686 LINE"
);
},
{
closed = 1;
nodes = (
"185 686 LINE",
"145 660 OFFCURVE",
"82 631 OFFCURVE",
"34 628 CURVE",
"34 566 LINE",
"116 566 LINE",
"116 394 LINE",
"34 394 LINE",
"34 312 LINE",
"299 312 LINE",
"299 394 LINE",
"221 394 LINE",
"221 686 LINE"
);
},
{
closed = 1;
nodes = (
"587 382 LINE SMOOTH",
"499 382 OFFCURVE",
"450 325 OFFCURVE",
"450 256 CURVE SMOOTH",
"450 246 LINE",
"545 246 LINE",
"545 261 LINE SMOOTH",
"545 282 OFFCURVE",
"562 298 OFFCURVE",
"583 298 CURVE SMOOTH",
"590 298 LINE SMOOTH",
"611 298 OFFCURVE",
"627 282 OFFCURVE",
"627 261 CURVE SMOOTH",
"627 240 OFFCURVE",
"617 221 OFFCURVE",
"598 204 CURVE SMOOTH",
"492 112 LINE SMOOTH",
"461 85 OFFCURVE",
"449 60 OFFCURVE",
"449 19 CURVE SMOOTH",
"449 0 LINE",
"736 0 LINE",
"736 90 LINE",
"595 90 LINE",
"654 134 LINE",
"706 170 OFFCURVE",
"736 205 OFFCURVE",
"736 263 CURVE SMOOTH",
"736 334 OFFCURVE",
"684 382 OFFCURVE",
"604 382 CURVE SMOOTH"
);
}
);
};
layerId = UUID0;
paths = (
{
closed = 1;
nodes = (
"562 686 LINE",
"142 0 LINE",
"231 0 LINE",
"648 686 LINE"
);
},
{
closed = 1;
nodes = (
"185 686 LINE",
"145 660 OFFCURVE",
"82 631 OFFCURVE",
"34 628 CURVE",
"34 566 LINE",
"116 566 LINE",
"116 394 LINE",
"34 394 LINE",
"34 312 LINE",
"299 312 LINE",
"299 394 LINE",
"221 394 LINE",
"221 686 LINE"
);
},
{
closed = 1;
nodes = (
"587 382 LINE SMOOTH",
"499 382 OFFCURVE",
"450 325 OFFCURVE",
"450 256 CURVE SMOOTH",
"450 246 LINE",
"545 246 LINE",
"545 261 LINE SMOOTH",
"545 282 OFFCURVE",
"562 298 OFFCURVE",
"583 298 CURVE SMOOTH",
"590 298 LINE SMOOTH",
"611 298 OFFCURVE",
"627 282 OFFCURVE",
"627 261 CURVE SMOOTH",
"627 240 OFFCURVE",
"617 221 OFFCURVE",
"598 204 CURVE SMOOTH",
"492 112 LINE SMOOTH",
"461 85 OFFCURVE",
"449 60 OFFCURVE",
"449 19 CURVE SMOOTH",
"449 0 LINE",
"736 0 LINE",
"736 90 LINE",
"595 90 LINE",
"654 134 LINE",
"706 170 OFFCURVE",
"736 205 OFFCURVE",
"736 263 CURVE SMOOTH",
"736 334 OFFCURVE",
"684 382 OFFCURVE",
"604 382 CURVE SMOOTH"
);
}
);
width = 765;
}
);
unicode = 00BD;
},
{
glyphname = threequarters;
lastChange = "2014-09-05 18:35:52 +0000";
layers = (
{
background = {
paths = (
{
closed = 1;
nodes = (
"556 686 LINE",
"136 0 LINE",
"225 0 LINE",
"642 686 LINE"
);
},
{
closed = 1;
nodes = (
"173 693 LINE SMOOTH",
"92 693 OFFCURVE",
"39 648 OFFCURVE",
"39 592 CURVE SMOOTH",
"39 579 LINE",
"129 579 LINE",
"129 598 OFFCURVE",
"145 613 OFFCURVE",
"166 613 CURVE SMOOTH",
"176 613 LINE SMOOTH",
"197 613 OFFCURVE",
"213 596 OFFCURVE",
"213 577 CURVE SMOOTH",
"213 546 OFFCURVE",
"197 536 OFFCURVE",
"176 536 CURVE SMOOTH",
"129 536 LINE",
"129 470 LINE",
"184 470 LINE SMOOTH",
"205 470 OFFCURVE",
"222 460 OFFCURVE",
"222 429 CURVE SMOOTH",
"222 404 OFFCURVE",
"208 385 OFFCURVE",
"179 385 CURVE SMOOTH",
"165 385 LINE SMOOTH",
"134 385 OFFCURVE",
"122 402 OFFCURVE",
"122 423 CURVE",
"27 423 LINE",
"27 412 LINE SMOOTH",
"27 352 OFFCURVE",
"75 305 OFFCURVE",
"167 305 CURVE SMOOTH",
"189 305 LINE SMOOTH",
"281 305 OFFCURVE",
"329 352 OFFCURVE",
"329 412 CURVE SMOOTH",
"329 460 OFFCURVE",
"306 493 OFFCURVE",
"267 508 CURVE",
"298 521 OFFCURVE",
"318 554 OFFCURVE",
"318 593 CURVE SMOOTH",
"318 649 OFFCURVE",
"268 693 OFFCURVE",
"189 693 CURVE SMOOTH"
);
},
{
closed = 1;
nodes = (
"509 375 LINE",
"498 322 OFFCURVE",
"452 210 OFFCURVE",
"425 162 CURVE",
"425 81 LINE",
"576 81 LINE",
"576 0 LINE",
"677 0 LINE",
"677 81 LINE",
"730 81 LINE",
"730 161 LINE",
"677 161 LINE",
"677 339 LINE",
"632 339 LINE",
"624 309 OFFCURVE",
"594 242 OFFCURVE",
"576 216 CURVE",
"576 161 LINE",
"495 161 LINE",
"533 207 OFFCURVE",
"596 318 OFFCURVE",
"604 375 CURVE"
);
}
);
};
layerId = UUID0;
paths = (
{
closed = 1;
nodes = (
"556 686 LINE",
"136 0 LINE",
"225 0 LINE",
"642 686 LINE"
);
},
{
closed = 1;
nodes = (
"173 693 LINE SMOOTH",
"92 693 OFFCURVE",
"39 648 OFFCURVE",
"39 592 CURVE SMOOTH",
"39 579 LINE",
"129 579 LINE",
"129 598 OFFCURVE",
"145 613 OFFCURVE",
"166 613 CURVE SMOOTH",
"176 613 LINE SMOOTH",
"197 613 OFFCURVE",
"213 596 OFFCURVE",
"213 577 CURVE SMOOTH",
"213 546 OFFCURVE",
"197 536 OFFCURVE",
"176 536 CURVE SMOOTH",
"129 536 LINE",
"129 470 LINE",
"184 470 LINE SMOOTH",
"205 470 OFFCURVE",
"222 460 OFFCURVE",
"222 429 CURVE SMOOTH",
"222 404 OFFCURVE",
"208 385 OFFCURVE",
"179 385 CURVE SMOOTH",
"165 385 LINE SMOOTH",
"134 385 OFFCURVE",
"122 402 OFFCURVE",
"122 423 CURVE",
"27 423 LINE",
"27 412 LINE SMOOTH",
"27 352 OFFCURVE",
"75 305 OFFCURVE",
"167 305 CURVE SMOOTH",
"189 305 LINE SMOOTH",
"281 305 OFFCURVE",
"329 352 OFFCURVE",
"329 412 CURVE SMOOTH",
"329 460 OFFCURVE",
"306 493 OFFCURVE",
"267 508 CURVE",
"298 521 OFFCURVE",
"318 554 OFFCURVE",
"318 593 CURVE SMOOTH",
"318 649 OFFCURVE",
"268 693 OFFCURVE",
"189 693 CURVE SMOOTH"
);
},
{
closed = 1;
nodes = (
"509 375 LINE",
"498 322 OFFCURVE",
"452 210 OFFCURVE",
"425 162 CURVE",
"425 81 LINE",
"576 81 LINE",
"576 0 LINE",
"677 0 LINE",
"677 81 LINE",
"730 81 LINE",
"730 161 LINE",
"677 161 LINE",
"677 339 LINE",
"632 339 LINE",
"624 309 OFFCURVE",
"594 242 OFFCURVE",
"576 216 CURVE",
"576 161 LINE",
"495 161 LINE",
"533 207 OFFCURVE",
"596 318 OFFCURVE",
"604 375 CURVE"
);
}
);
width = 757;
}
);
unicode = 00BE;
},
{
glyphname = questiondown;
lastChange = "2014-09-05 18:35:52 +0000";
layers = (
{
background = {
paths = (
{
closed = 1;
nodes = (
"197 292 LINE",
"197 270 LINE",
"196 251 OFFCURVE",
"178 236 OFFCURVE",
"153 218 CURVE SMOOTH",
"111 188 LINE SMOOTH",
"68 157 OFFCURVE",
"26 107 OFFCURVE",
"26 30 CURVE SMOOTH",
"26 -100 OFFCURVE",
"142 -186 OFFCURVE",
"266 -186 CURVE SMOOTH",
"304 -186 LINE SMOOTH",
"423 -186 OFFCURVE",
"555 -106 OFFCURVE",
"555 25 CURVE SMOOTH",
"555 38 OFFCURVE",
"553 50 OFFCURVE",
"552 63 CURVE",
"368 63 LINE",
"370 53 OFFCURVE",
"371 43 OFFCURVE",
"371 32 CURVE SMOOTH",
"371 -8 OFFCURVE",
"356 -48 OFFCURVE",
"304 -48 CURVE SMOOTH",
"265 -48 OFFCURVE",
"238 -15 OFFCURVE",
"238 22 CURVE SMOOTH",
"238 111 OFFCURVE",
"368 153 OFFCURVE",
"368 233 CURVE SMOOTH",
"368 292 LINE"
);
},
{
closed = 1;
nodes = (
"185 511 LINE",
"185 328 LINE",
"376 328 LINE",
"376 511 LINE"
);
}
);
};
layerId = UUID0;
paths = (
{
closed = 1;
nodes = (
"197 292 LINE",
"197 270 LINE",
"196 251 OFFCURVE",
"178 236 OFFCURVE",
"153 218 CURVE SMOOTH",
"111 188 LINE SMOOTH",
"68 157 OFFCURVE",
"26 107 OFFCURVE",
"26 30 CURVE SMOOTH",
"26 -100 OFFCURVE",
"142 -186 OFFCURVE",
"266 -186 CURVE SMOOTH",
"304 -186 LINE SMOOTH",
"423 -186 OFFCURVE",
"555 -106 OFFCURVE",
"555 25 CURVE SMOOTH",
"555 38 OFFCURVE",
"553 50 OFFCURVE",
"552 63 CURVE",
"368 63 LINE",
"370 53 OFFCURVE",
"371 43 OFFCURVE",
"371 32 CURVE SMOOTH",
"371 -8 OFFCURVE",
"356 -48 OFFCURVE",
"304 -48 CURVE SMOOTH",
"265 -48 OFFCURVE",
"238 -15 OFFCURVE",
"238 22 CURVE SMOOTH",
"238 111 OFFCURVE",
"368 153 OFFCURVE",
"368 233 CURVE SMOOTH",
"368 292 LINE"
);
},
{
closed = 1;
nodes = (
"185 511 LINE",
"185 328 LINE",
"376 328 LINE",
"376 511 LINE"
);
}
);
width = 577;
}
);
unicode = 00BF;
},
{
glyphname = Agrave;
lastChange = "2014-09-09 23:33:40 +0000";
layers = (
{
background = {
paths = (
{
closed = 1;
nodes = (
"224 686 LINE",
"-5 0 LINE",
"197 0 LINE",
"237 122 LINE",
"455 122 LINE",
"496 0 LINE",
"714 0 LINE",
"485 686 LINE"
);
},
{
closed = 1;
nodes = (
"407 267 LINE",
"285 267 LINE",
"344 475 LINE",
"349 475 LINE"
);
},
{
closed = 1;
nodes = (
"173 895 LINE",
"171 892 LINE",
"297 750 LINE",
"415 750 LINE",
"324 895 LINE"
);
}
);
};
layerId = UUID0;
paths = (
{
closed = 1;
nodes = (
"324 895 LINE",
"173 895 LINE",
"171 892 LINE",
"297 750 LINE",
"415 750 LINE"
);
},
{
closed = 1;
nodes = (
"485 686 LINE",
"224 686 LINE",
"-5 0 LINE",
"197 0 LINE",
"237 122 LINE",
"455 122 LINE",
"496 0 LINE",
"714 0 LINE"
);
},
{
closed = 1;
nodes = (
"349 475 LINE",
"407 267 LINE",
"285 267 LINE",
"344 475 LINE"
);
}
);
width = 709;
}
);
leftKerningGroup = A;
rightKerningGroup = A;
unicode = 00C0;
},
{
glyphname = Aacute;
lastChange = "2014-09-09 23:33:40 +0000";
layers = (
{
background = {
paths = (
{
closed = 1;
nodes = (
"224 686 LINE",
"-5 0 LINE",
"197 0 LINE",
"237 122 LINE",
"455 122 LINE",
"496 0 LINE",
"714 0 LINE",
"485 686 LINE"
);
},
{
closed = 1;
nodes = (
"407 267 LINE",
"285 267 LINE",
"344 475 LINE",
"349 475 LINE"
);
},
{
closed = 1;
nodes = (
"392 896 LINE",
"301 751 LINE",
"419 751 LINE",
"545 893 LINE",
"543 896 LINE"
);
}
);
};
layerId = UUID0;
paths = (
{
closed = 1;
nodes = (
"543 896 LINE",
"392 896 LINE",
"301 751 LINE",
"419 751 LINE",
"545 893 LINE"
);
},
{
closed = 1;
nodes = (
"485 686 LINE",
"224 686 LINE",
"-5 0 LINE",
"197 0 LINE",
"237 122 LINE",
"455 122 LINE",
"496 0 LINE",
"714 0 LINE"
);
},
{
closed = 1;
nodes = (
"349 475 LINE",
"407 267 LINE",
"285 267 LINE",
"344 475 LINE"
);
}
);
width = 709;
}
);
leftKerningGroup = A;
rightKerningGroup = A;
unicode = 00C1;
},
{
glyphname = Acircumflex;
lastChange = "2014-09-09 23:33:40 +0000";
layers = (
{
background = {
paths = (
{
closed = 1;
nodes = (
"224 686 LINE",
"-5 0 LINE",
"197 0 LINE",
"237 122 LINE",
"455 122 LINE",
"496 0 LINE",
"714 0 LINE",
"485 686 LINE"
);
},
{
closed = 1;
nodes = (
"407 267 LINE",
"285 267 LINE",
"344 475 LINE",
"349 475 LINE"
);
},
{
closed = 1;
nodes = (
"285 896 LINE",
"146 751 LINE",
"274 751 LINE",
"348 828 LINE",
"422 751 LINE",
"552 751 LINE",
"413 896 LINE"
);
}
);
};
layerId = UUID0;
paths = (
{
closed = 1;
nodes = (
"413 896 LINE",
"285 896 LINE",
"146 751 LINE",
"274 751 LINE",
"348 828 LINE",
"422 751 LINE",
"552 751 LINE"
);
},
{
closed = 1;
nodes = (
"485 686 LINE",
"224 686 LINE",
"-5 0 LINE",
"197 0 LINE",
"237 122 LINE",
"455 122 LINE",
"496 0 LINE",
"714 0 LINE"
);
},
{
closed = 1;
nodes = (
"349 475 LINE",
"407 267 LINE",
"285 267 LINE",
"344 475 LINE"
);
}
);
width = 709;
}
);
leftKerningGroup = A;
rightKerningGroup = A;
unicode = 00C2;
},
{
glyphname = Atilde;
lastChange = "2014-09-09 23:33:40 +0000";
layers = (
{
background = {
paths = (
{
closed = 1;
nodes = (
"224 686 LINE",
"-5 0 LINE",
"197 0 LINE",
"237 122 LINE",
"455 122 LINE",
"496 0 LINE",
"714 0 LINE",
"485 686 LINE"
);
},
{
closed = 1;
nodes = (
"407 267 LINE",
"285 267 LINE",
"344 475 LINE",
"349 475 LINE"
);
},
{
closed = 1;
nodes = (
"489 893 LINE",
"482 870 OFFCURVE",
"464 853 OFFCURVE",
"439 853 CURVE SMOOTH",
"386 853 OFFCURVE",
"330 893 OFFCURVE",
"266 893 CURVE SMOOTH",
"189 893 OFFCURVE",
"126 822 OFFCURVE",
"126 750 CURVE",
"207 750 LINE",
"214 773 OFFCURVE",
"232 790 OFFCURVE",
"257 790 CURVE SMOOTH",
"270 790 OFFCURVE",
"284 788 OFFCURVE",
"297 784 CURVE SMOOTH",
"339 770 LINE SMOOTH",
"369 760 OFFCURVE",
"397 750 OFFCURVE",
"430 750 CURVE SMOOTH",
"507 750 OFFCURVE",
"570 821 OFFCURVE",
"570 893 CURVE"
);
}
);
};
layerId = UUID0;
paths = (
{
closed = 1;
nodes = (
"489 893 LINE",
"482 870 OFFCURVE",
"464 853 OFFCURVE",
"439 853 CURVE SMOOTH",
"386 853 OFFCURVE",
"330 893 OFFCURVE",
"266 893 CURVE SMOOTH",
"189 893 OFFCURVE",
"126 822 OFFCURVE",
"126 750 CURVE",
"207 750 LINE",
"214 773 OFFCURVE",
"232 790 OFFCURVE",
"257 790 CURVE SMOOTH",
"270 790 OFFCURVE",
"284 788 OFFCURVE",
"297 784 CURVE SMOOTH",
"339 770 LINE SMOOTH",
"369 760 OFFCURVE",
"397 750 OFFCURVE",
"430 750 CURVE SMOOTH",
"507 750 OFFCURVE",
"570 821 OFFCURVE",
"570 893 CURVE"
);
},
{
closed = 1;
nodes = (
"485 686 LINE",
"224 686 LINE",
"-5 0 LINE",
"197 0 LINE",
"237 122 LINE",
"455 122 LINE",
"496 0 LINE",
"714 0 LINE"
);
},
{
closed = 1;
nodes = (
"349 475 LINE",
"407 267 LINE",
"285 267 LINE",
"344 475 LINE"
);
}
);
width = 709;
}
);
leftKerningGroup = A;
rightKerningGroup = A;
unicode = 00C3;
},
{
glyphname = Adieresis;
lastChange = "2014-09-09 23:33:40 +0000";
layers = (
{
background = {
paths = (
{
closed = 1;
nodes = (
"224 686 LINE",
"-5 0 LINE",
"197 0 LINE",
"237 122 LINE",
"455 122 LINE",
"496 0 LINE",
"714 0 LINE",
"485 686 LINE"
);
},
{
closed = 1;
nodes = (
"407 267 LINE",
"285 267 LINE",
"344 475 LINE",
"349 475 LINE"
);
},
{
closed = 1;
nodes = (
"162 897 LINE",
"162 750 LINE",
"314 750 LINE",
"314 897 LINE"
);
},
{
closed = 1;
nodes = (
"382 897 LINE",
"382 750 LINE",
"534 750 LINE",
"534 897 LINE"
);
}
);
};
layerId = UUID0;
paths = (
{
closed = 1;
nodes = (
"314 897 LINE",
"162 897 LINE",
"162 750 LINE",
"314 750 LINE"
);
},
{
closed = 1;
nodes = (
"534 897 LINE",
"382 897 LINE",
"382 750 LINE",
"534 750 LINE"
);
},
{
closed = 1;
nodes = (
"485 686 LINE",
"224 686 LINE",
"-5 0 LINE",
"197 0 LINE",
"237 122 LINE",
"455 122 LINE",
"496 0 LINE",
"714 0 LINE"
);
},
{
closed = 1;
nodes = (
"349 475 LINE",
"407 267 LINE",
"285 267 LINE",
"344 475 LINE"
);
}
);
width = 709;
}
);
leftKerningGroup = A;
rightKerningGroup = A;
unicode = 00C4;
},
{
glyphname = Aring;
lastChange = "2014-09-09 23:33:40 +0000";
layers = (
{
background = {
paths = (
{
closed = 1;
nodes = (
"224 686 LINE",
"-5 0 LINE",
"197 0 LINE",
"237 122 LINE",
"455 122 LINE",
"496 0 LINE",
"714 0 LINE",
"485 686 LINE"
);
},
{
closed = 1;
nodes = (
"407 267 LINE",
"285 267 LINE",
"344 475 LINE",
"349 475 LINE"
);
},
{
closed = 1;
nodes = (
"373 871 OFFCURVE",
"389 856 OFFCURVE",
"389 837 CURVE SMOOTH",
"389 817 OFFCURVE",
"374 801 OFFCURVE",
"354 801 CURVE SMOOTH",
"335 801 OFFCURVE",
"319 816 OFFCURVE",
"319 835 CURVE SMOOTH",
"319 855 OFFCURVE",
"334 871 OFFCURVE",
"354 871 CURVE SMOOTH"
);
},
{
closed = 1;
nodes = (
"298 937 OFFCURVE",
"253 892 OFFCURVE",
"253 836 CURVE SMOOTH",
"253 779 OFFCURVE",
"299 736 OFFCURVE",
"354 736 CURVE SMOOTH",
"410 736 OFFCURVE",
"455 781 OFFCURVE",
"455 836 CURVE SMOOTH",
"455 892 OFFCURVE",
"409 937 OFFCURVE",
"354 937 CURVE SMOOTH"
);
}
);
};
layerId = UUID0;
paths = (
{
closed = 1;
nodes = (
"298 937 OFFCURVE",
"253 892 OFFCURVE",
"253 836 CURVE SMOOTH",
"253 779 OFFCURVE",
"299 736 OFFCURVE",
"354 736 CURVE SMOOTH",
"410 736 OFFCURVE",
"455 781 OFFCURVE",
"455 836 CURVE SMOOTH",
"455 892 OFFCURVE",
"409 937 OFFCURVE",
"354 937 CURVE SMOOTH"
);
},
{
closed = 1;
nodes = (
"373 871 OFFCURVE",
"389 856 OFFCURVE",
"389 837 CURVE SMOOTH",
"389 817 OFFCURVE",
"374 801 OFFCURVE",
"354 801 CURVE SMOOTH",
"335 801 OFFCURVE",
"319 816 OFFCURVE",
"319 835 CURVE SMOOTH",
"319 855 OFFCURVE",
"334 871 OFFCURVE",
"354 871 CURVE SMOOTH"
);
},
{
closed = 1;
nodes = (
"485 686 LINE",
"224 686 LINE",
"-5 0 LINE",
"197 0 LINE",
"237 122 LINE",
"455 122 LINE",
"496 0 LINE",
"714 0 LINE"
);
},
{
closed = 1;
nodes = (
"349 475 LINE",
"407 267 LINE",
"285 267 LINE",
"344 475 LINE"
);
}
);
width = 709;
}
);
leftKerningGroup = A;
rightKerningGroup = A;
unicode = 00C5;
},
{
glyphname = AE;
lastChange = "2014-09-09 23:33:40 +0000";
layers = (
{
anchors = (
{
name = top;
position = "{506, 686}";
}
);
background = {
anchors = (
{
name = top;
position = "{506, 686}";
}
);
paths = (
{
closed = 1;
nodes = (
"312 686 LINE",
"-13 0 LINE",
"187 0 LINE",
"245 122 LINE",
"463 122 LINE",
"487 0 LINE",
"983 0 LINE",
"963 164 LINE",
"674 164 LINE",
"652 275 LINE",
"952 275 LINE",
"952 428 LINE",
"622 428 LINE",
"603 528 LINE",
"963 528 LINE",
"983 686 LINE"
);
},
{
closed = 1;
nodes = (
"436 267 LINE",
"314 267 LINE",
"402 475 LINE",
"407 475 LINE"
);
}
);
};
layerId = UUID0;
paths = (
{
closed = 1;
nodes = (
"983 686 LINE",
"312 686 LINE",
"-13 0 LINE",
"187 0 LINE",
"245 122 LINE",
"463 122 LINE",
"487 0 LINE",
"983 0 LINE",
"963 164 LINE",
"674 164 LINE",
"652 275 LINE",
"952 275 LINE",
"952 428 LINE",
"622 428 LINE",
"603 528 LINE",
"963 528 LINE"
);
},
{
closed = 1;
nodes = (
"407 475 LINE",
"436 267 LINE",
"314 267 LINE",
"402 475 LINE"
);
}
);
width = 1011;
}
);
rightKerningGroup = E;
unicode = 00C6;
},
{
glyphname = Ccedilla;
lastChange = "2014-09-09 23:33:40 +0000";
layers = (
{
background = {
paths = (
{
closed = 1;
nodes = (
"341 696 LINE SMOOTH",
"175 696 OFFCURVE",
"31 576 OFFCURVE",
"31 396 CURVE SMOOTH",
"31 290 LINE SMOOTH",
"31 100 OFFCURVE",
"173 -10 OFFCURVE",
"349 -10 CURVE SMOOTH",
"377 -10 LINE SMOOTH",
"539 -10 OFFCURVE",
"659 100 OFFCURVE",
"659 280 CURVE",
"471 280 LINE",
"471 247 LINE SMOOTH",
"471 183 OFFCURVE",
"427 147 OFFCURVE",
"371 147 CURVE SMOOTH",
"357 147 LINE SMOOTH",
"301 147 OFFCURVE",
"257 191 OFFCURVE",
"257 247 CURVE SMOOTH",
"257 440 LINE SMOOTH",
"257 496 OFFCURVE",
"301 540 OFFCURVE",
"357 540 CURVE SMOOTH",
"362 540 LINE SMOOTH",
"418 540 OFFCURVE",
"462 503 OFFCURVE",
"462 440 CURVE SMOOTH",
"462 405 LINE",
"659 405 LINE",
"659 600 OFFCURVE",
"532 696 OFFCURVE",
"369 696 CURVE SMOOTH"
);
},
{
closed = 1;
nodes = (
"328 -17 LINE",
"328 -76 LINE",
"346 -76 LINE SMOOTH",
"375 -76 OFFCURVE",
"384 -88 OFFCURVE",
"384 -108 CURVE SMOOTH",
"384 -131 OFFCURVE",
"368 -139 OFFCURVE",
"344 -139 CURVE SMOOTH",
"301 -139 OFFCURVE",
"275 -121 OFFCURVE",
"259 -107 CURVE",
"227 -161 LINE",
"256 -185 OFFCURVE",
"306 -197 OFFCURVE",
"353 -197 CURVE SMOOTH",
"398 -197 OFFCURVE",
"471 -181 OFFCURVE",
"471 -108 CURVE SMOOTH",
"471 -34 OFFCURVE",
"408 -17 OFFCURVE",
"349 -17 CURVE SMOOTH"
);
}
);
};
layerId = UUID0;
paths = (
{
closed = 1;
nodes = (
"341 696 LINE SMOOTH",
"175 696 OFFCURVE",
"31 576 OFFCURVE",
"31 396 CURVE SMOOTH",
"31 290 LINE SMOOTH",
"31 100 OFFCURVE",
"173 -10 OFFCURVE",
"349 -10 CURVE SMOOTH",
"377 -10 LINE SMOOTH",
"539 -10 OFFCURVE",
"659 100 OFFCURVE",
"659 280 CURVE",
"471 280 LINE",
"471 247 LINE SMOOTH",
"471 183 OFFCURVE",
"427 147 OFFCURVE",
"371 147 CURVE SMOOTH",
"357 147 LINE SMOOTH",
"301 147 OFFCURVE",
"257 191 OFFCURVE",
"257 247 CURVE SMOOTH",
"257 440 LINE SMOOTH",
"257 496 OFFCURVE",
"301 540 OFFCURVE",
"357 540 CURVE SMOOTH",
"362 540 LINE SMOOTH",
"418 540 OFFCURVE",
"462 503 OFFCURVE",
"462 440 CURVE SMOOTH",
"462 405 LINE",
"659 405 LINE",
"659 600 OFFCURVE",
"532 696 OFFCURVE",
"369 696 CURVE SMOOTH"
);
},
{
closed = 1;
nodes = (
"328 -17 LINE",
"328 -76 LINE",
"346 -76 LINE SMOOTH",
"375 -76 OFFCURVE",
"384 -88 OFFCURVE",
"384 -108 CURVE SMOOTH",
"384 -131 OFFCURVE",
"368 -139 OFFCURVE",
"344 -139 CURVE SMOOTH",
"301 -139 OFFCURVE",
"275 -121 OFFCURVE",
"259 -107 CURVE",
"227 -161 LINE",
"256 -185 OFFCURVE",
"306 -197 OFFCURVE",
"353 -197 CURVE SMOOTH",
"398 -197 OFFCURVE",
"471 -181 OFFCURVE",
"471 -108 CURVE SMOOTH",
"471 -34 OFFCURVE",
"408 -17 OFFCURVE",
"349 -17 CURVE SMOOTH"
);
}
);
width = 683;
}
);
leftKerningGroup = C;
rightKerningGroup = C;
unicode = 00C7;
},
{
glyphname = Egrave;
lastChange = "2014-09-09 23:33:40 +0000";
layers = (
{
background = {
paths = (
{
closed = 1;
nodes = (
"57 686 LINE",
"57 0 LINE",
"572 0 LINE",
"552 164 LINE",
"263 164 LINE",
"263 275 LINE",
"541 275 LINE",
"541 428 LINE",
"263 428 LINE",
"263 528 LINE",
"552 528 LINE",
"572 686 LINE"
);
},
{
closed = 1;
nodes = (
"149 896 LINE",
"147 893 LINE",
"273 751 LINE",
"391 751 LINE",
"300 896 LINE"
);
}
);
};
layerId = UUID0;
paths = (
{
closed = 1;
nodes = (
"300 896 LINE",
"149 896 LINE",
"147 893 LINE",
"273 751 LINE",
"391 751 LINE"
);
},
{
closed = 1;
nodes = (
"572 686 LINE",
"57 686 LINE",
"57 0 LINE",
"572 0 LINE",
"552 164 LINE",
"263 164 LINE",
"263 275 LINE",
"541 275 LINE",
"541 428 LINE",
"263 428 LINE",
"263 528 LINE",
"552 528 LINE"
);
}
);
width = 600;
}
);
leftKerningGroup = B;
rightKerningGroup = E;
unicode = 00C8;
},
{
glyphname = Eacute;
lastChange = "2014-09-09 23:33:40 +0000";
layers = (
{
background = {
paths = (
{
closed = 1;
nodes = (
"57 686 LINE",
"57 0 LINE",
"572 0 LINE",
"552 164 LINE",
"263 164 LINE",
"263 275 LINE",
"541 275 LINE",
"541 428 LINE",
"263 428 LINE",
"263 528 LINE",
"552 528 LINE",
"572 686 LINE"
);
},
{
closed = 1;
nodes = (
"341 895 LINE",
"250 750 LINE",
"368 750 LINE",
"494 892 LINE",
"492 895 LINE"
);
}
);
};
layerId = UUID0;
paths = (
{
closed = 1;
nodes = (
"492 895 LINE",
"341 895 LINE",
"250 750 LINE",
"368 750 LINE",
"494 892 LINE"
);
},
{
closed = 1;
nodes = (
"572 686 LINE",
"57 686 LINE",
"57 0 LINE",
"572 0 LINE",
"552 164 LINE",
"263 164 LINE",
"263 275 LINE",
"541 275 LINE",
"541 428 LINE",
"263 428 LINE",
"263 528 LINE",
"552 528 LINE"
);
}
);
width = 600;
}
);
leftKerningGroup = B;
rightKerningGroup = E;
unicode = 00C9;
},
{
glyphname = Ecircumflex;
lastChange = "2014-09-09 23:33:40 +0000";
layers = (
{
background = {
paths = (
{
closed = 1;
nodes = (
"57 686 LINE",
"57 0 LINE",
"572 0 LINE",
"552 164 LINE",
"263 164 LINE",
"263 275 LINE",
"541 275 LINE",
"541 428 LINE",
"263 428 LINE",
"263 528 LINE",
"552 528 LINE",
"572 686 LINE"
);
},
{
closed = 1;
nodes = (
"251 896 LINE",
"112 751 LINE",
"240 751 LINE",
"314 828 LINE",
"388 751 LINE",
"518 751 LINE",
"379 896 LINE"
);
}
);
};
layerId = UUID0;
paths = (
{
closed = 1;
nodes = (
"379 896 LINE",
"251 896 LINE",
"112 751 LINE",
"240 751 LINE",
"314 828 LINE",
"388 751 LINE",
"518 751 LINE"
);
},
{
closed = 1;
nodes = (
"572 686 LINE",
"57 686 LINE",
"57 0 LINE",
"572 0 LINE",
"552 164 LINE",
"263 164 LINE",
"263 275 LINE",
"541 275 LINE",
"541 428 LINE",
"263 428 LINE",
"263 528 LINE",
"552 528 LINE"
);
}
);
width = 600;
}
);
leftKerningGroup = B;
rightKerningGroup = E;
unicode = 00CA;
},
{
glyphname = Edieresis;
lastChange = "2014-09-09 23:33:40 +0000";
layers = (
{
background = {
paths = (
{
closed = 1;
nodes = (
"57 686 LINE",
"57 0 LINE",
"572 0 LINE",
"552 164 LINE",
"263 164 LINE",
"263 275 LINE",
"541 275 LINE",
"541 428 LINE",
"263 428 LINE",
"263 528 LINE",
"552 528 LINE",
"572 686 LINE"
);
},
{
closed = 1;
nodes = (
"125 898 LINE",
"125 751 LINE",
"277 751 LINE",
"277 898 LINE"
);
},
{
closed = 1;
nodes = (
"345 898 LINE",
"345 751 LINE",
"497 751 LINE",
"497 898 LINE"
);
}
);
};
layerId = UUID0;
paths = (
{
closed = 1;
nodes = (
"277 898 LINE",
"125 898 LINE",
"125 751 LINE",
"277 751 LINE"
);
},
{
closed = 1;
nodes = (
"497 898 LINE",
"345 898 LINE",
"345 751 LINE",
"497 751 LINE"
);
},
{
closed = 1;
nodes = (
"572 686 LINE",
"57 686 LINE",
"57 0 LINE",
"572 0 LINE",
"552 164 LINE",
"263 164 LINE",
"263 275 LINE",
"541 275 LINE",
"541 428 LINE",
"263 428 LINE",
"263 528 LINE",
"552 528 LINE"
);
}
);
width = 600;
}
);
leftKerningGroup = B;
rightKerningGroup = E;
unicode = 00CB;
},
{
glyphname = Igrave;
lastChange = "2014-09-09 23:33:40 +0000";
layers = (
{
background = {
paths = (
{
closed = 1;
nodes = (
"36 686 LINE",
"36 539 LINE",
"117 539 LINE",
"117 148 LINE",
"36 148 LINE",
"36 0 LINE",
"410 0 LINE",
"410 148 LINE",
"329 148 LINE",
"329 539 LINE",
"410 539 LINE",
"410 686 LINE"
);
},
{
closed = 1;
nodes = (
"39 895 LINE",
"37 892 LINE",
"163 750 LINE",
"281 750 LINE",
"190 895 LINE"
);
}
);
};
layerId = UUID0;
paths = (
{
closed = 1;
nodes = (
"190 895 LINE",
"39 895 LINE",
"37 892 LINE",
"163 750 LINE",
"281 750 LINE"
);
},
{
closed = 1;
nodes = (
"410 686 LINE",
"36 686 LINE",
"36 539 LINE",
"117 539 LINE",
"117 148 LINE",
"36 148 LINE",
"36 0 LINE",
"410 0 LINE",
"410 148 LINE",
"329 148 LINE",
"329 539 LINE",
"410 539 LINE"
);
}
);
width = 446;
}
);
leftKerningGroup = I;
rightKerningGroup = I;
unicode = 00CC;
},
{
glyphname = Iacute;
lastChange = "2014-09-09 23:33:40 +0000";
layers = (
{
background = {
paths = (
{
closed = 1;
nodes = (
"36 686 LINE",
"36 539 LINE",
"117 539 LINE",
"117 148 LINE",
"36 148 LINE",
"36 0 LINE",
"410 0 LINE",
"410 148 LINE",
"329 148 LINE",
"329 539 LINE",
"410 539 LINE",
"410 686 LINE"
);
},
{
closed = 1;
nodes = (
"253 895 LINE",
"162 750 LINE",
"280 750 LINE",
"406 892 LINE",
"404 895 LINE"
);
}
);
};
layerId = UUID0;
paths = (
{
closed = 1;
nodes = (
"404 895 LINE",
"253 895 LINE",
"162 750 LINE",
"280 750 LINE",
"406 892 LINE"
);
},
{
closed = 1;
nodes = (
"410 686 LINE",
"36 686 LINE",
"36 539 LINE",
"117 539 LINE",
"117 148 LINE",
"36 148 LINE",
"36 0 LINE",
"410 0 LINE",
"410 148 LINE",
"329 148 LINE",
"329 539 LINE",
"410 539 LINE"
);
}
);
width = 446;
}
);
leftKerningGroup = I;
rightKerningGroup = I;
unicode = 00CD;
},
{
glyphname = Icircumflex;
lastChange = "2014-09-09 23:33:40 +0000";
layers = (
{
background = {
paths = (
{
closed = 1;
nodes = (
"36 686 LINE",
"36 539 LINE",
"117 539 LINE",
"117 148 LINE",
"36 148 LINE",
"36 0 LINE",
"410 0 LINE",
"410 148 LINE",
"329 148 LINE",
"329 539 LINE",
"410 539 LINE",
"410 686 LINE"
);
},
{
closed = 1;
nodes = (
"160 895 LINE",
"21 750 LINE",
"149 750 LINE",
"223 827 LINE",
"297 750 LINE",
"427 750 LINE",
"288 895 LINE"
);
}
);
};
layerId = UUID0;
paths = (
{
closed = 1;
nodes = (
"288 895 LINE",
"160 895 LINE",
"21 750 LINE",
"149 750 LINE",
"223 827 LINE",
"297 750 LINE",
"427 750 LINE"
);
},
{
closed = 1;
nodes = (
"410 686 LINE",
"36 686 LINE",
"36 539 LINE",
"117 539 LINE",
"117 148 LINE",
"36 148 LINE",
"36 0 LINE",
"410 0 LINE",
"410 148 LINE",
"329 148 LINE",
"329 539 LINE",
"410 539 LINE"
);
}
);
width = 446;
}
);
leftKerningGroup = I;
rightKerningGroup = I;
unicode = 00CE;
},
{
glyphname = Idieresis;
lastChange = "2014-09-09 23:33:40 +0000";
layers = (
{
background = {
paths = (
{
closed = 1;
nodes = (
"36 686 LINE",
"36 539 LINE",
"117 539 LINE",
"117 148 LINE",
"36 148 LINE",
"36 0 LINE",
"410 0 LINE",
"410 148 LINE",
"329 148 LINE",
"329 539 LINE",
"410 539 LINE",
"410 686 LINE"
);
},
{
closed = 1;
nodes = (
"37 897 LINE",
"37 750 LINE",
"189 750 LINE",
"189 897 LINE"
);
},
{
closed = 1;
nodes = (
"257 897 LINE",
"257 750 LINE",
"409 750 LINE",
"409 897 LINE"
);
}
);
};
layerId = UUID0;
paths = (
{
closed = 1;
nodes = (
"189 897 LINE",
"37 897 LINE",
"37 750 LINE",
"189 750 LINE"
);
},
{
closed = 1;
nodes = (
"409 897 LINE",
"257 897 LINE",
"257 750 LINE",
"409 750 LINE"
);
},
{
closed = 1;
nodes = (
"410 686 LINE",
"36 686 LINE",
"36 539 LINE",
"117 539 LINE",
"117 148 LINE",
"36 148 LINE",
"36 0 LINE",
"410 0 LINE",
"410 148 LINE",
"329 148 LINE",
"329 539 LINE",
"410 539 LINE"
);
}
);
width = 446;
}
);
leftKerningGroup = I;
rightKerningGroup = I;
unicode = 00CF;
},
{
glyphname = Eth;
lastChange = "2014-09-09 23:33:40 +0000";
layers = (
{
background = {
paths = (
{
closed = 1;
nodes = (
"83 686 LINE",
"83 391 LINE",
"7 391 LINE",
"7 297 LINE",
"83 297 LINE",
"83 0 LINE",
"392 0 LINE SMOOTH",
"558 0 OFFCURVE",
"690 134 OFFCURVE",
"690 300 CURVE SMOOTH",
"690 386 LINE SMOOTH",
"690 552 OFFCURVE",
"558 686 OFFCURVE",
"392 686 CURVE SMOOTH"
);
},
{
closed = 1;
nodes = (
"428 530 OFFCURVE",
"472 486 OFFCURVE",
"472 430 CURVE SMOOTH",
"472 259 LINE SMOOTH",
"472 203 OFFCURVE",
"428 159 OFFCURVE",
"372 159 CURVE SMOOTH",
"292 159 LINE",
"292 297 LINE",
"371 297 LINE",
"371 391 LINE",
"292 391 LINE",
"292 530 LINE",
"372 530 LINE SMOOTH"
);
}
);
};
layerId = UUID0;
paths = (
{
closed = 1;
nodes = (
"83 686 LINE",
"83 391 LINE",
"7 391 LINE",
"7 297 LINE",
"83 297 LINE",
"83 0 LINE",
"392 0 LINE SMOOTH",
"558 0 OFFCURVE",
"690 134 OFFCURVE",
"690 300 CURVE SMOOTH",
"690 386 LINE SMOOTH",
"690 552 OFFCURVE",
"558 686 OFFCURVE",
"392 686 CURVE SMOOTH"
);
},
{
closed = 1;
nodes = (
"372 530 LINE SMOOTH",
"428 530 OFFCURVE",
"472 486 OFFCURVE",
"472 430 CURVE SMOOTH",
"472 259 LINE SMOOTH",
"472 203 OFFCURVE",
"428 159 OFFCURVE",
"372 159 CURVE SMOOTH",
"292 159 LINE",
"292 297 LINE",
"371 297 LINE",
"371 391 LINE",
"292 391 LINE",
"292 530 LINE"
);
}
);
width = 721;
}
);
leftKerningGroup = B;
rightKerningGroup = D;
unicode = 00D0;
},
{
glyphname = Ntilde;
lastChange = "2014-09-09 23:33:40 +0000";
layers = (
{
background = {
paths = (
{
closed = 1;
nodes = (
"445 686 LINE",
"445 375 LINE",
"443 382 LINE",
"233 686 LINE",
"57 686 LINE",
"57 0 LINE",
"250 0 LINE",
"250 304 LINE",
"253 297 LINE",
"459 0 LINE",
"639 0 LINE",
"639 686 LINE"
);
},
{
closed = 1;
nodes = (
"493 893 LINE",
"486 870 OFFCURVE",
"468 853 OFFCURVE",
"443 853 CURVE SMOOTH",
"390 853 OFFCURVE",
"334 893 OFFCURVE",
"270 893 CURVE SMOOTH",
"193 893 OFFCURVE",
"130 822 OFFCURVE",
"130 750 CURVE",
"211 750 LINE",
"218 773 OFFCURVE",
"236 790 OFFCURVE",
"261 790 CURVE",
"274 789 OFFCURVE",
"288 788 OFFCURVE",
"302 784 CURVE SMOOTH",
"344 770 LINE SMOOTH",
"373 760 OFFCURVE",
"401 750 OFFCURVE",
"434 750 CURVE SMOOTH",
"511 750 OFFCURVE",
"574 821 OFFCURVE",
"574 893 CURVE"
);
}
);
};
layerId = UUID0;
paths = (
{
closed = 1;
nodes = (
"493 893 LINE",
"486 870 OFFCURVE",
"468 853 OFFCURVE",
"443 853 CURVE SMOOTH",
"390 853 OFFCURVE",
"334 893 OFFCURVE",
"270 893 CURVE SMOOTH",
"193 893 OFFCURVE",
"130 822 OFFCURVE",
"130 750 CURVE",
"211 750 LINE",
"218 773 OFFCURVE",
"236 790 OFFCURVE",
"261 790 CURVE",
"274 789 OFFCURVE",
"288 788 OFFCURVE",
"302 784 CURVE",
"344 770 LINE SMOOTH",
"373 760 OFFCURVE",
"401 750 OFFCURVE",
"434 750 CURVE SMOOTH",
"511 750 OFFCURVE",
"574 821 OFFCURVE",
"574 893 CURVE"
);
},
{
closed = 1;
nodes = (
"639 686 LINE",
"445 686 LINE",
"445 375 LINE",
"443 382 LINE",
"233 686 LINE",
"57 686 LINE",
"57 0 LINE",
"250 0 LINE",
"250 304 LINE",
"253 297 LINE",
"459 0 LINE",
"639 0 LINE"
);
}
);
width = 696;
}
);
leftKerningGroup = B;
rightKerningGroup = H;
unicode = 00D1;
},
{
glyphname = Ograve;
lastChange = "2014-09-09 23:33:40 +0000";
layers = (
{
background = {
paths = (
{
closed = 1;
nodes = (
"331 694 LINE SMOOTH",
"165 694 OFFCURVE",
"31 560 OFFCURVE",
"31 394 CURVE SMOOTH",
"31 290 LINE SMOOTH",
"31 124 OFFCURVE",
"165 -10 OFFCURVE",
"331 -10 CURVE SMOOTH",
"387 -10 LINE SMOOTH",
"553 -10 OFFCURVE",
"687 124 OFFCURVE",
"687 290 CURVE SMOOTH",
"687 394 LINE SMOOTH",
"687 560 OFFCURVE",
"553 694 OFFCURVE",
"387 694 CURVE SMOOTH"
);
},
{
closed = 1;
nodes = (
"418 540 OFFCURVE",
"462 496 OFFCURVE",
"462 440 CURVE SMOOTH",
"462 247 LINE SMOOTH",
"462 191 OFFCURVE",
"418 147 OFFCURVE",
"362 147 CURVE SMOOTH",
"357 147 LINE SMOOTH",
"301 147 OFFCURVE",
"257 191 OFFCURVE",
"257 247 CURVE SMOOTH",
"257 440 LINE SMOOTH",
"257 496 OFFCURVE",
"301 540 OFFCURVE",
"357 540 CURVE SMOOTH",
"362 540 LINE SMOOTH"
);
},
{
closed = 1;
nodes = (
"183 895 LINE",
"181 892 LINE",
"307 750 LINE",
"425 750 LINE",
"334 895 LINE"
);
}
);
};
layerId = UUID0;
paths = (
{
closed = 1;
nodes = (
"334 895 LINE",
"183 895 LINE",
"181 892 LINE",
"307 750 LINE",
"425 750 LINE"
);
},
{
closed = 1;
nodes = (
"331 694 LINE SMOOTH",
"165 694 OFFCURVE",
"31 560 OFFCURVE",
"31 394 CURVE SMOOTH",
"31 290 LINE SMOOTH",
"31 124 OFFCURVE",
"165 -10 OFFCURVE",
"331 -10 CURVE SMOOTH",
"387 -10 LINE SMOOTH",
"553 -10 OFFCURVE",
"687 124 OFFCURVE",
"687 290 CURVE SMOOTH",
"687 394 LINE SMOOTH",
"687 560 OFFCURVE",
"553 694 OFFCURVE",
"387 694 CURVE SMOOTH"
);
},
{
closed = 1;
nodes = (
"362 540 LINE SMOOTH",
"418 540 OFFCURVE",
"462 496 OFFCURVE",
"462 440 CURVE SMOOTH",
"462 247 LINE SMOOTH",
"462 191 OFFCURVE",
"418 147 OFFCURVE",
"362 147 CURVE SMOOTH",
"357 147 LINE SMOOTH",
"301 147 OFFCURVE",
"257 191 OFFCURVE",
"257 247 CURVE SMOOTH",
"257 440 LINE SMOOTH",
"257 496 OFFCURVE",
"301 540 OFFCURVE",
"357 540 CURVE SMOOTH"
);
}
);
width = 718;
}
);
leftKerningGroup = C;
rightKerningGroup = O;
unicode = 00D2;
},
{
glyphname = Oacute;
lastChange = "2014-09-09 23:33:40 +0000";
layers = (
{
background = {
paths = (
{
closed = 1;
nodes = (
"331 694 LINE SMOOTH",
"165 694 OFFCURVE",
"31 560 OFFCURVE",
"31 394 CURVE SMOOTH",
"31 290 LINE SMOOTH",
"31 124 OFFCURVE",
"165 -10 OFFCURVE",
"331 -10 CURVE SMOOTH",
"387 -10 LINE SMOOTH",
"553 -10 OFFCURVE",
"687 124 OFFCURVE",
"687 290 CURVE SMOOTH",
"687 394 LINE SMOOTH",
"687 560 OFFCURVE",
"553 694 OFFCURVE",
"387 694 CURVE SMOOTH"
);
},
{
closed = 1;
nodes = (
"418 540 OFFCURVE",
"462 496 OFFCURVE",
"462 440 CURVE SMOOTH",
"462 247 LINE SMOOTH",
"462 191 OFFCURVE",
"418 147 OFFCURVE",
"362 147 CURVE SMOOTH",
"357 147 LINE SMOOTH",
"301 147 OFFCURVE",
"257 191 OFFCURVE",
"257 247 CURVE SMOOTH",
"257 440 LINE SMOOTH",
"257 496 OFFCURVE",
"301 540 OFFCURVE",
"357 540 CURVE SMOOTH",
"362 540 LINE SMOOTH"
);
},
{
closed = 1;
nodes = (
"388 895 LINE",
"297 750 LINE",
"415 750 LINE",
"541 892 LINE",
"539 895 LINE"
);
}
);
};
layerId = UUID0;
paths = (
{
closed = 1;
nodes = (
"539 895 LINE",
"388 895 LINE",
"297 750 LINE",
"415 750 LINE",
"541 892 LINE"
);
},
{
closed = 1;
nodes = (
"331 694 LINE SMOOTH",
"165 694 OFFCURVE",
"31 560 OFFCURVE",
"31 394 CURVE SMOOTH",
"31 290 LINE SMOOTH",
"31 124 OFFCURVE",
"165 -10 OFFCURVE",
"331 -10 CURVE SMOOTH",
"387 -10 LINE SMOOTH",
"553 -10 OFFCURVE",
"687 124 OFFCURVE",
"687 290 CURVE SMOOTH",
"687 394 LINE SMOOTH",
"687 560 OFFCURVE",
"553 694 OFFCURVE",
"387 694 CURVE SMOOTH"
);
},
{
closed = 1;
nodes = (
"362 540 LINE SMOOTH",
"418 540 OFFCURVE",
"462 496 OFFCURVE",
"462 440 CURVE SMOOTH",
"462 247 LINE SMOOTH",
"462 191 OFFCURVE",
"418 147 OFFCURVE",
"362 147 CURVE SMOOTH",
"357 147 LINE SMOOTH",
"301 147 OFFCURVE",
"257 191 OFFCURVE",
"257 247 CURVE SMOOTH",
"257 440 LINE SMOOTH",
"257 496 OFFCURVE",
"301 540 OFFCURVE",
"357 540 CURVE SMOOTH"
);
}
);
width = 718;
}
);
leftKerningGroup = C;
rightKerningGroup = O;
unicode = 00D3;
},
{
glyphname = Ocircumflex;
lastChange = "2014-09-09 23:33:40 +0000";
layers = (
{
background = {
paths = (
{
closed = 1;
nodes = (
"331 694 LINE SMOOTH",
"165 694 OFFCURVE",
"31 560 OFFCURVE",
"31 394 CURVE SMOOTH",
"31 290 LINE SMOOTH",
"31 124 OFFCURVE",
"165 -10 OFFCURVE",
"331 -10 CURVE SMOOTH",
"387 -10 LINE SMOOTH",
"553 -10 OFFCURVE",
"687 124 OFFCURVE",
"687 290 CURVE SMOOTH",
"687 394 LINE SMOOTH",
"687 560 OFFCURVE",
"553 694 OFFCURVE",
"387 694 CURVE SMOOTH"
);
},
{
closed = 1;
nodes = (
"418 540 OFFCURVE",
"462 496 OFFCURVE",
"462 440 CURVE SMOOTH",
"462 247 LINE SMOOTH",
"462 191 OFFCURVE",
"418 147 OFFCURVE",
"362 147 CURVE SMOOTH",
"357 147 LINE SMOOTH",
"301 147 OFFCURVE",
"257 191 OFFCURVE",
"257 247 CURVE SMOOTH",
"257 440 LINE SMOOTH",
"257 496 OFFCURVE",
"301 540 OFFCURVE",
"357 540 CURVE SMOOTH",
"362 540 LINE SMOOTH"
);
},
{
closed = 1;
nodes = (
"292 895 LINE",
"153 750 LINE",
"281 750 LINE",
"355 827 LINE",
"429 750 LINE",
"559 750 LINE",
"420 895 LINE"
);
}
);
};
layerId = UUID0;
paths = (
{
closed = 1;
nodes = (
"420 895 LINE",
"292 895 LINE",
"153 750 LINE",
"281 750 LINE",
"355 827 LINE",
"429 750 LINE",
"559 750 LINE"
);
},
{
closed = 1;
nodes = (
"331 694 LINE SMOOTH",
"165 694 OFFCURVE",
"31 560 OFFCURVE",
"31 394 CURVE SMOOTH",
"31 290 LINE SMOOTH",
"31 124 OFFCURVE",
"165 -10 OFFCURVE",
"331 -10 CURVE SMOOTH",
"387 -10 LINE SMOOTH",
"553 -10 OFFCURVE",
"687 124 OFFCURVE",
"687 290 CURVE SMOOTH",
"687 394 LINE SMOOTH",
"687 560 OFFCURVE",
"553 694 OFFCURVE",
"387 694 CURVE SMOOTH"
);
},
{
closed = 1;
nodes = (
"362 540 LINE SMOOTH",
"418 540 OFFCURVE",
"462 496 OFFCURVE",
"462 440 CURVE SMOOTH",
"462 247 LINE SMOOTH",
"462 191 OFFCURVE",
"418 147 OFFCURVE",
"362 147 CURVE SMOOTH",
"357 147 LINE SMOOTH",
"301 147 OFFCURVE",
"257 191 OFFCURVE",
"257 247 CURVE SMOOTH",
"257 440 LINE SMOOTH",
"257 496 OFFCURVE",
"301 540 OFFCURVE",
"357 540 CURVE SMOOTH"
);
}
);
width = 718;
}
);
leftKerningGroup = C;
rightKerningGroup = O;
unicode = 00D4;
},
{
glyphname = Otilde;
lastChange = "2014-09-09 23:33:40 +0000";
layers = (
{
background = {
paths = (
{
closed = 1;
nodes = (
"331 694 LINE SMOOTH",
"165 694 OFFCURVE",
"31 560 OFFCURVE",
"31 394 CURVE SMOOTH",
"31 290 LINE SMOOTH",
"31 124 OFFCURVE",
"165 -10 OFFCURVE",
"331 -10 CURVE SMOOTH",
"387 -10 LINE SMOOTH",
"553 -10 OFFCURVE",
"687 124 OFFCURVE",
"687 290 CURVE SMOOTH",
"687 394 LINE SMOOTH",
"687 560 OFFCURVE",
"553 694 OFFCURVE",
"387 694 CURVE SMOOTH"
);
},
{
closed = 1;
nodes = (
"418 540 OFFCURVE",
"462 496 OFFCURVE",
"462 440 CURVE SMOOTH",
"462 247 LINE SMOOTH",
"462 191 OFFCURVE",
"418 147 OFFCURVE",
"362 147 CURVE SMOOTH",
"357 147 LINE SMOOTH",
"301 147 OFFCURVE",
"257 191 OFFCURVE",
"257 247 CURVE SMOOTH",
"257 440 LINE SMOOTH",
"257 496 OFFCURVE",
"301 540 OFFCURVE",
"357 540 CURVE SMOOTH",
"362 540 LINE SMOOTH"
);
},
{
closed = 1;
nodes = (
"498 893 LINE",
"491 870 OFFCURVE",
"473 853 OFFCURVE",
"448 853 CURVE SMOOTH",
"395 853 OFFCURVE",
"339 893 OFFCURVE",
"275 893 CURVE SMOOTH",
"198 893 OFFCURVE",
"135 822 OFFCURVE",
"135 750 CURVE",
"216 750 LINE",
"223 773 OFFCURVE",
"241 790 OFFCURVE",
"266 790 CURVE SMOOTH",
"279 790 OFFCURVE",
"293 788 OFFCURVE",
"306 784 CURVE SMOOTH",
"348 770 LINE SMOOTH",
"378 760 OFFCURVE",
"406 750 OFFCURVE",
"439 750 CURVE SMOOTH",
"516 750 OFFCURVE",
"579 821 OFFCURVE",
"579 893 CURVE"
);
}
);
};
layerId = UUID0;
paths = (
{
closed = 1;
nodes = (
"498 893 LINE",
"491 870 OFFCURVE",
"473 853 OFFCURVE",
"448 853 CURVE SMOOTH",
"395 853 OFFCURVE",
"339 893 OFFCURVE",
"275 893 CURVE SMOOTH",
"198 893 OFFCURVE",
"135 822 OFFCURVE",
"135 750 CURVE",
"216 750 LINE",
"223 773 OFFCURVE",
"241 790 OFFCURVE",
"266 790 CURVE SMOOTH",
"279 790 OFFCURVE",
"293 788 OFFCURVE",
"306 784 CURVE SMOOTH",
"348 770 LINE SMOOTH",
"378 760 OFFCURVE",
"406 750 OFFCURVE",
"439 750 CURVE SMOOTH",
"516 750 OFFCURVE",
"579 821 OFFCURVE",
"579 893 CURVE"
);
},
{
closed = 1;
nodes = (
"331 694 LINE SMOOTH",
"165 694 OFFCURVE",
"31 560 OFFCURVE",
"31 394 CURVE SMOOTH",
"31 290 LINE SMOOTH",
"31 124 OFFCURVE",
"165 -10 OFFCURVE",
"331 -10 CURVE SMOOTH",
"387 -10 LINE SMOOTH",
"553 -10 OFFCURVE",
"687 124 OFFCURVE",
"687 290 CURVE SMOOTH",
"687 394 LINE SMOOTH",
"687 560 OFFCURVE",
"553 694 OFFCURVE",
"387 694 CURVE SMOOTH"
);
},
{
closed = 1;
nodes = (
"362 540 LINE SMOOTH",
"418 540 OFFCURVE",
"462 496 OFFCURVE",
"462 440 CURVE SMOOTH",
"462 247 LINE SMOOTH",
"462 191 OFFCURVE",
"418 147 OFFCURVE",
"362 147 CURVE SMOOTH",
"357 147 LINE SMOOTH",
"301 147 OFFCURVE",
"257 191 OFFCURVE",
"257 247 CURVE SMOOTH",
"257 440 LINE SMOOTH",
"257 496 OFFCURVE",
"301 540 OFFCURVE",
"357 540 CURVE SMOOTH"
);
}
);
width = 718;
}
);
leftKerningGroup = C;
rightKerningGroup = O;
unicode = 00D5;
},
{
glyphname = Odieresis;
lastChange = "2014-09-09 23:33:40 +0000";
layers = (
{
background = {
paths = (
{
closed = 1;
nodes = (
"331 694 LINE SMOOTH",
"165 694 OFFCURVE",
"31 560 OFFCURVE",
"31 394 CURVE SMOOTH",
"31 290 LINE SMOOTH",
"31 124 OFFCURVE",
"165 -10 OFFCURVE",
"331 -10 CURVE SMOOTH",
"387 -10 LINE SMOOTH",
"553 -10 OFFCURVE",
"687 124 OFFCURVE",
"687 290 CURVE SMOOTH",
"687 394 LINE SMOOTH",
"687 560 OFFCURVE",
"553 694 OFFCURVE",
"387 694 CURVE SMOOTH"
);
},
{
closed = 1;
nodes = (
"418 540 OFFCURVE",
"462 496 OFFCURVE",
"462 440 CURVE SMOOTH",
"462 247 LINE SMOOTH",
"462 191 OFFCURVE",
"418 147 OFFCURVE",
"362 147 CURVE SMOOTH",
"357 147 LINE SMOOTH",
"301 147 OFFCURVE",
"257 191 OFFCURVE",
"257 247 CURVE SMOOTH",
"257 440 LINE SMOOTH",
"257 496 OFFCURVE",
"301 540 OFFCURVE",
"357 540 CURVE SMOOTH",
"362 540 LINE SMOOTH"
);
},
{
closed = 1;
nodes = (
"177 897 LINE",
"177 750 LINE",
"329 750 LINE",
"329 897 LINE"
);
},
{
closed = 1;
nodes = (
"397 897 LINE",
"397 750 LINE",
"549 750 LINE",
"549 897 LINE"
);
}
);
};
layerId = UUID0;
paths = (
{
closed = 1;
nodes = (
"329 897 LINE",
"177 897 LINE",
"177 750 LINE",
"329 750 LINE"
);
},
{
closed = 1;
nodes = (
"549 897 LINE",
"397 897 LINE",
"397 750 LINE",
"549 750 LINE"
);
},
{
closed = 1;
nodes = (
"331 694 LINE SMOOTH",
"165 694 OFFCURVE",
"31 560 OFFCURVE",
"31 394 CURVE SMOOTH",
"31 290 LINE SMOOTH",
"31 124 OFFCURVE",
"165 -10 OFFCURVE",
"331 -10 CURVE SMOOTH",
"387 -10 LINE SMOOTH",
"553 -10 OFFCURVE",
"687 124 OFFCURVE",
"687 290 CURVE SMOOTH",
"687 394 LINE SMOOTH",
"687 560 OFFCURVE",
"553 694 OFFCURVE",
"387 694 CURVE SMOOTH"
);
},
{
closed = 1;
nodes = (
"362 540 LINE SMOOTH",
"418 540 OFFCURVE",
"462 496 OFFCURVE",
"462 440 CURVE SMOOTH",
"462 247 LINE SMOOTH",
"462 191 OFFCURVE",
"418 147 OFFCURVE",
"362 147 CURVE SMOOTH",
"357 147 LINE SMOOTH",
"301 147 OFFCURVE",
"257 191 OFFCURVE",
"257 247 CURVE SMOOTH",
"257 440 LINE SMOOTH",
"257 496 OFFCURVE",
"301 540 OFFCURVE",
"357 540 CURVE SMOOTH"
);
}
);
width = 718;
}
);
leftKerningGroup = C;
rightKerningGroup = O;
unicode = 00D6;
},
{
glyphname = multiply;
lastChange = "2014-09-05 18:35:52 +0000";
layers = (
{
background = {
paths = (
{
closed = 1;
nodes = (
"307 347 LINE",
"171 482 LINE",
"81 392 LINE",
"216 256 LINE",
"81 120 LINE",
"171 30 LINE",
"307 165 LINE",
"443 30 LINE",
"533 120 LINE",
"398 256 LINE",
"533 392 LINE",
"443 482 LINE"
);
}
);
};
layerId = UUID0;
paths = (
{
closed = 1;
nodes = (
"307 347 LINE",
"171 482 LINE",
"81 392 LINE",
"216 256 LINE",
"81 120 LINE",
"171 30 LINE",
"307 165 LINE",
"443 30 LINE",
"533 120 LINE",
"398 256 LINE",
"533 392 LINE",
"443 482 LINE"
);
}
);
width = 615;
}
);
unicode = 00D7;
},
{
glyphname = Oslash;
lastChange = "2014-09-09 23:33:40 +0000";
layers = (
{
anchors = (
{
name = top;
position = "{359, 686}";
}
);
background = {
anchors = (
{
name = top;
position = "{359, 686}";
}
);
paths = (
{
closed = 1;
nodes = (
"553 754 LINE",
"502 671 LINE",
"466 686 OFFCURVE",
"428 694 OFFCURVE",
"387 694 CURVE SMOOTH",
"331 694 LINE SMOOTH",
"165 694 OFFCURVE",
"31 560 OFFCURVE",
"31 394 CURVE SMOOTH",
"31 290 LINE SMOOTH",
"31 199 OFFCURVE",
"69 121 OFFCURVE",
"132 65 CURVE",
"53 -65 LINE",
"161 -65 LINE",
"210 15 LINE",
"249 -2 OFFCURVE",
"289 -10 OFFCURVE",
"331 -10 CURVE SMOOTH",
"387 -10 LINE SMOOTH",
"553 -10 OFFCURVE",
"687 124 OFFCURVE",
"687 290 CURVE SMOOTH",
"687 394 LINE SMOOTH",
"687 486 OFFCURVE",
"646 567 OFFCURVE",
"581 623 CURVE",
"661 754 LINE"
);
},
{
closed = 1;
nodes = (
"462 247 LINE SMOOTH",
"462 191 OFFCURVE",
"418 147 OFFCURVE",
"362 147 CURVE SMOOTH",
"357 147 LINE SMOOTH",
"336 147 OFFCURVE",
"318 153 OFFCURVE",
"301 164 CURVE",
"462 428 LINE"
);
},
{
closed = 1;
nodes = (
"380 540 OFFCURVE",
"397 535 OFFCURVE",
"414 526 CURVE",
"257 269 LINE",
"257 440 LINE SMOOTH",
"257 496 OFFCURVE",
"301 540 OFFCURVE",
"357 540 CURVE SMOOTH",
"362 540 LINE SMOOTH"
);
}
);
};
layerId = UUID0;
paths = (
{
closed = 1;
nodes = (
"661 754 LINE",
"553 754 LINE",
"502 671 LINE",
"466 686 OFFCURVE",
"428 694 OFFCURVE",
"387 694 CURVE SMOOTH",
"331 694 LINE SMOOTH",
"165 694 OFFCURVE",
"31 560 OFFCURVE",
"31 394 CURVE SMOOTH",
"31 290 LINE SMOOTH",
"31 199 OFFCURVE",
"69 121 OFFCURVE",
"132 65 CURVE",
"53 -65 LINE",
"161 -65 LINE",
"210 15 LINE",
"249 -2 OFFCURVE",
"289 -10 OFFCURVE",
"331 -10 CURVE SMOOTH",
"387 -10 LINE SMOOTH",
"553 -10 OFFCURVE",
"687 124 OFFCURVE",
"687 290 CURVE SMOOTH",
"687 394 LINE SMOOTH",
"687 486 OFFCURVE",
"646 567 OFFCURVE",
"581 623 CURVE"
);
},
{
closed = 1;
nodes = (
"362 540 LINE SMOOTH",
"380 540 OFFCURVE",
"397 535 OFFCURVE",
"414 526 CURVE",
"257 269 LINE",
"257 440 LINE SMOOTH",
"257 496 OFFCURVE",
"301 540 OFFCURVE",
"357 540 CURVE SMOOTH"
);
},
{
closed = 1;
nodes = (
"462 428 LINE",
"462 247 LINE SMOOTH",
"462 191 OFFCURVE",
"418 147 OFFCURVE",
"362 147 CURVE SMOOTH",
"357 147 LINE SMOOTH",
"336 147 OFFCURVE",
"318 153 OFFCURVE",
"301 164 CURVE"
);
}
);
width = 718;
}
);
leftKerningGroup = C;
rightKerningGroup = O;
unicode = 00D8;
},
{
glyphname = Ugrave;
lastChange = "2014-09-09 23:33:42 +0000";
layers = (
{
background = {
paths = (
{
closed = 1;
nodes = (
"425 686 LINE",
"425 221 LINE SMOOTH",
"425 177 OFFCURVE",
"389 146 OFFCURVE",
"344 146 CURVE SMOOTH",
"299 146 OFFCURVE",
"263 177 OFFCURVE",
"263 221 CURVE SMOOTH",
"263 686 LINE",
"52 686 LINE",
"52 218 LINE SMOOTH",
"52 79 OFFCURVE",
"159 -10 OFFCURVE",
"322 -10 CURVE SMOOTH",
"365 -10 LINE SMOOTH",
"528 -10 OFFCURVE",
"635 79 OFFCURVE",
"635 218 CURVE SMOOTH",
"635 686 LINE"
);
},
{
closed = 1;
nodes = (
"163 895 LINE",
"161 892 LINE",
"287 750 LINE",
"405 750 LINE",
"314 895 LINE"
);
}
);
};
layerId = UUID0;
paths = (
{
closed = 1;
nodes = (
"314 895 LINE",
"163 895 LINE",
"161 892 LINE",
"287 750 LINE",
"405 750 LINE"
);
},
{
closed = 1;
nodes = (
"635 686 LINE",
"425 686 LINE",
"425 221 LINE SMOOTH",
"425 177 OFFCURVE",
"389 146 OFFCURVE",
"344 146 CURVE SMOOTH",
"299 146 OFFCURVE",
"263 177 OFFCURVE",
"263 221 CURVE SMOOTH",
"263 686 LINE",
"52 686 LINE",
"52 218 LINE SMOOTH",
"52 79 OFFCURVE",
"159 -10 OFFCURVE",
"322 -10 CURVE SMOOTH",
"365 -10 LINE SMOOTH",
"528 -10 OFFCURVE",
"635 79 OFFCURVE",
"635 218 CURVE SMOOTH"
);
}
);
width = 687;
}
);
leftKerningGroup = U;
rightKerningGroup = U;
unicode = 00D9;
},
{
glyphname = Uacute;
lastChange = "2014-09-09 23:33:42 +0000";
layers = (
{
background = {
paths = (
{
closed = 1;
nodes = (
"425 686 LINE",
"425 221 LINE SMOOTH",
"425 177 OFFCURVE",
"389 146 OFFCURVE",
"344 146 CURVE SMOOTH",
"299 146 OFFCURVE",
"263 177 OFFCURVE",
"263 221 CURVE SMOOTH",
"263 686 LINE",
"52 686 LINE",
"52 218 LINE SMOOTH",
"52 79 OFFCURVE",
"159 -10 OFFCURVE",
"322 -10 CURVE SMOOTH",
"365 -10 LINE SMOOTH",
"528 -10 OFFCURVE",
"635 79 OFFCURVE",
"635 218 CURVE SMOOTH",
"635 686 LINE"
);
},
{
closed = 1;
nodes = (
"376 895 LINE",
"285 750 LINE",
"403 750 LINE",
"529 892 LINE",
"527 895 LINE"
);
}
);
};
layerId = UUID0;
paths = (
{
closed = 1;
nodes = (
"527 895 LINE",
"376 895 LINE",
"285 750 LINE",
"403 750 LINE",
"529 892 LINE"
);
},
{
closed = 1;
nodes = (
"635 686 LINE",
"425 686 LINE",
"425 221 LINE SMOOTH",
"425 177 OFFCURVE",
"389 146 OFFCURVE",
"344 146 CURVE SMOOTH",
"299 146 OFFCURVE",
"263 177 OFFCURVE",
"263 221 CURVE SMOOTH",
"263 686 LINE",
"52 686 LINE",
"52 218 LINE SMOOTH",
"52 79 OFFCURVE",
"159 -10 OFFCURVE",
"322 -10 CURVE SMOOTH",
"365 -10 LINE SMOOTH",
"528 -10 OFFCURVE",
"635 79 OFFCURVE",
"635 218 CURVE SMOOTH"
);
}
);
width = 687;
}
);
leftKerningGroup = U;
rightKerningGroup = U;
unicode = 00DA;
},
{
glyphname = Ucircumflex;
lastChange = "2014-09-09 23:33:42 +0000";
layers = (
{
background = {
paths = (
{
closed = 1;
nodes = (
"425 686 LINE",
"425 221 LINE SMOOTH",
"425 177 OFFCURVE",
"389 146 OFFCURVE",
"344 146 CURVE SMOOTH",
"299 146 OFFCURVE",
"263 177 OFFCURVE",
"263 221 CURVE SMOOTH",
"263 686 LINE",
"52 686 LINE",
"52 218 LINE SMOOTH",
"52 79 OFFCURVE",
"159 -10 OFFCURVE",
"322 -10 CURVE SMOOTH",
"365 -10 LINE SMOOTH",
"528 -10 OFFCURVE",
"635 79 OFFCURVE",
"635 218 CURVE SMOOTH",
"635 686 LINE"
);
},
{
closed = 1;
nodes = (
"283 895 LINE",
"144 750 LINE",
"272 750 LINE",
"346 827 LINE",
"420 750 LINE",
"550 750 LINE",
"411 895 LINE"
);
}
);
};
layerId = UUID0;
paths = (
{
closed = 1;
nodes = (
"411 895 LINE",
"283 895 LINE",
"144 750 LINE",
"272 750 LINE",
"346 827 LINE",
"420 750 LINE",
"550 750 LINE"
);
},
{
closed = 1;
nodes = (
"635 686 LINE",
"425 686 LINE",
"425 221 LINE SMOOTH",
"425 177 OFFCURVE",
"389 146 OFFCURVE",
"344 146 CURVE SMOOTH",
"299 146 OFFCURVE",
"263 177 OFFCURVE",
"263 221 CURVE SMOOTH",
"263 686 LINE",
"52 686 LINE",
"52 218 LINE SMOOTH",
"52 79 OFFCURVE",
"159 -10 OFFCURVE",
"322 -10 CURVE SMOOTH",
"365 -10 LINE SMOOTH",
"528 -10 OFFCURVE",
"635 79 OFFCURVE",
"635 218 CURVE SMOOTH"
);
}
);
width = 687;
}
);
leftKerningGroup = U;
rightKerningGroup = U;
unicode = 00DB;
},
{
glyphname = Udieresis;
lastChange = "2014-09-09 23:33:42 +0000";
layers = (
{
background = {
paths = (
{
closed = 1;
nodes = (
"425 686 LINE",
"425 221 LINE SMOOTH",
"425 177 OFFCURVE",
"389 146 OFFCURVE",
"344 146 CURVE SMOOTH",
"299 146 OFFCURVE",
"263 177 OFFCURVE",
"263 221 CURVE SMOOTH",
"263 686 LINE",
"52 686 LINE",
"52 218 LINE SMOOTH",
"52 79 OFFCURVE",
"159 -10 OFFCURVE",
"322 -10 CURVE SMOOTH",
"365 -10 LINE SMOOTH",
"528 -10 OFFCURVE",
"635 79 OFFCURVE",
"635 218 CURVE SMOOTH",
"635 686 LINE"
);
},
{
closed = 1;
nodes = (
"159 897 LINE",
"159 750 LINE",
"311 750 LINE",
"311 897 LINE"
);
},
{
closed = 1;
nodes = (
"379 897 LINE",
"379 750 LINE",
"531 750 LINE",
"531 897 LINE"
);
}
);
};
layerId = UUID0;
paths = (
{
closed = 1;
nodes = (
"311 897 LINE",
"159 897 LINE",
"159 750 LINE",
"311 750 LINE"
);
},
{
closed = 1;
nodes = (
"531 897 LINE",
"379 897 LINE",
"379 750 LINE",
"531 750 LINE"
);
},
{
closed = 1;
nodes = (
"635 686 LINE",
"425 686 LINE",
"425 221 LINE SMOOTH",
"425 177 OFFCURVE",
"389 146 OFFCURVE",
"344 146 CURVE SMOOTH",
"299 146 OFFCURVE",
"263 177 OFFCURVE",
"263 221 CURVE SMOOTH",
"263 686 LINE",
"52 686 LINE",
"52 218 LINE SMOOTH",
"52 79 OFFCURVE",
"159 -10 OFFCURVE",
"322 -10 CURVE SMOOTH",
"365 -10 LINE SMOOTH",
"528 -10 OFFCURVE",
"635 79 OFFCURVE",
"635 218 CURVE SMOOTH"
);
}
);
width = 687;
}
);
leftKerningGroup = U;
rightKerningGroup = U;
unicode = 00DC;
},
{
glyphname = Yacute;
lastChange = "2014-09-09 23:33:42 +0000";
layers = (
{
background = {
paths = (
{
closed = 1;
nodes = (
"440 686 LINE",
"335 461 LINE",
"330 461 LINE",
"227 686 LINE",
"-9 686 LINE",
"219 262 LINE",
"219 0 LINE",
"428 0 LINE",
"428 262 LINE",
"655 686 LINE"
);
},
{
closed = 1;
nodes = (
"361 895 LINE",
"270 750 LINE",
"388 750 LINE",
"514 892 LINE",
"512 895 LINE"
);
}
);
};
layerId = UUID0;
paths = (
{
closed = 1;
nodes = (
"512 895 LINE",
"361 895 LINE",
"270 750 LINE",
"388 750 LINE",
"514 892 LINE"
);
},
{
closed = 1;
nodes = (
"655 686 LINE",
"440 686 LINE",
"335 461 LINE",
"330 461 LINE",
"227 686 LINE",
"-9 686 LINE",
"219 262 LINE",
"219 0 LINE",
"428 0 LINE",
"428 262 LINE"
);
}
);
width = 646;
}
);
leftKerningGroup = Y;
rightKerningGroup = Y;
unicode = 00DD;
},
